<svg width="223" height="349" viewBox="0 0 223 349" fill="none" xmlns="http://www.w3.org/2000/svg">
<path d="M98.6629 312.421C98.6629 312.421 121.437 275.129 151.459 247.681C151.402 247.655 124.081 301.271 98.6629 312.421Z" fill="url(#paint0_linear_44_4321)"/>
<path d="M98.7162 312.427C98.7162 312.427 96.6819 287.406 151.46 247.715C151.403 247.689 113.998 293.027 98.7162 312.427Z" fill="#39B54A"/>
<path d="M98.2324 322.362C98.2324 322.362 81.4642 298.012 55.3338 277.824C55.2788 277.799 73.8488 311.859 98.2324 322.362Z" fill="url(#paint1_linear_44_4321)"/>
<path d="M98.232 322.362C98.232 322.362 104.942 309.099 55.3338 277.824C55.2788 277.799 85.8479 309.111 98.232 322.362Z" fill="#39B54A"/>
<path d="M95.2102 298.57C95.2102 298.57 78.3767 258.763 52.8825 225.759C52.9026 225.701 71.7408 281.388 95.2102 298.57Z" fill="url(#paint2_linear_44_4321)"/>
<path d="M95.2101 298.57C95.2101 298.57 101.04 276.788 52.8825 225.759C52.9026 225.701 83.025 276.884 95.2101 298.57Z" fill="#39B54A"/>
<path d="M95.9327 264.687C95.9327 264.687 80.7776 221.934 58.1812 186.522C58.1812 186.522 75.3055 246.281 95.9327 264.687Z" fill="url(#paint3_linear_44_4321)"/>
<path d="M95.9327 264.687C95.9327 264.687 100.763 241.265 58.1812 186.522C58.1812 186.522 85.0553 241.439 95.9327 264.687Z" fill="#39B54A"/>
<path d="M99.0734 241.333C99.0734 241.333 84.0843 194.164 61.7937 155.033C61.7937 155.033 78.8455 221.053 99.0734 241.333Z" fill="url(#paint4_linear_44_4321)"/>
<path d="M99.0734 241.333C99.0734 241.333 103.573 215.462 61.7937 155.033C61.7937 155.033 88.3233 215.726 99.0734 241.333Z" fill="#39B54A"/>
<path d="M100.414 222.548C100.414 222.548 92.4861 173.606 76.0261 131.249C76.0261 131.249 83.1878 199.078 100.414 222.548Z" fill="url(#paint5_linear_44_4321)"/>
<path d="M100.414 222.548C100.414 222.548 108.896 197.93 76.0261 131.249C76.0261 131.249 93.4876 195.504 100.414 222.548Z" fill="#39B54A"/>
<path d="M106.562 185.766C106.562 185.766 95.7929 134.873 74.6296 90.5586C74.6499 90.4998 84.8312 160.855 106.562 185.766Z" fill="url(#paint6_linear_44_4321)"/>
<path d="M106.562 185.766C106.562 185.766 116.501 160.675 74.6296 90.5586C74.6499 90.4998 97.4926 157.516 106.562 185.766Z" fill="#39B54A"/>
<path d="M109.682 170.415C109.682 170.415 113.943 118.881 106.095 70.0566C106.095 70.0566 95.4931 139.679 109.682 170.415Z" fill="url(#paint7_linear_44_4321)"/>
<path d="M109.664 170.387C109.664 170.387 126.863 150.127 106.08 70.0566C106.08 70.0566 108.971 140.768 109.664 170.387Z" fill="#39B54A"/>
<path d="M120.504 139.147C120.504 139.147 128.564 91.2608 127.27 47.2785C127.233 47.1924 112.686 112.515 120.504 139.147Z" fill="url(#paint8_linear_44_4321)"/>
<path d="M120.489 139.122C120.489 139.122 135.432 118.421 127.249 47.2782C127.213 47.1921 122.733 111.904 120.489 139.122Z" fill="#39B54A"/>
<path d="M130.547 109.955C130.547 109.955 152.832 67.7928 164.701 26.175C164.643 26.1487 130.77 82.4456 130.547 109.955Z" fill="url(#paint9_linear_44_4321)"/>
<path d="M130.346 109.846C130.346 109.846 151.293 95.4617 164.494 26.0698C164.436 26.0434 140.673 85.1486 130.346 109.846Z" fill="#39B54A"/>
<path d="M96.7578 290.545C96.7578 290.545 117.507 253.889 144.512 226.555C144.512 226.555 119.342 279.141 96.7578 290.545Z" fill="url(#paint10_linear_44_4321)"/>
<path d="M96.8108 290.55C96.8108 290.55 95.5077 266.454 144.511 226.589C144.511 226.589 110.685 271.487 96.8108 290.55Z" fill="#39B54A"/>
<path d="M98.1232 267.084C98.1232 267.084 122.046 233.14 151.352 209.003C151.352 209.003 121.682 258.191 98.1232 267.084Z" fill="url(#paint11_linear_44_4321)"/>
<path d="M98.1443 267.087C98.1443 267.087 98.9798 243.156 151.352 209.018C151.352 209.018 113.67 249.727 98.1443 267.087Z" fill="#39B54A"/>
<path d="M97.8024 249.569C97.8024 249.569 119.54 216.178 145.653 191.931C145.653 191.931 118.409 240.022 97.8024 249.569Z" fill="url(#paint12_linear_44_4321)"/>
<path d="M97.8225 249.571C97.8225 249.571 99.312 226.797 145.653 191.943C145.653 191.943 111.761 232.322 97.8225 249.571Z" fill="#39B54A"/>
<path d="M101.342 224.553C101.342 224.553 128.364 191.742 158.526 169.071C158.546 169.012 123.779 216.79 101.342 224.553Z" fill="url(#paint13_linear_44_4321)"/>
<path d="M101.345 224.553C101.345 224.553 106.189 200.66 158.526 169.073C158.547 169.014 118.104 207.892 101.345 224.553Z" fill="#39B54A"/>
<path d="M103.326 205.031C103.326 205.031 130.347 172.22 160.509 149.549C160.53 149.49 125.762 197.268 103.326 205.031Z" fill="url(#paint14_linear_44_4321)"/>
<path d="M103.329 205.031C103.329 205.031 108.172 181.138 160.51 149.551C160.53 149.492 120.087 188.37 103.329 205.031Z" fill="#39B54A"/>
<path d="M109.114 177.036C109.114 177.036 136.136 144.226 166.298 121.555C166.298 121.555 131.551 169.273 109.114 177.036Z" fill="url(#paint15_linear_44_4321)"/>
<path d="M109.118 177.036C109.118 177.036 113.962 153.144 166.299 121.557C166.299 121.557 125.877 160.375 109.118 177.036Z" fill="#39B54A"/>
<path d="M118.657 141.95C118.657 141.95 144.518 112.543 173.926 92.8328C173.926 92.8328 140.924 135.87 118.657 141.95Z" fill="url(#paint16_linear_44_4321)"/>
<path d="M118.659 141.951C118.659 141.951 122.511 119.777 173.925 92.8352C173.925 92.8352 134.853 127.21 118.659 141.951Z" fill="#39B54A"/>
<path d="M128.878 113.308C128.878 113.308 152.269 86.681 178.865 68.8354C178.865 68.8354 149.032 107.833 128.878 113.308Z" fill="url(#paint17_linear_44_4321)"/>
<path d="M128.881 113.309C128.881 113.309 132.397 93.2499 178.865 68.8375C178.865 68.8375 143.534 99.9879 128.881 113.309Z" fill="#39B54A"/>
<path d="M130.976 105.606C130.976 105.606 110.983 140.336 102.586 188.84C94.1882 237.343 88.6441 316.233 103.417 342.379C103.417 342.379 108.85 342.697 106.479 337.233C104.073 331.683 97.774 306.406 98.6971 277.67C99.6413 248.874 99.0934 219.815 107.077 186.015C115.06 152.214 130.976 105.606 130.976 105.606Z" fill="url(#paint18_linear_44_4321)"/>
<defs>
<linearGradient id="paint0_linear_44_4321" x1="106.566" y1="274.348" x2="144.216" y2="282.196" gradientUnits="userSpaceOnUse">
<stop stop-color="#54B948"/>
<stop offset="0.3764" stop-color="#00A651"/>
<stop offset="1" stop-color="#005826"/>
</linearGradient>
<linearGradient id="paint1_linear_44_4321" x1="97.0125" y1="300.292" x2="56.701" y2="302.527" gradientUnits="userSpaceOnUse">
<stop stop-color="#54B948"/>
<stop offset="0.3764" stop-color="#00A651"/>
<stop offset="1" stop-color="#005826"/>
</linearGradient>
<linearGradient id="paint2_linear_44_4321" x1="93.2187" y1="262.301" x2="55.1181" y2="264.444" gradientUnits="userSpaceOnUse">
<stop stop-color="#54B948"/>
<stop offset="0.3764" stop-color="#00A651"/>
<stop offset="1" stop-color="#005826"/>
</linearGradient>
<linearGradient id="paint3_linear_44_4321" x1="93.7793" y1="225.813" x2="60.5074" y2="227.686" gradientUnits="userSpaceOnUse">
<stop stop-color="#54B948"/>
<stop offset="0.3764" stop-color="#00A651"/>
<stop offset="1" stop-color="#005826"/>
</linearGradient>
<linearGradient id="paint4_linear_44_4321" x1="96.5992" y1="198.352" x2="64.2706" y2="200.174" gradientUnits="userSpaceOnUse">
<stop stop-color="#54B948"/>
<stop offset="0.3764" stop-color="#00A651"/>
<stop offset="1" stop-color="#005826"/>
</linearGradient>
<linearGradient id="paint5_linear_44_4321" x1="104.528" y1="179.863" x2="71.6857" y2="176.72" gradientUnits="userSpaceOnUse">
<stop stop-color="#54B948"/>
<stop offset="0.3764" stop-color="#00A651"/>
<stop offset="1" stop-color="#005826"/>
</linearGradient>
<linearGradient id="paint6_linear_44_4321" x1="110.815" y1="141.856" x2="70.1524" y2="137.972" gradientUnits="userSpaceOnUse">
<stop stop-color="#54B948"/>
<stop offset="0.3764" stop-color="#00A651"/>
<stop offset="1" stop-color="#005826"/>
</linearGradient>
<linearGradient id="paint7_linear_44_4321" x1="126.705" y1="130.569" x2="87.4008" y2="113.777" gradientUnits="userSpaceOnUse">
<stop stop-color="#54B948"/>
<stop offset="0.3764" stop-color="#00A651"/>
<stop offset="1" stop-color="#005826"/>
</linearGradient>
<linearGradient id="paint8_linear_44_4321" x1="137.118" y1="100.403" x2="109.475" y2="88.5247" gradientUnits="userSpaceOnUse">
<stop stop-color="#54B948"/>
<stop offset="0.3764" stop-color="#00A651"/>
<stop offset="1" stop-color="#005826"/>
</linearGradient>
<linearGradient id="paint9_linear_44_4321" x1="158.502" y1="79.3163" x2="135.422" y2="58.2704" gradientUnits="userSpaceOnUse">
<stop stop-color="#54B948"/>
<stop offset="0.3764" stop-color="#00A651"/>
<stop offset="1" stop-color="#005826"/>
</linearGradient>
<linearGradient id="paint10_linear_44_4321" x1="104.445" y1="253.636" x2="137.379" y2="260.524" gradientUnits="userSpaceOnUse">
<stop stop-color="#54B948"/>
<stop offset="0.3764" stop-color="#00A651"/>
<stop offset="1" stop-color="#005826"/>
</linearGradient>
<linearGradient id="paint11_linear_44_4321" x1="109.132" y1="231.502" x2="141.381" y2="241.448" gradientUnits="userSpaceOnUse">
<stop stop-color="#54B948"/>
<stop offset="0.3764" stop-color="#00A651"/>
<stop offset="1" stop-color="#005826"/>
</linearGradient>
<linearGradient id="paint12_linear_44_4321" x1="108.409" y1="215.212" x2="135.819" y2="223.685" gradientUnits="userSpaceOnUse">
<stop stop-color="#54B948"/>
<stop offset="0.3764" stop-color="#00A651"/>
<stop offset="1" stop-color="#005826"/>
</linearGradient>
<linearGradient id="paint13_linear_44_4321" x1="117.188" y1="189.455" x2="143.955" y2="201.503" gradientUnits="userSpaceOnUse">
<stop stop-color="#54B948"/>
<stop offset="0.3764" stop-color="#00A651"/>
<stop offset="1" stop-color="#005826"/>
</linearGradient>
<linearGradient id="paint14_linear_44_4321" x1="119.144" y1="169.912" x2="145.912" y2="181.959" gradientUnits="userSpaceOnUse">
<stop stop-color="#54B948"/>
<stop offset="0.3764" stop-color="#00A651"/>
<stop offset="1" stop-color="#005826"/>
</linearGradient>
<linearGradient id="paint15_linear_44_4321" x1="124.953" y1="141.948" x2="151.721" y2="153.995" gradientUnits="userSpaceOnUse">
<stop stop-color="#54B948"/>
<stop offset="0.3764" stop-color="#00A651"/>
<stop offset="1" stop-color="#005826"/>
</linearGradient>
<linearGradient id="paint16_linear_44_4321" x1="133.124" y1="109.796" x2="160.711" y2="122.197" gradientUnits="userSpaceOnUse">
<stop stop-color="#54B948"/>
<stop offset="0.3764" stop-color="#00A651"/>
<stop offset="1" stop-color="#005826"/>
</linearGradient>
<linearGradient id="paint17_linear_44_4321" x1="141.95" y1="84.2236" x2="166.9" y2="95.4399" gradientUnits="userSpaceOnUse">
<stop stop-color="#54B948"/>
<stop offset="0.3764" stop-color="#00A651"/>
<stop offset="1" stop-color="#005826"/>
</linearGradient>
<linearGradient id="paint18_linear_44_4321" x1="128.68" y1="75.5641" x2="73.8763" y2="344.294" gradientUnits="userSpaceOnUse">
<stop stop-color="#54B948"/>
<stop offset="0.3764" stop-color="#00A651"/>
<stop offset="1" stop-color="#005826"/>
</linearGradient>
</defs>
</svg>
