<svg width="151" height="358" viewBox="0 0 151 358" fill="none" xmlns="http://www.w3.org/2000/svg">
<g clip-path="url(#clip0_44_4452)">
<path d="M91.1131 291.724C91.1131 291.724 110.616 284.344 129.801 254.228C129.801 254.228 116.077 268.04 107.485 274.243C97.3452 281.624 91.7649 290.455 91.1131 291.724Z" fill="url(#paint0_linear_44_4452)"/>
<path d="M91.6445 280.173C91.6445 280.173 128.577 256.582 143.816 216.002C143.816 216.002 134.812 237.605 117.627 251.643C100.402 265.636 93.3559 275.463 91.6445 280.173Z" fill="url(#paint1_linear_44_4452)"/>
<path d="M92.0114 269.528C92.0114 269.528 133.469 231.76 135.559 187.872C135.559 187.872 132.62 212.329 112.704 236.467C92.8692 260.605 92.0114 269.528 92.0114 269.528Z" fill="url(#paint2_linear_44_4452)"/>
<path d="M91.5672 253.72C91.5672 253.72 123.984 220.933 131.203 180.85C131.203 180.85 119.306 209.292 105.173 228.358C96.1311 240.495 91.5672 253.72 91.5672 253.72Z" fill="url(#paint3_linear_44_4452)"/>
<path d="M128.523 153.581C128.523 153.581 124.314 202.361 90.0621 242.531C90.0621 242.531 95.5239 222.603 109.129 201.68C122.774 180.802 128.523 153.581 128.523 153.581Z" fill="url(#paint4_linear_44_4452)"/>
<path d="M124.25 142.936C124.25 142.936 122.608 184.515 89.047 227.629C89.047 227.629 93.5313 208.878 102.492 195.201C111.413 181.478 119.763 167.303 124.25 142.936Z" fill="url(#paint5_linear_44_4452)"/>
<path d="M118.512 130.93C118.512 130.93 114.302 185.871 87.4635 211.639C87.4635 211.639 91.3769 196.058 102.783 176.403C114.189 156.747 118.512 130.93 118.512 130.93Z" fill="url(#paint6_linear_44_4452)"/>
<path d="M114.85 118.609C114.85 118.609 108.118 165.94 85.9191 197.053C85.9191 197.053 87.5521 183.012 97.8588 162.768C108.166 142.523 113.097 126.444 114.85 118.609Z" fill="url(#paint7_linear_44_4452)"/>
<path d="M110.825 93.0161C110.825 93.0161 109.587 144.651 83.0313 178.799C83.0313 178.799 84.3783 167.702 91.5889 153.979C98.7995 140.165 107.112 116.795 110.825 93.0161Z" fill="url(#paint8_linear_44_4452)"/>
<path d="M106.638 67.1514C106.638 67.1514 106.252 130.156 79.8581 166.659C79.8581 166.659 82.5504 150.081 87.8872 139.438C93.2241 128.795 103.615 101.212 106.638 67.1514Z" fill="url(#paint9_linear_44_4452)"/>
<path d="M92.9614 54.374C92.9614 54.374 103.694 104.653 77.4991 155.424C77.4991 155.424 75.7086 152.344 83.4522 127.252C91.1958 102.16 94.5393 86.3072 92.9614 54.374Z" fill="url(#paint10_linear_44_4452)"/>
<path d="M87.1367 60.0342C87.1367 60.0342 87.2391 123.039 74.5702 144.734C74.5702 144.734 73.3526 132.504 78.7334 111.578C84.155 90.6983 85.2968 84.7196 87.1367 60.0342Z" fill="url(#paint11_linear_44_4452)"/>
<path d="M78.0242 30.0464C78.0242 30.0464 83.7006 105.509 72.0478 132.232C72.0478 132.232 72.5849 107.183 75.9703 87.8429C79.4371 68.5023 78.0242 30.0464 78.0242 30.0464Z" fill="url(#paint12_linear_44_4452)"/>
<path d="M71.1438 24.9263C71.1438 24.9263 78.2887 91.5117 67.8964 123.534C67.8964 123.534 67.1262 112.799 68.7612 92.3256C70.3962 71.8523 72.0321 48.6612 71.1438 24.9263Z" fill="url(#paint13_linear_44_4452)"/>
<path d="M58.8901 17.6304C58.8901 17.6304 70.1964 57.8549 63.3806 109.989C63.3806 109.989 61.7159 95.0868 61.192 77.9195C60.6681 60.7523 64.6633 44.4464 58.8901 17.6304Z" fill="url(#paint14_linear_44_4452)"/>
<path d="M91.1139 291.723C91.1139 291.723 109.517 285.566 129.72 254.409C129.72 254.409 116.484 270.576 106.507 278.229C100.073 283.21 93.6794 289.595 91.1139 291.723Z" fill="#39B54A"/>
<path d="M91.5635 280.355C91.5635 280.355 128.496 256.763 143.735 216.184C143.735 216.184 138.274 232.851 116.609 255.312C104.147 268.264 98.3236 273.834 91.5635 280.355Z" fill="#39B54A"/>
<path d="M91.8892 269.754C91.8892 269.754 133.428 231.805 135.559 187.872C135.559 187.872 132.823 212.737 114.332 238.189C99.6689 258.297 91.8892 269.754 91.8892 269.754Z" fill="#39B54A"/>
<path d="M91.4857 253.901C91.4857 253.901 124.025 220.887 131.203 180.85C131.203 180.85 124.682 203.857 107.005 230.124C100.284 240.133 91.4857 253.901 91.4857 253.901Z" fill="#39B54A"/>
<path d="M128.523 153.581C128.523 153.581 124.233 202.543 89.9806 242.713C89.9806 242.713 100.572 223.691 110.471 205.167C122.325 183.021 128.523 153.581 128.523 153.581Z" fill="#39B54A"/>
<path d="M124.25 142.936C124.25 142.936 122.608 184.515 89.047 227.629C89.047 227.629 95.9327 211.007 104.894 197.33C113.855 183.653 119.763 167.303 124.25 142.936Z" fill="#39B54A"/>
<path d="M118.43 131.111C118.43 131.111 114.219 186.052 87.3815 211.82C87.3815 211.82 92.392 202.988 102.576 183.967C116.182 158.514 118.43 131.111 118.43 131.111Z" fill="#39B54A"/>
<path d="M114.728 118.835C114.728 118.835 107.996 166.166 85.7971 197.28C85.7971 197.28 91.6642 183.24 100.057 164.58C109.387 143.701 113.016 126.626 114.728 118.835Z" fill="#39B54A"/>
<path d="M110.744 93.1973C110.744 93.1973 109.506 144.832 82.9503 178.98C82.9503 178.98 86.7398 168.88 94.0318 155.157C104.216 136.226 107.031 116.976 110.744 93.1973Z" fill="#39B54A"/>
<path d="M106.516 67.3774C106.516 67.3774 106.13 130.382 79.736 166.885C79.736 166.885 85.4001 151.531 90.7369 140.888C96.1145 130.199 103.493 101.438 106.516 67.3774Z" fill="#39B54A"/>
<path d="M92.9614 54.374C92.9614 54.374 103.613 104.834 77.4176 155.606C77.4176 155.606 78.1105 153.115 85.8948 127.977C93.6791 102.84 95.9657 81.642 92.9614 54.374Z" fill="#39B54A"/>
<path d="M87.1367 60.0342C87.1367 60.0342 87.2391 123.039 74.5702 144.734C74.5702 144.734 75.5904 137.17 80.2787 117.648C85.4969 95.9075 85.2968 84.7196 87.1367 60.0342Z" fill="#39B54A"/>
<path d="M77.9421 29.1406C77.9421 29.1406 83.6185 104.604 71.9658 131.326C71.9658 131.326 74.5765 115.473 77.0673 92.4181C79.2313 72.8961 77.9421 29.1406 77.9421 29.1406Z" fill="#39B54A"/>
<path d="M71.1438 24.9263C71.1438 24.9263 78.2887 91.5117 67.8964 123.534C67.8964 123.534 69.1211 113.207 70.7968 92.7788C72.4725 72.3508 72.0321 48.6612 71.1438 24.9263Z" fill="#39B54A"/>
<path d="M58.8901 17.6304C58.8901 17.6304 70.1557 57.6284 63.3399 109.763C63.3399 109.763 64.4034 94.2719 63.8387 77.1499C63.2741 60.028 64.6633 44.4464 58.8901 17.6304Z" fill="#39B54A"/>
<path d="M47.532 7.79834C47.532 7.79834 58.7537 57.9882 55.1203 88.8343C55.1203 88.8343 51.8281 70.7606 51.1401 57.4887C50.4521 44.2169 50.7838 25.0114 47.532 7.79834Z" fill="url(#paint15_linear_44_4452)"/>
<path d="M47.532 7.79834C47.532 7.79834 58.7537 57.9882 55.1203 88.8343C55.1203 88.8343 55.3292 72.12 53.7458 57.6703C52.2842 44.5342 50.7838 25.0114 47.532 7.79834Z" fill="#39B54A"/>
<path d="M32.834 3.94385C32.834 3.94385 49.7195 41.2258 48.6099 74.0657C48.6099 74.0657 47.0641 69.264 44.4624 56.1276C41.8607 42.9911 41.7033 25.6877 32.834 3.94385Z" fill="url(#paint16_linear_44_4452)"/>
<path d="M32.834 3.94385C32.834 3.94385 49.7195 41.2258 48.6099 74.0657C48.6099 74.0657 48.5715 66.5012 45.9698 53.3647C43.3681 40.2282 41.7033 25.6877 32.834 3.94385Z" fill="#39B54A"/>
<path d="M6.60669 25.4976C6.60669 25.4976 31.8793 68.9436 54.5539 87.1123C54.5539 87.1123 44.949 72.0714 36.7269 62.4666C28.5047 52.8618 15.7231 39.9042 6.60669 25.4976Z" fill="url(#paint17_linear_44_4452)"/>
<path d="M6.60669 25.4976C6.60669 25.4976 31.8793 68.9436 54.5539 87.1123C54.5539 87.1123 43.4413 75.831 35.0567 64.686C27.4455 54.4925 15.7231 39.9042 6.60669 25.4976Z" fill="#39B54A"/>
<path d="M5.30835 9.37158C5.30835 9.37158 20.6465 49.7353 45.1939 67.7229C45.1939 67.7229 42.7929 63.2379 35.1005 52.682C27.4081 42.1262 14.9515 31.7961 5.30835 9.37158Z" fill="url(#paint18_linear_44_4452)"/>
<path d="M5.30835 9.37158C5.30835 9.37158 20.6465 49.7353 45.1939 67.7229C45.1939 67.7229 39.739 63.2827 32.0059 52.6816C24.2728 42.0804 14.9515 31.7961 5.30835 9.37158Z" fill="#39B54A"/>
<path d="M45.4363 67.724C45.4363 67.724 37.1818 32.5263 16.3037 1.22217C16.3037 1.22217 31.9244 48.1532 45.4363 67.724Z" fill="url(#paint19_linear_44_4452)"/>
<path d="M45.4363 67.724C45.4363 67.724 37.1818 32.5263 16.3037 1.22217C16.3037 1.22217 35.6319 40.9514 45.4363 67.724Z" fill="#39B54A"/>
<path d="M91.4393 291.087C91.4393 291.087 71.2447 286.464 48.8177 259.236C48.8177 259.236 64.0018 271.061 73.2024 276.045C84.1944 281.936 90.7068 289.909 91.4393 291.087Z" fill="url(#paint20_linear_44_4452)"/>
<path d="M91.439 291.087C91.439 291.087 72.5063 287.506 48.9394 259.462C48.9394 259.462 63.8784 273.643 74.626 279.896C81.6282 283.883 88.7114 289.32 91.439 291.087Z" fill="#39B54A"/>
<path d="M90.3829 279.401C90.3829 279.401 51.0954 261.139 31.4404 222.949C31.4404 222.949 42.8352 243.154 61.3992 254.663C80.0853 266.217 88.1855 274.961 90.3829 279.401Z" fill="url(#paint21_linear_44_4452)"/>
<path d="M90.5459 279.582C90.5459 279.582 51.2583 261.32 31.6033 223.13C31.6033 223.13 38.887 238.85 62.9048 258.242C76.6641 269.297 83.0147 274.009 90.5459 279.582Z" fill="#39B54A"/>
<path d="M89.8557 269.391C89.8557 269.391 41.7346 243.201 30.6724 200.98C30.6724 200.98 38.5238 224.039 62.9084 242.479C87.1709 260.875 89.8557 269.391 89.8557 269.391Z" fill="url(#paint22_linear_44_4452)"/>
<path d="M89.9777 269.527C89.9777 269.527 41.6938 243.155 30.6316 200.934C30.6316 200.934 38.4014 224.446 61.6454 244.517C80.0452 260.375 89.9777 269.527 89.9777 269.527Z" fill="#39B54A"/>
<path d="M90.9995 254.082C90.9995 254.082 51.5907 232.694 34.6224 196.498C34.6224 196.498 53.1827 220.056 71.6238 233.966C83.3073 242.801 90.9995 254.082 90.9995 254.082Z" fill="url(#paint23_linear_44_4452)"/>
<path d="M91.0813 254.262C91.0813 254.262 51.5503 232.738 34.5413 196.496C34.5413 196.496 46.6284 216.566 70.1576 236.229C79.1948 243.751 91.0813 254.262 91.0813 254.262Z" fill="#39B54A"/>
<path d="M31.6572 166.284C31.6572 166.284 46.6272 212.31 88.7614 241.806C88.7614 241.806 79.0353 224.002 61.1244 207.511C43.2949 191.019 31.6572 166.284 31.6572 166.284Z" fill="url(#paint24_linear_44_4452)"/>
<path d="M31.6572 166.284C31.6572 166.284 46.7492 212.536 88.9242 241.988C88.9242 241.988 74.3926 226.538 60.6346 211.316C44.2308 193.057 31.6572 166.284 31.6572 166.284Z" fill="#39B54A"/>
<path d="M34.7131 155.821C34.7131 155.821 45.8168 195.55 88.1538 227.719C88.1538 227.719 79.5268 210.866 67.7218 200.174C55.9576 189.436 44.6414 178.11 34.7131 155.821Z" fill="url(#paint25_linear_44_4452)"/>
<path d="M34.7131 155.821C34.7131 155.821 45.8168 195.55 88.1538 227.719C88.1538 227.719 77.6936 213.629 65.8887 202.846C54.1244 192.199 44.6414 178.11 34.7131 155.821Z" fill="#39B54A"/>
<path d="M34.3086 144.587C34.3086 144.587 53.5117 195.416 86.1223 210.778C86.1223 210.778 78.105 197.322 61.7816 182.507C45.4582 167.692 34.3086 144.587 34.3086 144.587Z" fill="url(#paint26_linear_44_4452)"/>
<path d="M34.4717 144.768C34.4717 144.768 53.6748 195.597 86.2854 210.958C86.2854 210.958 79.0803 204.298 64.182 189.619C44.1955 170.001 34.4717 144.768 34.4717 144.768Z" fill="#39B54A"/>
<path d="M29.6675 136.071C29.6675 136.071 53.2717 176.21 84.9859 194.471C84.9859 194.471 78.3118 182.42 61.4586 168.646C44.5239 154.782 34.1038 142.459 29.6675 136.071Z" fill="url(#paint27_linear_44_4452)"/>
<path d="M29.7902 136.207C29.7902 136.207 53.3945 176.346 85.1087 194.607C85.1087 194.607 74.525 184.458 60.0739 171.273C43.8725 156.503 34.2265 142.595 29.7902 136.207Z" fill="#39B54A"/>
<path d="M21.0811 118.268C21.0811 118.268 44.3581 163.027 82.3434 178.842C82.3434 178.842 76.4013 169.872 64.1477 161.58C51.894 153.289 34.553 137.16 21.0811 118.268Z" fill="url(#paint28_linear_44_4452)"/>
<path d="M21.2843 118.403C21.2843 118.403 44.5612 163.163 82.5466 178.978C82.5466 178.978 74.8937 172.091 62.5585 163.981C45.4196 152.699 34.7154 137.34 21.2843 118.403Z" fill="#39B54A"/>
<path d="M13.1871 95.6177C13.1871 95.6177 41.388 150.299 80.5132 167.564C80.5132 167.564 70.867 154.652 61.4629 148.263C52.0589 141.965 30.891 123.661 13.1871 95.6177Z" fill="url(#paint29_linear_44_4452)"/>
<path d="M13.3501 95.7984C13.3501 95.7984 41.5511 150.479 80.6763 167.745C80.6763 167.745 68.9933 157.46 59.5893 151.071C50.1852 144.773 31.0133 123.796 13.3501 95.7984Z" fill="#39B54A"/>
<path d="M14.698 79.6279C14.698 79.6279 30.6445 128.101 77.6254 154.472C77.6254 154.472 77.5858 150.803 58.6568 134.628C39.7277 118.453 29.1852 107.172 14.698 79.6279Z" fill="url(#paint30_linear_44_4452)"/>
<path d="M14.698 79.6279C14.698 79.6279 30.848 128.237 77.8289 154.608C77.8289 154.608 75.9971 152.932 57.0681 136.757C38.139 120.582 25.6436 104.137 14.698 79.6279Z" fill="#39B54A"/>
<path d="M19.5424 80.2179C19.5424 80.2179 51.6532 132.182 73.1496 141.97C73.1496 141.97 67.9003 131.142 52.798 117.323C37.6956 103.505 33.6658 99.3819 19.5424 80.2179Z" fill="url(#paint31_linear_44_4452)"/>
<path d="M19.5425 80.2183C19.5425 80.2183 51.6533 132.182 73.1498 141.97C73.1498 141.97 68.4282 136.352 54.6286 123.258C39.2822 108.715 33.6659 99.3822 19.5425 80.2183Z" fill="#39B54A"/>
<path d="M12.1787 54.4429C12.1787 54.4429 47.7871 119 71.4403 132.82C71.4403 132.82 57.6429 113.022 44.6172 99.7019C31.5914 86.3819 12.1787 54.4429 12.1787 54.4429Z" fill="url(#paint32_linear_44_4452)"/>
<path d="M12.1787 54.4429C12.1787 54.4429 47.7871 119 71.4403 132.82C71.4403 132.82 60.8977 121.72 46.57 104.866C34.4404 90.5499 12.1787 54.4429 12.1787 54.4429Z" fill="#39B54A"/>
<path d="M5.42554 30.7969C5.42554 30.7969 36.5979 88.2412 62.4484 106.41C62.4484 106.41 57.1171 97.3949 44.5398 82.3989C31.9625 67.4028 17.8793 50.1869 5.42554 30.7969Z" fill="url(#paint33_linear_44_4452)"/>
<path d="M5.42554 30.7969C5.42554 30.7969 36.5979 88.2412 62.4484 106.41C62.4484 106.41 55.8136 99.1161 43.1549 84.12C30.4961 69.124 17.8793 50.1869 5.42554 30.7969Z" fill="#39B54A"/>
<path d="M14.5818 49.9595C14.5818 49.9595 31.4272 88.3759 68.3079 121.45C68.3079 121.45 59.9238 108.856 49.8703 95.9438C39.8169 82.9413 26.7491 73.9247 14.5818 49.9595Z" fill="url(#paint34_linear_44_4452)"/>
<path d="M14.5818 49.9595C14.5818 49.9595 31.4272 88.3759 68.3079 121.45C68.3079 121.45 57.4802 110.305 47.3861 97.3477C37.3327 84.3452 26.7491 73.9247 14.5818 49.9595Z" fill="#39B54A"/>
<path d="M93.0504 316.907C93.0504 316.907 102.992 164.577 45.7354 67.769C45.0029 66.5006 44.1886 66.4098 43.4154 65.1867C43.4154 65.1867 100.307 158.054 87.3492 320.168L93.0504 316.907Z" fill="url(#paint35_linear_44_4452)"/>
<path d="M129.843 327.482C129.843 327.482 116.428 330.533 106.649 329.074C96.8711 327.615 99.1368 326.62 95.9171 321.512C92.6974 316.405 95.0823 319.191 98.9579 318.262C102.833 317.333 98.0635 317.267 93.9495 316.206C89.8354 315.144 85.0655 316.604 82.0843 311.96C79.1031 307.251 75.2871 299.225 75.2871 299.225L109.452 304.001L123.404 310.501L129.843 327.482Z" fill="url(#paint36_linear_44_4452)"/>
<path d="M123.761 313.221C123.761 313.221 106.471 309.506 95.619 307.914C84.7674 306.322 79.7589 306.123 77.9702 303.603C76.1815 301.082 72.6041 294.847 75.7045 296.638C78.805 298.429 90.4913 300.22 87.9275 298.031C85.3636 295.908 81.1303 295.311 73.6177 291.729C66.1051 288.147 66.105 289.076 63.3623 283.902C60.56 278.728 66.4628 282.244 69.3247 283.703C72.2463 285.162 71.829 283.504 65.2703 279.325C58.7117 275.146 59.9638 278.264 55.969 270.834C55.969 270.834 72.9022 275.279 88.941 280.386C104.92 285.494 116.964 296.107 116.964 296.107L123.761 313.221Z" fill="url(#paint37_linear_44_4452)"/>
<path d="M115.891 296.77C115.891 296.77 103.192 286.356 85.7813 282.244C68.3115 278.131 65.8669 277.136 61.3355 274.814C56.8041 272.559 56.804 272.559 55.2538 269.375C53.7036 266.257 56.9233 268.38 60.2026 270.569C63.4819 272.758 76.4203 276.406 81.1306 274.881C85.7813 273.355 82.7405 272.824 78.9246 270.901C75.1683 268.977 63.8397 268.579 53.7036 259.359C43.5675 250.139 42.0769 238.929 42.0769 238.929C42.0769 238.929 56.9829 253.853 77.2551 254.981C97.5272 256.109 106.709 275.478 106.709 275.478L115.891 296.77Z" fill="url(#paint38_linear_44_4452)"/>
<path d="M103.669 271.962C103.669 271.962 99.674 265.661 83.9929 261.88C68.3118 258.099 52.2729 253.986 47.9204 249.277C43.5678 244.633 41.004 238.199 42.3157 238C43.6274 237.801 60.5606 248.746 65.0324 248.282C69.5042 247.817 69.0272 246.889 63.84 244.103C58.6527 241.251 46.1912 238.796 41.302 233.689C36.4129 228.581 34.4453 219.892 34.4453 219.892L58.4738 230.637L86.2586 230.903C86.2586 230.903 89.9553 238.664 93.8905 245.297C97.8257 251.93 103.669 271.962 103.669 271.962Z" fill="url(#paint39_linear_44_4452)"/>
<path d="M92.3398 243.44C92.3398 243.44 85.6618 237.404 68.1324 235.546C50.6029 233.623 41.4208 231.898 37.3068 225.663C33.1331 219.428 33.6697 217.902 37.9626 220.688C42.2556 223.474 73.7967 229.51 72.962 225.663C72.1272 221.749 64.4953 223.209 50.6626 219.892C36.8298 216.575 31.7021 216.575 26.3359 203.707C26.3359 203.707 49.2912 200.258 62.5278 203.375C75.8239 206.559 74.7507 201.783 80.5342 210.539C86.2581 219.295 92.3398 243.44 92.3398 243.44Z" fill="url(#paint40_linear_44_4452)"/>
<path d="M80.8922 214.253C80.8922 214.253 76.957 210.406 55.1346 208.748C33.2526 207.089 28.7808 209.411 25.4418 201.915C22.1625 194.42 20.4931 191.568 26.4555 194.752C32.4179 198.002 51.4975 200.39 49.8877 197.803C48.2778 195.282 29.1982 196.344 23.5339 187.588C17.8696 178.832 16.2598 169.081 16.2598 169.081C16.2598 169.081 27.4094 178.832 48.1586 178.965L65.6284 181.883C65.6284 181.883 70.1002 184.934 75.4664 199.594C80.8922 214.253 80.8922 214.253 80.8922 214.253Z" fill="url(#paint41_linear_44_4452)"/>
<path d="M69.4437 185.797C69.4437 185.797 63.4813 183.21 46.548 182.348C29.6148 181.485 21.8041 180.557 18.4651 174.056C15.1262 167.556 14.9473 163.642 17.3323 165.897C19.7172 168.153 38.4988 170.474 34.2059 167.357C29.9129 164.173 20.4327 164.703 17.0341 159.795C13.6356 154.886 12.7412 147.059 12.7412 147.059C12.7412 147.059 44.6997 149.314 53.8221 159.397C62.9446 169.546 69.4437 185.797 69.4437 185.797Z" fill="url(#paint42_linear_44_4452)"/>
<path d="M54.3589 160.856C54.3589 160.856 30.7478 147.258 13.6954 150.973C13.6954 150.973 11.0719 143.743 14.3512 144.008C17.6306 144.273 31.6422 146.064 27.0511 143.079C22.4601 140.094 12.9202 139.099 10.8334 134.721C8.74656 130.343 6.18274 123.843 9.87943 123.379C13.5761 122.914 13.9339 120.195 9.87943 116.613C5.82499 113.031 6.83859 110.51 6.06348 100.826C6.06348 100.826 37.3065 121.787 54.3589 160.856Z" fill="url(#paint43_linear_44_4452)"/>
<path d="M49.053 113.761C49.7685 117.077 51.915 132.267 47.9799 124.971C43.985 117.608 46.3103 114.755 34.0874 109.847C21.8645 104.938 21.9838 103.612 21.0894 105.071C20.195 106.53 23.7725 112.832 19.3603 108.321C14.9481 103.811 8.68761 101.224 6.12378 100.892C6.12378 100.892 23.2359 114.357 33.9682 129.415C44.7005 144.406 55.731 164.04 59.9643 169.944C64.1976 175.781 67.6558 133.395 65.2708 128.022C62.8859 122.649 48.2183 110.112 49.053 113.761Z" fill="url(#paint44_linear_44_4452)"/>
<path d="M82.9192 145.401C82.9192 145.401 75.8239 137.308 74.0948 134.92C72.3657 132.466 73.2005 139.895 72.485 146.528C71.7695 153.161 69.5634 163.775 68.1921 150.243C66.8207 136.711 68.7883 131.272 65.1512 126.297C61.4545 121.322 61.7527 122.251 59.5466 120.924C57.4001 119.597 59.1888 134.588 57.3405 146.794C55.4921 158.999 53.9419 158.8 55.9095 163.841C57.8771 168.882 72.1868 192.695 75.5258 199.594C78.8051 206.492 82.9192 145.401 82.9192 145.401Z" fill="url(#paint45_linear_44_4452)"/>
<path d="M73.3186 195.813C73.9744 197.604 86.1377 230.505 88.9996 235.612C91.8616 240.72 92.8752 195.946 96.6911 184.868C100.507 173.857 102.892 176.112 100.746 172.331C97.6452 166.892 90.6692 156.677 90.6095 158.866C90.5499 161.055 83.9316 200.788 83.5739 191.236C83.2161 181.684 86.9128 156.412 86.1973 151.967C85.4818 147.523 82.3218 144.804 80.712 142.88C80.712 142.88 76.1208 156.942 74.988 171.005C73.8551 185.067 71.4106 190.573 73.3186 195.813Z" fill="url(#paint46_linear_44_4452)"/>
<path d="M95.3805 250.869C95.3805 250.869 83.7538 230.505 85.5426 220.356C87.3313 210.207 98.1232 167.755 97.6462 167.158C96.5133 165.632 102.714 172.73 102.714 178.302C102.714 183.874 100.091 199.86 101.403 197.936C102.714 196.012 103.549 180.292 105.278 182.879C107.007 185.399 109.392 186.328 111.002 189.711C112.612 193.094 98.3617 252.196 95.3805 250.869Z" fill="url(#paint47_linear_44_4452)"/>
<path d="M129.128 326.089L117.501 302.74C117.501 302.74 122.509 274.815 134.852 269.309C134.852 269.309 135.746 273.488 134.136 277.468C132.526 281.448 126.325 297.5 127.697 305.792C129.128 314.083 133.719 292.393 136.879 297.235C140.098 302.077 130.916 329.671 129.128 326.089Z" fill="url(#paint48_linear_44_4452)"/>
<path d="M96.0363 253.323C96.0363 253.323 103.787 275.08 106.769 280.984C109.75 286.887 122.807 231.765 122.807 231.765C122.807 231.765 123.106 223.407 122.45 221.019C121.794 218.632 119.945 209.743 119.051 216.31C118.753 218.433 117.084 231.102 113.685 237.735C110.286 244.368 110.108 245.894 114.341 220.356C118.574 194.752 109.929 187.787 109.929 187.787C109.929 187.787 103.012 223.54 99.5541 232.23C96.0959 240.919 93.6513 246.823 96.0363 253.323Z" fill="url(#paint49_linear_44_4452)"/>
<path d="M117.56 302.741C117.56 302.741 123.045 274.948 134.911 269.309C134.911 269.309 134.434 265.13 130.856 266.988C127.279 268.845 133.897 259.359 133.241 256.109C132.585 252.859 130.141 243.506 128.65 245.363C127.159 247.221 120.482 273.422 118.454 273.09C116.427 272.759 124.894 251.731 127.338 240.455C129.783 229.178 123.821 224.004 122.449 221.02C122.449 221.02 115.115 249.476 110.644 264.003C106.172 278.529 106.828 280.984 106.828 280.984L117.56 302.741Z" fill="url(#paint50_linear_44_4452)"/>
<path d="M136.401 296.638C136.401 296.638 128.233 318.263 126.683 321.115L129.783 327.416C129.783 327.416 140.933 306.256 139.144 302.21C137.355 298.23 136.699 295.842 136.401 296.638Z" fill="url(#paint51_linear_44_4452)"/>
<path d="M6.06348 100.826C17.2728 109.184 24.2488 116.878 31.4037 126.165C38.6182 135.451 45.0576 145.6 51.0796 156.014C57.1016 166.428 64.1969 176.776 69.6227 187.654C75.0485 198.533 79.1625 209.743 84.2306 220.82L87.5099 229.377C88.762 232.163 90.0141 234.949 91.2066 237.735L94.8437 246.093L98.4807 254.451L105.695 271.233C108.14 276.805 110.525 282.377 112.969 287.948C117.859 299.092 122.807 310.17 127.875 321.114C129.127 323.834 130.439 326.62 131.691 329.34C133.003 332.059 134.315 334.779 135.627 337.498C136.938 340.218 138.31 342.938 139.621 345.591C140.277 346.918 140.993 348.244 141.708 349.571L142.781 351.495C143.139 352.092 143.497 352.821 143.795 353.285L143.855 353.352C144.63 354.678 144.57 356.337 143.676 357.066C142.781 357.796 141.47 357.332 140.635 356.005V355.939C140.158 355.143 139.86 354.479 139.442 353.816L138.369 351.76C137.654 350.367 136.998 349.04 136.282 347.647C134.911 344.928 133.599 342.142 132.288 339.356C130.976 336.57 129.724 333.85 128.412 331.064C127.16 328.278 125.908 325.492 124.656 322.706C119.707 311.563 114.877 300.419 110.107 289.142C107.722 283.504 105.397 277.932 103.072 272.294L96.0958 255.446L92.6376 247.022L89.1198 238.597C87.9273 235.811 86.7348 233.025 85.5423 230.24L82.3822 221.683C77.4931 210.539 73.4983 199.329 68.311 188.384C63.0641 177.439 56.1476 167.091 50.2449 156.611C44.4017 146.13 38.1412 135.849 31.046 126.496C24.0103 117.21 17.0343 110.046 6.06348 100.826Z" fill="url(#paint52_linear_44_4452)"/>
</g>
<defs>
<linearGradient id="paint0_linear_44_4452" x1="129.138" y1="273.79" x2="91.7864" y2="272.486" gradientUnits="userSpaceOnUse">
<stop stop-color="#54B948"/>
<stop offset="0.3764" stop-color="#00A651"/>
<stop offset="1" stop-color="#005826"/>
</linearGradient>
<linearGradient id="paint1_linear_44_4452" x1="142.624" y1="249.155" x2="92.7487" y2="247.414" gradientUnits="userSpaceOnUse">
<stop stop-color="#54B948"/>
<stop offset="0.3764" stop-color="#00A651"/>
<stop offset="1" stop-color="#005826"/>
</linearGradient>
<linearGradient id="paint2_linear_44_4452" x1="134.087" y1="229.582" x2="93.418" y2="228.162" gradientUnits="userSpaceOnUse">
<stop stop-color="#54B948"/>
<stop offset="0.3764" stop-color="#00A651"/>
<stop offset="1" stop-color="#005826"/>
</linearGradient>
<linearGradient id="paint3_linear_44_4452" x1="129.878" y1="218.075" x2="92.8537" y2="216.783" gradientUnits="userSpaceOnUse">
<stop stop-color="#54B948"/>
<stop offset="0.3764" stop-color="#00A651"/>
<stop offset="1" stop-color="#005826"/>
</linearGradient>
<linearGradient id="paint4_linear_44_4452" x1="126.899" y1="198.822" x2="91.6008" y2="197.59" gradientUnits="userSpaceOnUse">
<stop stop-color="#54B948"/>
<stop offset="0.3764" stop-color="#00A651"/>
<stop offset="1" stop-color="#005826"/>
</linearGradient>
<linearGradient id="paint5_linear_44_4452" x1="122.735" y1="185.982" x2="90.5069" y2="184.856" gradientUnits="userSpaceOnUse">
<stop stop-color="#54B948"/>
<stop offset="0.3764" stop-color="#00A651"/>
<stop offset="1" stop-color="#005826"/>
</linearGradient>
<linearGradient id="paint6_linear_44_4452" x1="117.08" y1="171.901" x2="88.8801" y2="170.917" gradientUnits="userSpaceOnUse">
<stop stop-color="#54B948"/>
<stop offset="0.3764" stop-color="#00A651"/>
<stop offset="1" stop-color="#005826"/>
</linearGradient>
<linearGradient id="paint7_linear_44_4452" x1="113.421" y1="158.388" x2="87.2347" y2="157.474" gradientUnits="userSpaceOnUse">
<stop stop-color="#54B948"/>
<stop offset="0.3764" stop-color="#00A651"/>
<stop offset="1" stop-color="#005826"/>
</linearGradient>
<linearGradient id="paint8_linear_44_4452" x1="109.288" y1="136.414" x2="84.5399" y2="135.55" gradientUnits="userSpaceOnUse">
<stop stop-color="#54B948"/>
<stop offset="0.3764" stop-color="#00A651"/>
<stop offset="1" stop-color="#005826"/>
</linearGradient>
<linearGradient id="paint9_linear_44_4452" x1="104.888" y1="117.42" x2="81.5507" y2="116.605" gradientUnits="userSpaceOnUse">
<stop stop-color="#54B948"/>
<stop offset="0.3764" stop-color="#00A651"/>
<stop offset="1" stop-color="#005826"/>
</linearGradient>
<linearGradient id="paint10_linear_44_4452" x1="94.3578" y1="105.32" x2="79.0282" y2="104.785" gradientUnits="userSpaceOnUse">
<stop stop-color="#54B948"/>
<stop offset="0.3764" stop-color="#00A651"/>
<stop offset="1" stop-color="#005826"/>
</linearGradient>
<linearGradient id="paint11_linear_44_4452" x1="85.8223" y1="102.602" x2="75.7707" y2="102.251" gradientUnits="userSpaceOnUse">
<stop stop-color="#54B948"/>
<stop offset="0.3764" stop-color="#00A651"/>
<stop offset="1" stop-color="#005826"/>
</linearGradient>
<linearGradient id="paint12_linear_44_4452" x1="79.3" y1="81.298" x2="73.7982" y2="81.1059" gradientUnits="userSpaceOnUse">
<stop stop-color="#54B948"/>
<stop offset="0.3764" stop-color="#00A651"/>
<stop offset="1" stop-color="#005826"/>
</linearGradient>
<linearGradient id="paint13_linear_44_4452" x1="73.6416" y1="74.4159" x2="69.0055" y2="74.254" gradientUnits="userSpaceOnUse">
<stop stop-color="#54B948"/>
<stop offset="0.3764" stop-color="#00A651"/>
<stop offset="1" stop-color="#005826"/>
</linearGradient>
<linearGradient id="paint14_linear_44_4452" x1="66.1234" y1="64.0912" x2="57.2663" y2="63.7819" gradientUnits="userSpaceOnUse">
<stop stop-color="#54B948"/>
<stop offset="0.3764" stop-color="#00A651"/>
<stop offset="1" stop-color="#005826"/>
</linearGradient>
<linearGradient id="paint15_linear_44_4452" x1="56.8328" y1="48.5562" x2="46.0923" y2="48.1812" gradientUnits="userSpaceOnUse">
<stop stop-color="#54B948"/>
<stop offset="0.3764" stop-color="#00A651"/>
<stop offset="1" stop-color="#005826"/>
</linearGradient>
<linearGradient id="paint16_linear_44_4452" x1="49.8407" y1="39.4068" x2="31.6296" y2="38.7709" gradientUnits="userSpaceOnUse">
<stop stop-color="#54B948"/>
<stop offset="0.3764" stop-color="#00A651"/>
<stop offset="1" stop-color="#005826"/>
</linearGradient>
<linearGradient id="paint17_linear_44_4452" x1="26.9778" y1="60.967" x2="34.8875" y2="52.772" gradientUnits="userSpaceOnUse">
<stop stop-color="#54B948"/>
<stop offset="0.3764" stop-color="#00A651"/>
<stop offset="1" stop-color="#005826"/>
</linearGradient>
<linearGradient id="paint18_linear_44_4452" x1="19.25" y1="48.7751" x2="33.1609" y2="29.7173" gradientUnits="userSpaceOnUse">
<stop stop-color="#54B948"/>
<stop offset="0.3764" stop-color="#00A651"/>
<stop offset="1" stop-color="#005826"/>
</linearGradient>
<linearGradient id="paint19_linear_44_4452" x1="46.547" y1="35.1453" x2="15.142" y2="34.0488" gradientUnits="userSpaceOnUse">
<stop stop-color="#54B948"/>
<stop offset="0.3764" stop-color="#00A651"/>
<stop offset="1" stop-color="#005826"/>
</linearGradient>
<linearGradient id="paint20_linear_44_4452" x1="51.6945" y1="278.576" x2="88.7605" y2="273.079" gradientUnits="userSpaceOnUse">
<stop stop-color="#54B948"/>
<stop offset="0.3764" stop-color="#00A651"/>
<stop offset="1" stop-color="#005826"/>
</linearGradient>
<linearGradient id="paint21_linear_44_4452" x1="36.2901" y1="255.703" x2="85.7856" y2="248.362" gradientUnits="userSpaceOnUse">
<stop stop-color="#54B948"/>
<stop offset="0.3764" stop-color="#00A651"/>
<stop offset="1" stop-color="#005826"/>
</linearGradient>
<linearGradient id="paint22_linear_44_4452" x1="40.6681" y1="241.186" x2="80.4368" y2="231.32" gradientUnits="userSpaceOnUse">
<stop stop-color="#54B948"/>
<stop offset="0.3764" stop-color="#00A651"/>
<stop offset="1" stop-color="#005826"/>
</linearGradient>
<linearGradient id="paint23_linear_44_4452" x1="45.1793" y1="231.857" x2="81.0086" y2="221.083" gradientUnits="userSpaceOnUse">
<stop stop-color="#54B948"/>
<stop offset="0.3764" stop-color="#00A651"/>
<stop offset="1" stop-color="#005826"/>
</linearGradient>
<linearGradient id="paint24_linear_44_4452" x1="43.3105" y1="209.667" x2="77.6957" y2="200.44" gradientUnits="userSpaceOnUse">
<stop stop-color="#54B948"/>
<stop offset="0.3764" stop-color="#00A651"/>
<stop offset="1" stop-color="#005826"/>
</linearGradient>
<linearGradient id="paint25_linear_44_4452" x1="46.011" y1="197.012" x2="77.3671" y2="188.407" gradientUnits="userSpaceOnUse">
<stop stop-color="#54B948"/>
<stop offset="0.3764" stop-color="#00A651"/>
<stop offset="1" stop-color="#005826"/>
</linearGradient>
<linearGradient id="paint26_linear_44_4452" x1="46.9879" y1="183.072" x2="74.1021" y2="174.151" gradientUnits="userSpaceOnUse">
<stop stop-color="#54B948"/>
<stop offset="0.3764" stop-color="#00A651"/>
<stop offset="1" stop-color="#005826"/>
</linearGradient>
<linearGradient id="paint27_linear_44_4452" x1="45.552" y1="171.739" x2="69.9494" y2="160.857" gradientUnits="userSpaceOnUse">
<stop stop-color="#54B948"/>
<stop offset="0.3764" stop-color="#00A651"/>
<stop offset="1" stop-color="#005826"/>
</linearGradient>
<linearGradient id="paint28_linear_44_4452" x1="41.0805" y1="155.585" x2="63.4819" y2="143.59" gradientUnits="userSpaceOnUse">
<stop stop-color="#54B948"/>
<stop offset="0.3764" stop-color="#00A651"/>
<stop offset="1" stop-color="#005826"/>
</linearGradient>
<linearGradient id="paint29_linear_44_4452" x1="36.8615" y1="138.473" x2="57.8483" y2="126.833" gradientUnits="userSpaceOnUse">
<stop stop-color="#54B948"/>
<stop offset="0.3764" stop-color="#00A651"/>
<stop offset="1" stop-color="#005826"/>
</linearGradient>
<linearGradient id="paint30_linear_44_4452" x1="38.7207" y1="122.931" x2="52.0513" y2="114.328" gradientUnits="userSpaceOnUse">
<stop stop-color="#54B948"/>
<stop offset="0.3764" stop-color="#00A651"/>
<stop offset="1" stop-color="#005826"/>
</linearGradient>
<linearGradient id="paint31_linear_44_4452" x1="42.4111" y1="114.393" x2="51.0561" y2="108.568" gradientUnits="userSpaceOnUse">
<stop stop-color="#54B948"/>
<stop offset="0.3764" stop-color="#00A651"/>
<stop offset="1" stop-color="#005826"/>
</linearGradient>
<linearGradient id="paint32_linear_44_4452" x1="38.4851" y1="96.6256" x2="43.1359" y2="93.2898" gradientUnits="userSpaceOnUse">
<stop stop-color="#54B948"/>
<stop offset="0.3764" stop-color="#00A651"/>
<stop offset="1" stop-color="#005826"/>
</linearGradient>
<linearGradient id="paint33_linear_44_4452" x1="30.789" y1="71.5623" x2="34.6427" y2="68.6408" gradientUnits="userSpaceOnUse">
<stop stop-color="#54B948"/>
<stop offset="0.3764" stop-color="#00A651"/>
<stop offset="1" stop-color="#005826"/>
</linearGradient>
<linearGradient id="paint34_linear_44_4452" x1="35.7933" y1="81.3007" x2="64.7051" y2="111.299" gradientUnits="userSpaceOnUse">
<stop stop-color="#54B948"/>
<stop offset="0.3764" stop-color="#00A651"/>
<stop offset="1" stop-color="#005826"/>
</linearGradient>
<linearGradient id="paint35_linear_44_4452" x1="68.6103" y1="158.668" x2="67.965" y2="341.635" gradientUnits="userSpaceOnUse">
<stop stop-color="#54B948"/>
<stop offset="0.3764" stop-color="#00A651"/>
<stop offset="1" stop-color="#005826"/>
</linearGradient>
<linearGradient id="paint36_linear_44_4452" x1="74.8686" y1="290.015" x2="137.633" y2="329.972" gradientUnits="userSpaceOnUse">
<stop stop-color="#54B948"/>
<stop offset="0.3764" stop-color="#00A651"/>
<stop offset="1" stop-color="#005826"/>
</linearGradient>
<linearGradient id="paint37_linear_44_4452" x1="51.9999" y1="264.195" x2="133.989" y2="316.391" gradientUnits="userSpaceOnUse">
<stop stop-color="#54B948"/>
<stop offset="0.3764" stop-color="#00A651"/>
<stop offset="1" stop-color="#005826"/>
</linearGradient>
<linearGradient id="paint38_linear_44_4452" x1="35.0474" y1="234.798" x2="130.869" y2="295.8" gradientUnits="userSpaceOnUse">
<stop stop-color="#54B948"/>
<stop offset="0.3764" stop-color="#00A651"/>
<stop offset="1" stop-color="#005826"/>
</linearGradient>
<linearGradient id="paint39_linear_44_4452" x1="30.8021" y1="211.617" x2="119.411" y2="268.027" gradientUnits="userSpaceOnUse">
<stop stop-color="#54B948"/>
<stop offset="0.3764" stop-color="#00A651"/>
<stop offset="1" stop-color="#005826"/>
</linearGradient>
<linearGradient id="paint40_linear_44_4452" x1="25.9864" y1="191.73" x2="105.045" y2="242.06" gradientUnits="userSpaceOnUse">
<stop stop-color="#54B948"/>
<stop offset="0.3764" stop-color="#00A651"/>
<stop offset="1" stop-color="#005826"/>
</linearGradient>
<linearGradient id="paint41_linear_44_4452" x1="10.6686" y1="165.253" x2="91.4494" y2="216.679" gradientUnits="userSpaceOnUse">
<stop stop-color="#54B948"/>
<stop offset="0.3764" stop-color="#00A651"/>
<stop offset="1" stop-color="#005826"/>
</linearGradient>
<linearGradient id="paint42_linear_44_4452" x1="7.34924" y1="144.598" x2="77.7049" y2="189.387" gradientUnits="userSpaceOnUse">
<stop stop-color="#54B948"/>
<stop offset="0.3764" stop-color="#00A651"/>
<stop offset="1" stop-color="#005826"/>
</linearGradient>
<linearGradient id="paint43_linear_44_4452" x1="0.063197" y1="118.114" x2="62.6491" y2="157.869" gradientUnits="userSpaceOnUse">
<stop stop-color="#54B948"/>
<stop offset="0.3764" stop-color="#00A651"/>
<stop offset="1" stop-color="#005826"/>
</linearGradient>
<linearGradient id="paint44_linear_44_4452" x1="37.5974" y1="86.4483" x2="33.28" y2="160.806" gradientUnits="userSpaceOnUse">
<stop stop-color="#54B948"/>
<stop offset="0.3764" stop-color="#00A651"/>
<stop offset="1" stop-color="#005826"/>
</linearGradient>
<linearGradient id="paint45_linear_44_4452" x1="71.322" y1="102.413" x2="66.2304" y2="190.104" gradientUnits="userSpaceOnUse">
<stop stop-color="#54B948"/>
<stop offset="0.3764" stop-color="#00A651"/>
<stop offset="1" stop-color="#005826"/>
</linearGradient>
<linearGradient id="paint46_linear_44_4452" x1="90.0061" y1="120.828" x2="83.987" y2="224.493" gradientUnits="userSpaceOnUse">
<stop stop-color="#54B948"/>
<stop offset="0.3764" stop-color="#00A651"/>
<stop offset="1" stop-color="#005826"/>
</linearGradient>
<linearGradient id="paint47_linear_44_4452" x1="101.058" y1="146.606" x2="95.5928" y2="240.726" gradientUnits="userSpaceOnUse">
<stop stop-color="#54B948"/>
<stop offset="0.3764" stop-color="#00A651"/>
<stop offset="1" stop-color="#005826"/>
</linearGradient>
<linearGradient id="paint48_linear_44_4452" x1="142.477" y1="299.274" x2="114.588" y2="296.211" gradientUnits="userSpaceOnUse">
<stop stop-color="#54B948"/>
<stop offset="0.3764" stop-color="#00A651"/>
<stop offset="1" stop-color="#005826"/>
</linearGradient>
<linearGradient id="paint49_linear_44_4452" x1="98.7822" y1="196.252" x2="122.229" y2="270.706" gradientUnits="userSpaceOnUse">
<stop stop-color="#54B948"/>
<stop offset="0.3764" stop-color="#00A651"/>
<stop offset="1" stop-color="#005826"/>
</linearGradient>
<linearGradient id="paint50_linear_44_4452" x1="110.265" y1="229.185" x2="130.485" y2="293.394" gradientUnits="userSpaceOnUse">
<stop stop-color="#54B948"/>
<stop offset="0.3764" stop-color="#00A651"/>
<stop offset="1" stop-color="#005826"/>
</linearGradient>
<linearGradient id="paint51_linear_44_4452" x1="124.465" y1="317.384" x2="148.223" y2="305.58" gradientUnits="userSpaceOnUse">
<stop stop-color="#54B948"/>
<stop offset="0.3764" stop-color="#00A651"/>
<stop offset="1" stop-color="#005826"/>
</linearGradient>
<linearGradient id="paint52_linear_44_4452" x1="-27.7245" y1="148.983" x2="188.526" y2="286.652" gradientUnits="userSpaceOnUse">
<stop stop-color="#54B948"/>
<stop offset="0.3764" stop-color="#00A651"/>
<stop offset="1" stop-color="#005826"/>
</linearGradient>
<clipPath id="clip0_44_4452">
<rect width="150" height="358" fill="white" transform="translate(0.669922)"/>
</clipPath>
</defs>
</svg>
