<svg width="290" height="394" viewBox="0 0 290 394" fill="none" xmlns="http://www.w3.org/2000/svg">
<g clip-path="url(#clip0_44_4453)">
<path d="M141.961 290.531C141.961 290.531 164.852 252.763 194.758 224.685C194.702 224.66 167.127 278.846 141.961 290.531Z" fill="url(#paint0_linear_44_4453)"/>
<path d="M141.992 290.533C141.992 290.533 140.303 265.553 194.758 224.7C194.702 224.675 157.288 270.808 141.992 290.533Z" fill="#39B54A"/>
<path d="M141.253 299.919C141.253 299.919 124.791 275.424 98.9095 255.381C98.8548 255.357 116.994 289.725 141.253 299.919Z" fill="url(#paint1_linear_44_4453)"/>
<path d="M141.253 299.919C141.253 299.919 148.136 286.234 98.9095 255.381C98.8547 255.357 129.034 286.66 141.253 299.919Z" fill="#39B54A"/>
<path d="M137.954 276.128C137.954 276.128 121.705 236.182 96.7348 203.316C96.7556 203.256 114.792 259.24 137.954 276.128Z" fill="url(#paint2_linear_44_4453)"/>
<path d="M137.954 276.128C137.954 276.128 144.053 253.941 96.7348 203.316C96.7556 203.256 126.098 254.432 137.954 276.128Z" fill="#39B54A"/>
<path d="M138.622 242.244C138.622 242.244 124.107 199.372 102.088 164.079C102.088 164.079 118.337 224.094 138.622 242.244Z" fill="url(#paint3_linear_44_4453)"/>
<path d="M138.622 242.244C138.622 242.244 143.741 218.469 102.088 164.079C102.088 164.079 128.105 218.988 138.622 242.244Z" fill="#39B54A"/>
<path d="M141.695 218.89C141.695 218.89 127.416 171.604 105.769 132.59C105.769 132.59 121.849 198.86 141.695 218.89Z" fill="url(#paint4_linear_44_4453)"/>
<path d="M141.695 218.89C141.695 218.89 146.514 192.678 105.769 132.59C105.769 132.59 131.345 193.277 141.695 218.89Z" fill="#39B54A"/>
<path d="M143.006 200.105C143.006 200.105 135.791 151.051 120.031 108.806C120.031 108.806 126.236 176.873 143.006 200.105Z" fill="url(#paint5_linear_44_4453)"/>
<path d="M143.006 200.105C143.006 200.105 151.74 175.16 120.031 108.806C120.031 108.806 136.495 173.054 143.006 200.105Z" fill="#39B54A"/>
<path d="M149.114 163.323C149.114 163.323 139.097 112.293 118.674 68.1158C118.695 68.056 127.87 138.703 149.114 163.323Z" fill="url(#paint6_linear_44_4453)"/>
<path d="M149.114 163.323C149.114 163.323 159.314 137.833 118.674 68.1158C118.695 68.056 140.485 135.064 149.114 163.323Z" fill="#39B54A"/>
<path d="M152.317 147.972C152.317 147.972 157.173 96.3081 150.057 47.6138C150.057 47.6138 138.72 117.514 152.317 147.972Z" fill="url(#paint7_linear_44_4453)"/>
<path d="M152.307 147.96C152.307 147.96 169.524 127.316 150.048 47.6138C150.048 47.6138 152 118.329 152.307 147.96Z" fill="#39B54A"/>
<path d="M163.297 116.703C163.297 116.703 171.804 68.7229 171.072 24.8352C171.037 24.7499 155.943 90.2756 163.297 116.703Z" fill="url(#paint8_linear_44_4453)"/>
<path d="M163.289 116.693C163.289 116.693 178.229 95.7097 171.061 24.8351C171.026 24.7498 165.829 89.4657 163.289 116.693Z" fill="#39B54A"/>
<path d="M173.759 87.6101C173.759 87.6101 195.971 45.2204 208.017 3.58148C207.96 3.55647 174.287 60.2408 173.759 87.6101Z" fill="url(#paint9_linear_44_4453)"/>
<path d="M173.645 87.5689C173.645 87.5689 194.239 72.8377 207.899 3.54158C207.842 3.51658 183.996 62.7923 173.645 87.5689Z" fill="#39B54A"/>
<path d="M140.055 268.572C140.055 268.572 160.914 231.516 187.81 203.642C187.81 203.642 162.406 256.706 140.055 268.572Z" fill="url(#paint10_linear_44_4453)"/>
<path d="M140.086 268.573C140.086 268.573 139.103 244.521 187.809 203.657C187.809 203.657 153.973 249.233 140.086 268.573Z" fill="#39B54A"/>
<path d="M141.421 245.235C141.421 245.235 165.444 210.749 194.65 185.967C194.65 185.967 164.766 235.833 141.421 245.235Z" fill="url(#paint11_linear_44_4453)"/>
<path d="M141.434 245.236C141.434 245.236 142.562 221.261 194.651 185.974C194.651 185.974 156.967 227.527 141.434 245.236Z" fill="#39B54A"/>
<path d="M141.101 227.632C141.101 227.632 162.929 193.781 188.951 168.982C188.951 168.982 161.515 217.649 141.101 227.632Z" fill="url(#paint12_linear_44_4453)"/>
<path d="M141.112 227.633C141.112 227.633 142.866 204.824 188.951 168.987C188.951 168.987 155.059 210.087 141.112 227.633Z" fill="#39B54A"/>
<path d="M144.641 202.778C144.641 202.778 171.747 169.323 201.825 145.96C201.846 145.9 166.897 194.52 144.641 202.778Z" fill="url(#paint13_linear_44_4453)"/>
<path d="M144.643 202.779C144.643 202.779 149.734 178.732 201.825 145.961C201.846 145.901 161.407 185.724 144.643 202.779Z" fill="#39B54A"/>
<path d="M146.624 183.256C146.624 183.256 173.73 149.8 203.808 126.438C203.829 126.378 168.88 174.997 146.624 183.256Z" fill="url(#paint14_linear_44_4453)"/>
<path d="M146.626 183.256C146.626 183.256 151.717 159.21 203.808 126.439C203.829 126.379 163.39 166.202 146.626 183.256Z" fill="#39B54A"/>
<path d="M152.413 155.261C152.413 155.261 179.519 121.805 209.596 98.4432C209.596 98.4432 174.669 147.003 152.413 155.261Z" fill="url(#paint15_linear_44_4453)"/>
<path d="M152.415 155.261C152.415 155.261 157.506 131.215 209.598 98.4439C209.598 98.4439 169.18 138.207 152.415 155.261Z" fill="#39B54A"/>
<path d="M161.955 120.171C161.955 120.171 187.899 90.1241 217.224 69.7255C217.224 69.7255 184.044 113.596 161.955 120.171Z" fill="url(#paint16_linear_44_4453)"/>
<path d="M161.956 120.171C161.956 120.171 166.051 97.8499 217.223 69.7268C217.223 69.7268 178.155 105.04 161.956 120.171Z" fill="#39B54A"/>
<path d="M172.176 91.4658C172.176 91.4658 195.642 64.2601 222.163 45.7923C222.163 45.7923 192.169 85.543 172.176 91.4658Z" fill="url(#paint17_linear_44_4453)"/>
<path d="M172.178 91.4659C172.178 91.4659 175.913 71.2735 222.163 45.7931C222.163 45.7931 186.835 77.7921 172.178 91.4659Z" fill="#39B54A"/>
<path d="M175.232 83.1144C175.232 83.1144 155.189 118.125 146.438 166.694C137.687 215.262 131.45 294.122 145.752 319.979C145.752 319.979 151.102 320.206 148.82 314.79C146.503 309.289 140.543 284.157 141.735 255.45C142.948 226.683 142.693 197.679 150.891 163.798C159.09 129.917 175.232 83.1144 175.232 83.1144Z" fill="url(#paint18_linear_44_4453)"/>
<path d="M131.622 259.156L82.0141 354.849L79.73 353.396C79.73 353.396 125.151 270.244 129.421 261.031C133.661 251.876 131.622 259.156 131.622 259.156Z" fill="url(#paint19_linear_44_4453)"/>
<path d="M131.553 259.126L81.9449 354.819L84.2289 356.271C84.2289 356.271 126.17 270.906 131.201 262.177C136.202 253.506 131.553 259.126 131.553 259.126Z" fill="url(#paint20_linear_44_4453)"/>
<path d="M131.311 258.802C131.311 258.802 177.551 151.932 221.797 95.6219C221.851 95.6565 168.349 217.387 131.311 258.802Z" fill="url(#paint21_linear_44_4453)"/>
<path d="M131.326 258.831C131.326 258.831 171.228 161.303 221.862 95.6286C221.916 95.6632 158.652 210.123 131.326 258.831Z" fill="#39B54A"/>
<path d="M233.185 106.958C233.185 106.958 183.584 217.988 131.251 258.655C131.251 258.655 139.815 240.132 162.439 209.865C185.064 179.599 211.077 145.421 233.185 106.958Z" fill="url(#paint22_linear_44_4453)"/>
<path d="M233.2 106.958C233.2 106.958 177.856 220.174 131.251 258.662C131.251 258.662 143.163 243.832 165.791 213.564C188.418 183.297 211.089 145.423 233.2 106.958Z" fill="#39B54A"/>
<path d="M243.059 135.32C243.059 135.32 182.649 226.431 131.155 258.231C131.155 258.231 153.927 227.242 173.035 208.372C192.113 189.561 221.494 165.216 243.059 135.32Z" fill="url(#paint23_linear_44_4453)"/>
<path d="M243.059 135.32C243.059 135.32 182.649 226.431 131.155 258.231C131.155 258.231 156.727 236.968 176.287 214.578C194.218 194.098 221.494 165.216 243.059 135.32Z" fill="#39B54A"/>
<path d="M253.975 153.035C253.975 153.035 178.195 248.426 131.38 258.465C131.38 258.465 144.136 237.83 178.158 215.852C212.181 193.875 221.237 187.102 253.975 153.035Z" fill="url(#paint24_linear_44_4453)"/>
<path d="M253.975 153.035C253.975 153.035 178.195 248.426 131.38 258.465C131.38 258.465 142.183 248.851 173.381 227.78C207.994 204.238 221.237 187.102 253.975 153.035Z" fill="#39B54A"/>
<path d="M260.874 178.458C260.874 178.458 202.163 251.725 131.954 258.331C131.954 258.331 150.983 242.637 168.251 237.448C185.489 232.316 225.271 214.217 260.874 178.458Z" fill="url(#paint25_linear_44_4453)"/>
<path d="M260.541 178.557C260.541 178.557 201.83 251.824 131.621 258.43C131.621 258.43 153.64 248.149 170.878 243.018C188.116 237.887 224.908 214.374 260.541 178.557Z" fill="#39B54A"/>
<path d="M266.225 213.331C266.225 213.331 221.593 254.268 131.977 258.347C131.977 258.347 134.189 252.649 173.64 242.439C213.091 232.228 222.141 235.345 266.225 213.331Z" fill="url(#paint26_linear_44_4453)"/>
<path d="M266.224 213.333C266.224 213.333 233.275 254.05 131.621 258.352C131.621 258.352 135.479 257.197 174.929 246.986C214.326 236.741 223.174 237.483 266.224 213.333Z" fill="#39B54A"/>
<path d="M131.101 258.541C131.101 258.541 143.479 337.772 192.922 389.393C192.922 389.393 167.082 360.314 157.02 321.561C146.958 282.809 136.862 264.415 131.101 258.541Z" fill="url(#paint27_linear_44_4453)"/>
<path d="M130.898 258.254C130.898 258.254 143.276 337.485 192.719 389.106C192.719 389.106 172.033 369.293 152.305 317.518C140.913 287.713 136.29 274.235 130.898 258.254Z" fill="#39B54A"/>
<path d="M132.055 257.391C132.055 257.391 202.293 267.688 272.815 254.938C272.815 254.938 214.546 253.433 176.73 251.756C152.619 250.652 132.055 257.391 132.055 257.391Z" fill="url(#paint28_linear_44_4453)"/>
<path d="M131.722 257.487C131.722 257.487 195.596 267.234 272.815 254.939C272.815 254.939 226.643 255.905 176.646 256.335C157.53 256.521 131.722 257.487 131.722 257.487Z" fill="#39B54A"/>
<path d="M282.132 274.356C282.132 274.356 210.25 294.924 132.048 257.558C132.048 257.558 163.765 255.725 201.873 267.873C239.957 279.93 282.132 274.356 282.132 274.356Z" fill="url(#paint29_linear_44_4453)"/>
<path d="M282.132 274.358C282.132 274.358 209.843 294.894 131.671 257.47C131.671 257.47 165.218 265.293 197.633 272.155C236.506 280.328 282.132 274.358 282.132 274.358Z" fill="#39B54A"/>
<path d="M267.189 307.875C267.189 307.875 204.083 312.384 131.66 257.77C131.66 257.77 160.847 262.743 183.539 276.817C206.202 290.948 229.428 303.983 267.189 307.875Z" fill="url(#paint30_linear_44_4453)"/>
<path d="M267.189 307.875C267.189 307.875 204.083 312.384 131.66 257.77C131.66 257.77 158.226 267.582 180.889 281.713C203.552 295.844 229.428 303.983 267.189 307.875Z" fill="#39B54A"/>
<path d="M250.394 328.786C250.394 328.786 167.689 312.267 131.893 258.376C131.893 258.376 154.999 268.109 183.408 292.434C211.816 316.759 250.394 328.786 250.394 328.786Z" fill="url(#paint31_linear_44_4453)"/>
<path d="M250.077 328.582C250.077 328.582 167.372 312.064 131.576 258.173C131.576 258.173 144.365 268.85 171.979 290.75C208.911 320.098 250.077 328.582 250.077 328.582Z" fill="#39B54A"/>
<path d="M218.771 365.984C218.771 365.984 158.291 319.101 131.387 258.541C131.387 258.541 149.552 271.781 170.146 304.354C190.686 336.892 209.204 357.283 218.771 365.984Z" fill="url(#paint32_linear_44_4453)"/>
<path d="M218.569 365.697C218.569 365.697 158.089 318.814 131.185 258.254C131.185 258.254 146.354 278.718 166.051 306.713C188.003 338.008 208.979 356.904 218.569 365.697Z" fill="#39B54A"/>
<path d="M202.348 86.4805C202.348 86.4805 138.57 188.111 131.526 258.868C131.526 258.868 143.771 242.844 156.803 206.21C169.835 169.576 182.58 126.529 202.348 86.4805Z" fill="url(#paint33_linear_44_4453)"/>
<path d="M202.367 86.4686C202.367 86.4686 139.5 194.792 131.509 258.881C131.509 258.881 138.399 240.681 151.437 204.042C164.475 167.403 182.59 126.522 202.367 86.4686Z" fill="#39B54A"/>
<path d="M173.012 89.5933C173.012 89.5933 131.569 193.111 132.039 258.831C132.039 258.831 145.071 221.439 150.366 193.637C155.66 165.835 160.302 125.248 173.012 89.5933Z" fill="url(#paint34_linear_44_4453)"/>
<path d="M173.012 89.5933C173.012 89.5933 131.569 193.111 132.039 258.831C132.039 258.831 136.099 223.549 143.978 193.513C151.197 166.01 160.302 125.248 173.012 89.5933Z" fill="#39B54A"/>
<path d="M153.802 87.5337C153.802 87.5337 116.665 208.217 131.893 258.78C131.893 258.78 141.727 236.188 142.084 192.285C142.441 148.383 143.369 136.158 153.802 87.5337Z" fill="url(#paint35_linear_44_4453)"/>
<path d="M153.802 87.5337C153.802 87.5337 116.665 208.217 131.893 258.78C131.893 258.78 134.024 243.521 135.186 202.777C136.486 157.459 143.369 136.158 153.802 87.5337Z" fill="#39B54A"/>
<path d="M131.311 93.8657C131.311 93.8657 103.075 187.13 132.413 258.748C132.413 258.748 135.33 232.537 130.838 213.123C126.345 193.709 120.947 146.092 131.311 93.8657Z" fill="url(#paint36_linear_44_4453)"/>
<path d="M131.347 94.2021C131.347 94.2021 103.112 187.467 132.45 259.084C132.45 259.084 129.656 232.616 125.187 213.295C120.748 193.915 121.007 146.521 131.347 94.2021Z" fill="#39B54A"/>
<path d="M95.8088 99.084C95.8088 99.084 91.5481 169.254 132.342 258.681C132.342 258.681 135.645 253.764 124.238 210.272C112.884 166.814 100.319 152.842 95.8088 99.084Z" fill="url(#paint37_linear_44_4453)"/>
<path d="M95.8066 99.084C95.8066 99.084 85.9465 157.753 132.487 259.085C132.487 259.085 131.519 254.746 120.112 211.254C108.705 167.762 98.1496 152.917 95.8066 99.084Z" fill="#39B54A"/>
<path d="M131.767 259.16C131.767 259.16 64.1386 285.979 -0.284963 263.07C-0.284963 263.07 34.9932 273.992 70.0743 264.872C105.185 255.695 124.401 256.421 131.767 259.16Z" fill="url(#paint38_linear_44_4453)"/>
<path d="M132.144 259.246C132.144 259.246 64.5156 286.065 0.0919901 263.156C0.0919901 263.156 25.6142 273.658 75.5864 267.495C104.263 263.974 117.049 261.793 132.144 259.246Z" fill="#39B54A"/>
<path d="M132.843 258.18C132.843 258.18 90.355 194.524 65.6306 119.388C65.6306 119.388 95.4034 175.7 115.323 211.769C128.009 234.764 132.843 258.18 132.843 258.18Z" fill="url(#paint39_linear_44_4453)"/>
<path d="M133.018 258.524C133.018 258.524 94.0473 200.839 65.7117 119.363C65.7117 119.363 87.6599 164.999 111.866 214.096C121.072 232.842 133.018 258.524 133.018 258.524Z" fill="#39B54A"/>
<path d="M45.8965 119.887C45.8965 119.887 65.2343 200.247 132.694 258.204C132.694 258.204 118.52 226.335 90.4203 195.05C62.3734 163.799 45.8965 119.887 45.8965 119.887Z" fill="url(#paint40_linear_44_4453)"/>
<path d="M45.8943 119.887C45.8943 119.887 65.4382 200.534 132.869 258.55C132.869 258.55 110.34 229.621 89.0376 201.328C63.6382 167.39 45.8943 119.887 45.8943 119.887Z" fill="#39B54A"/>
<path d="M26.988 150.916C26.988 150.916 54.4791 214.692 132.501 258.557C132.501 258.557 114.274 232.461 92.1922 217.321C70.1399 202.123 48.6498 185.828 26.988 150.916Z" fill="url(#paint41_linear_44_4453)"/>
<path d="M26.988 150.916C26.988 150.916 54.4791 214.692 132.501 258.557C132.501 258.557 111.782 237.46 89.7301 222.262C67.6778 207.064 48.6498 185.828 26.988 150.916Z" fill="#39B54A"/>
<path d="M18.8635 177.545C18.8635 177.545 72.3561 250.108 131.895 258.537C131.895 258.537 112.972 240.771 80.077 225.047C47.1583 209.231 18.8635 177.545 18.8635 177.545Z" fill="url(#paint42_linear_44_4453)"/>
<path d="M19.2104 177.69C19.2104 177.69 72.703 250.253 132.242 258.682C132.242 258.682 117.68 251.458 87.0249 235.337C45.9957 213.69 19.2104 177.69 19.2104 177.69Z" fill="#39B54A"/>
<path d="M5.38317 226.468C5.38317 226.468 71.4737 262.504 131.768 258.97C131.768 258.97 112.517 247.723 77.187 243.652C41.7748 239.605 16.8673 231.559 5.38317 226.468Z" fill="url(#paint43_linear_44_4453)"/>
<path d="M5.70763 226.52C5.70763 226.52 71.7982 262.556 132.092 259.022C132.092 259.022 108.763 254.222 77.3512 248.83C42.2154 242.731 17.2214 231.553 5.70763 226.52Z" fill="#39B54A"/>
</g>
<defs>
<linearGradient id="paint0_linear_44_4453" x1="150.221" y1="252.296" x2="186.992" y2="260.271" gradientUnits="userSpaceOnUse">
<stop stop-color="#54B948"/>
<stop offset="0.3764" stop-color="#00A651"/>
<stop offset="1" stop-color="#005826"/>
</linearGradient>
<linearGradient id="paint1_linear_44_4453" x1="140.316" y1="277.414" x2="99.8983" y2="279.104" gradientUnits="userSpaceOnUse">
<stop stop-color="#54B948"/>
<stop offset="0.3764" stop-color="#00A651"/>
<stop offset="1" stop-color="#005826"/>
</linearGradient>
<linearGradient id="paint2_linear_44_4453" x1="136.45" y1="239.441" x2="98.3911" y2="241.051" gradientUnits="userSpaceOnUse">
<stop stop-color="#54B948"/>
<stop offset="0.3764" stop-color="#00A651"/>
<stop offset="1" stop-color="#005826"/>
</linearGradient>
<linearGradient id="paint3_linear_44_4453" x1="136.995" y1="203.007" x2="103.805" y2="204.413" gradientUnits="userSpaceOnUse">
<stop stop-color="#54B948"/>
<stop offset="0.3764" stop-color="#00A651"/>
<stop offset="1" stop-color="#005826"/>
</linearGradient>
<linearGradient id="paint4_linear_44_4453" x1="139.806" y1="175.558" x2="107.582" y2="176.925" gradientUnits="userSpaceOnUse">
<stop stop-color="#54B948"/>
<stop offset="0.3764" stop-color="#00A651"/>
<stop offset="1" stop-color="#005826"/>
</linearGradient>
<linearGradient id="paint5_linear_44_4453" x1="147.647" y1="157.083" x2="115.238" y2="153.608" gradientUnits="userSpaceOnUse">
<stop stop-color="#54B948"/>
<stop offset="0.3764" stop-color="#00A651"/>
<stop offset="1" stop-color="#005826"/>
</linearGradient>
<linearGradient id="paint6_linear_44_4453" x1="153.919" y1="119" x2="113.737" y2="114.698" gradientUnits="userSpaceOnUse">
<stop stop-color="#54B948"/>
<stop offset="0.3764" stop-color="#00A651"/>
<stop offset="1" stop-color="#005826"/>
</linearGradient>
<linearGradient id="paint7_linear_44_4453" x1="169.605" y1="107.734" x2="131.284" y2="91.2691" gradientUnits="userSpaceOnUse">
<stop stop-color="#54B948"/>
<stop offset="0.3764" stop-color="#00A651"/>
<stop offset="1" stop-color="#005826"/>
</linearGradient>
<linearGradient id="paint8_linear_44_4453" x1="180.096" y1="77.673" x2="153.216" y2="66.0805" gradientUnits="userSpaceOnUse">
<stop stop-color="#54B948"/>
<stop offset="0.3764" stop-color="#00A651"/>
<stop offset="1" stop-color="#005826"/>
</linearGradient>
<linearGradient id="paint9_linear_44_4453" x1="201.371" y1="56.5692" x2="178.765" y2="36.4721" gradientUnits="userSpaceOnUse">
<stop stop-color="#54B948"/>
<stop offset="0.3764" stop-color="#00A651"/>
<stop offset="1" stop-color="#005826"/>
</linearGradient>
<linearGradient id="paint10_linear_44_4453" x1="148.072" y1="231.538" x2="180.202" y2="238.52" gradientUnits="userSpaceOnUse">
<stop stop-color="#54B948"/>
<stop offset="0.3764" stop-color="#00A651"/>
<stop offset="1" stop-color="#005826"/>
</linearGradient>
<linearGradient id="paint11_linear_44_4453" x1="152.731" y1="209.384" x2="184.207" y2="219.283" gradientUnits="userSpaceOnUse">
<stop stop-color="#54B948"/>
<stop offset="0.3764" stop-color="#00A651"/>
<stop offset="1" stop-color="#005826"/>
</linearGradient>
<linearGradient id="paint12_linear_44_4453" x1="151.979" y1="193.05" x2="178.702" y2="201.466" gradientUnits="userSpaceOnUse">
<stop stop-color="#54B948"/>
<stop offset="0.3764" stop-color="#00A651"/>
<stop offset="1" stop-color="#005826"/>
</linearGradient>
<linearGradient id="paint13_linear_44_4453" x1="160.74" y1="167.27" x2="186.877" y2="179.084" gradientUnits="userSpaceOnUse">
<stop stop-color="#54B948"/>
<stop offset="0.3764" stop-color="#00A651"/>
<stop offset="1" stop-color="#005826"/>
</linearGradient>
<linearGradient id="paint14_linear_44_4453" x1="162.697" y1="147.727" x2="188.833" y2="159.541" gradientUnits="userSpaceOnUse">
<stop stop-color="#54B948"/>
<stop offset="0.3764" stop-color="#00A651"/>
<stop offset="1" stop-color="#005826"/>
</linearGradient>
<linearGradient id="paint15_linear_44_4453" x1="168.505" y1="119.762" x2="194.641" y2="131.576" gradientUnits="userSpaceOnUse">
<stop stop-color="#54B948"/>
<stop offset="0.3764" stop-color="#00A651"/>
<stop offset="1" stop-color="#005826"/>
</linearGradient>
<linearGradient id="paint16_linear_44_4453" x1="176.673" y1="87.6135" x2="203.631" y2="99.7896" gradientUnits="userSpaceOnUse">
<stop stop-color="#54B948"/>
<stop offset="0.3764" stop-color="#00A651"/>
<stop offset="1" stop-color="#005826"/>
</linearGradient>
<linearGradient id="paint17_linear_44_4453" x1="185.475" y1="62.017" x2="209.856" y2="73.0295" gradientUnits="userSpaceOnUse">
<stop stop-color="#54B948"/>
<stop offset="0.3764" stop-color="#00A651"/>
<stop offset="1" stop-color="#005826"/>
</linearGradient>
<linearGradient id="paint18_linear_44_4453" x1="173.264" y1="53.1581" x2="121.915" y2="323.392" gradientUnits="userSpaceOnUse">
<stop stop-color="#54B948"/>
<stop offset="0.3764" stop-color="#00A651"/>
<stop offset="1" stop-color="#005826"/>
</linearGradient>
<linearGradient id="paint19_linear_44_4453" x1="105.136" y1="304.429" x2="107.515" y2="305.662" gradientUnits="userSpaceOnUse">
<stop stop-color="#54B948"/>
<stop offset="0.3764" stop-color="#00A651"/>
<stop offset="1" stop-color="#005826"/>
</linearGradient>
<linearGradient id="paint20_linear_44_4453" x1="109.611" y1="307.288" x2="107.232" y2="306.055" gradientUnits="userSpaceOnUse">
<stop stop-color="#54B948"/>
<stop offset="0.3764" stop-color="#00A651"/>
<stop offset="1" stop-color="#005826"/>
</linearGradient>
<linearGradient id="paint21_linear_44_4453" x1="134.734" y1="174.144" x2="218.486" y2="177.541" gradientUnits="userSpaceOnUse">
<stop stop-color="#54B948"/>
<stop offset="0.3764" stop-color="#00A651"/>
<stop offset="1" stop-color="#005826"/>
</linearGradient>
<linearGradient id="paint22_linear_44_4453" x1="189.552" y1="189.024" x2="180.652" y2="182.855" gradientUnits="userSpaceOnUse">
<stop stop-color="#54B948"/>
<stop offset="0.3764" stop-color="#00A651"/>
<stop offset="1" stop-color="#005826"/>
</linearGradient>
<linearGradient id="paint23_linear_44_4453" x1="196.234" y1="211.826" x2="175.952" y2="183.643" gradientUnits="userSpaceOnUse">
<stop stop-color="#54B948"/>
<stop offset="0.3764" stop-color="#00A651"/>
<stop offset="1" stop-color="#005826"/>
</linearGradient>
<linearGradient id="paint24_linear_44_4453" x1="199.933" y1="213.806" x2="184.131" y2="199.323" gradientUnits="userSpaceOnUse">
<stop stop-color="#54B948"/>
<stop offset="0.3764" stop-color="#00A651"/>
<stop offset="1" stop-color="#005826"/>
</linearGradient>
<linearGradient id="paint25_linear_44_4453" x1="212.055" y1="234.997" x2="177.815" y2="205.359" gradientUnits="userSpaceOnUse">
<stop stop-color="#54B948"/>
<stop offset="0.3764" stop-color="#00A651"/>
<stop offset="1" stop-color="#005826"/>
</linearGradient>
<linearGradient id="paint26_linear_44_4453" x1="207.914" y1="252.1" x2="188.147" y2="221.489" gradientUnits="userSpaceOnUse">
<stop stop-color="#54B948"/>
<stop offset="0.3764" stop-color="#00A651"/>
<stop offset="1" stop-color="#005826"/>
</linearGradient>
<linearGradient id="paint27_linear_44_4453" x1="145.956" y1="366.958" x2="185.368" y2="284.417" gradientUnits="userSpaceOnUse">
<stop stop-color="#54B948"/>
<stop offset="0.3764" stop-color="#00A651"/>
<stop offset="1" stop-color="#005826"/>
</linearGradient>
<linearGradient id="paint28_linear_44_4453" x1="225.879" y1="291.918" x2="173.113" y2="225.014" gradientUnits="userSpaceOnUse">
<stop stop-color="#54B948"/>
<stop offset="0.3764" stop-color="#00A651"/>
<stop offset="1" stop-color="#005826"/>
</linearGradient>
<linearGradient id="paint29_linear_44_4453" x1="216.843" y1="297.556" x2="194.747" y2="235.294" gradientUnits="userSpaceOnUse">
<stop stop-color="#54B948"/>
<stop offset="0.3764" stop-color="#00A651"/>
<stop offset="1" stop-color="#005826"/>
</linearGradient>
<linearGradient id="paint30_linear_44_4453" x1="201.947" y1="312.892" x2="197.303" y2="252.691" gradientUnits="userSpaceOnUse">
<stop stop-color="#54B948"/>
<stop offset="0.3764" stop-color="#00A651"/>
<stop offset="1" stop-color="#005826"/>
</linearGradient>
<linearGradient id="paint31_linear_44_4453" x1="188.538" y1="319.667" x2="196.17" y2="267.834" gradientUnits="userSpaceOnUse">
<stop stop-color="#54B948"/>
<stop offset="0.3764" stop-color="#00A651"/>
<stop offset="1" stop-color="#005826"/>
</linearGradient>
<linearGradient id="paint32_linear_44_4453" x1="164.884" y1="333.852" x2="189.209" y2="293.123" gradientUnits="userSpaceOnUse">
<stop stop-color="#54B948"/>
<stop offset="0.3764" stop-color="#00A651"/>
<stop offset="1" stop-color="#005826"/>
</linearGradient>
<linearGradient id="paint33_linear_44_4453" x1="158.607" y1="168.505" x2="170.198" y2="173.115" gradientUnits="userSpaceOnUse">
<stop stop-color="#54B948"/>
<stop offset="0.3764" stop-color="#00A651"/>
<stop offset="1" stop-color="#005826"/>
</linearGradient>
<linearGradient id="paint34_linear_44_4453" x1="136.387" y1="172.771" x2="168.45" y2="174.498" gradientUnits="userSpaceOnUse">
<stop stop-color="#54B948"/>
<stop offset="0.3764" stop-color="#00A651"/>
<stop offset="1" stop-color="#005826"/>
</linearGradient>
<linearGradient id="paint35_linear_44_4453" x1="132.901" y1="170.05" x2="152.909" y2="174.828" gradientUnits="userSpaceOnUse">
<stop stop-color="#54B948"/>
<stop offset="0.3764" stop-color="#00A651"/>
<stop offset="1" stop-color="#005826"/>
</linearGradient>
<linearGradient id="paint36_linear_44_4453" x1="111.262" y1="169.129" x2="153.207" y2="180.26" gradientUnits="userSpaceOnUse">
<stop stop-color="#54B948"/>
<stop offset="0.3764" stop-color="#00A651"/>
<stop offset="1" stop-color="#005826"/>
</linearGradient>
<linearGradient id="paint37_linear_44_4453" x1="95.0228" y1="178.193" x2="133.472" y2="178.532" gradientUnits="userSpaceOnUse">
<stop stop-color="#54B948"/>
<stop offset="0.3764" stop-color="#00A651"/>
<stop offset="1" stop-color="#005826"/>
</linearGradient>
<linearGradient id="paint38_linear_44_4453" x1="40.2022" y1="297.933" x2="98.3277" y2="230.403" gradientUnits="userSpaceOnUse">
<stop stop-color="#54B948"/>
<stop offset="0.3764" stop-color="#00A651"/>
<stop offset="1" stop-color="#005826"/>
</linearGradient>
<linearGradient id="paint39_linear_44_4453" x1="59.9339" y1="183.47" x2="138.92" y2="190.531" gradientUnits="userSpaceOnUse">
<stop stop-color="#54B948"/>
<stop offset="0.3764" stop-color="#00A651"/>
<stop offset="1" stop-color="#005826"/>
</linearGradient>
<linearGradient id="paint40_linear_44_4453" x1="59.9673" y1="195.046" x2="118.839" y2="184.036" gradientUnits="userSpaceOnUse">
<stop stop-color="#54B948"/>
<stop offset="0.3764" stop-color="#00A651"/>
<stop offset="1" stop-color="#005826"/>
</linearGradient>
<linearGradient id="paint41_linear_44_4453" x1="55.1565" y1="217.025" x2="105.751" y2="195.505" gradientUnits="userSpaceOnUse">
<stop stop-color="#54B948"/>
<stop offset="0.3764" stop-color="#00A651"/>
<stop offset="1" stop-color="#005826"/>
</linearGradient>
<linearGradient id="paint42_linear_44_4453" x1="56.3612" y1="233.408" x2="96.8126" y2="206.259" gradientUnits="userSpaceOnUse">
<stop stop-color="#54B948"/>
<stop offset="0.3764" stop-color="#00A651"/>
<stop offset="1" stop-color="#005826"/>
</linearGradient>
<linearGradient id="paint43_linear_44_4453" x1="56.8282" y1="263.29" x2="84.1867" y2="225.021" gradientUnits="userSpaceOnUse">
<stop stop-color="#54B948"/>
<stop offset="0.3764" stop-color="#00A651"/>
<stop offset="1" stop-color="#005826"/>
</linearGradient>
<clipPath id="clip0_44_4453">
<rect width="289" height="394" fill="white" transform="translate(0.169922)"/>
</clipPath>
</defs>
</svg>
