<svg width="245" height="539" viewBox="0 0 245 539" fill="none" xmlns="http://www.w3.org/2000/svg">
<path d="M-38.7195 268.721C-38.7195 268.721 -18.5244 231.297 -8.88281 193.69C-8.88281 193.69 -39.9828 243.458 -38.7195 268.721Z" fill="url(#paint0_linear_1481_12989)"/>
<path d="M-38.7195 268.721C-38.7195 268.721 -18.4632 256.661 -8.88281 193.69C-8.88281 193.69 -29.6416 246.665 -38.7195 268.721Z" fill="#39B54A"/>
<path d="M-26.3763 258.332C-26.3763 258.332 -0.162051 224.875 15.6719 189.598C15.6719 189.598 -23.3893 233.446 -26.3763 258.332Z" fill="url(#paint1_linear_1481_12989)"/>
<path d="M-26.3763 258.332C-26.3763 258.332 -4.28774 249.716 15.6719 189.598C15.6719 189.598 -13.7084 238.168 -26.3763 258.332Z" fill="#39B54A"/>
<path d="M0.27077 240.504C0.27077 240.504 25.8226 203.916 39.6171 164.258C39.6702 164.238 0.970438 211.705 0.27077 240.504Z" fill="url(#paint2_linear_1481_12989)"/>
<path d="M0.27076 240.504C0.27076 240.504 23.807 232.555 39.6171 164.258C39.6702 164.238 12.2367 218.149 0.27076 240.504Z" fill="#39B54A"/>
<path d="M12.0612 233.739C12.0612 233.739 48.1224 207.072 73.9766 174.124C73.9766 174.124 21.8699 207.017 12.0612 233.739Z" fill="url(#paint3_linear_1481_12989)"/>
<path d="M12.0691 233.753C12.0691 233.753 37.1154 233.312 73.9922 174.132C73.9922 174.132 30.6049 216.388 12.0691 233.753Z" fill="#39B54A"/>
<path d="M39.113 223.06C39.113 223.06 75.1937 200.976 102.328 175.127C102.358 175.054 50.687 202.907 39.113 223.06Z" fill="url(#paint4_linear_1481_12989)"/>
<path d="M39.1115 223.072C39.1115 223.072 62.6356 220.864 102.336 175.135C102.366 175.063 58.0145 209.02 39.1115 223.072Z" fill="#39B54A"/>
<path d="M64.8555 213.826C64.8555 213.826 106.364 203.881 140.53 187.722C140.508 187.671 82.3178 198.372 64.8555 213.826Z" fill="url(#paint5_linear_1481_12989)"/>
<path d="M64.8884 213.914C64.8884 213.914 88.0204 218.88 140.566 187.812C140.543 187.76 87.3729 206.382 64.8884 213.914Z" fill="#39B54A"/>
<path d="M-69.4056 299.021C-69.4056 299.021 -31.6268 291.465 4.53388 293.229C4.53388 293.229 -46.479 307.018 -69.4056 299.021Z" fill="url(#paint6_linear_1481_12989)"/>
<path d="M-69.4233 299.001C-69.4233 299.001 -54.9314 284.438 4.54073 293.22C4.54073 293.22 -47.6166 297.058 -69.4233 299.001Z" fill="#39B54A"/>
<path d="M-54.323 286.088C-54.323 286.088 -15.7754 282.184 20.2408 287.365C20.2408 287.365 -32.1213 296.256 -54.323 286.088Z" fill="url(#paint7_linear_1481_12989)"/>
<path d="M-54.3296 286.082C-54.3296 286.082 -38.3688 272.951 20.244 287.363C20.244 287.363 -32.3027 286.218 -54.3296 286.082Z" fill="#39B54A"/>
<path d="M-43.7225 275.202C-43.7225 275.202 -7.1938 270.174 26.5261 273.179C26.5261 273.179 -23.2529 283.041 -43.7225 275.202Z" fill="url(#paint8_linear_1481_12989)"/>
<path d="M-43.7355 275.195C-43.7355 275.195 -28.1072 263.166 26.5222 273.176C26.5222 273.176 -22.9697 274.346 -43.7355 275.195Z" fill="#39B54A"/>
<path d="M-26.2335 262.941C-26.2335 262.941 13.9235 261.729 49.756 268.364C49.8088 268.343 -5.44399 273.084 -26.2335 262.941Z" fill="url(#paint9_linear_1481_12989)"/>
<path d="M-26.2337 262.942C-26.2337 262.942 -7.42739 252.415 49.757 268.365C49.8098 268.344 -3.70362 264.301 -26.2337 262.942Z" fill="#39B54A"/>
<path d="M-12.9288 252.624C-12.9288 252.624 27.2281 251.413 63.0607 258.047C63.1135 258.026 7.86072 262.768 -12.9288 252.624Z" fill="url(#paint10_linear_1481_12989)"/>
<path d="M-12.929 252.625C-12.929 252.625 5.87728 242.098 63.0617 258.048C63.1145 258.027 9.60109 253.985 -12.929 252.625Z" fill="#39B54A"/>
<path d="M8.2119 239.925C8.2119 239.925 48.3688 238.714 84.2013 245.348C84.2013 245.348 29.0014 250.069 8.2119 239.925Z" fill="url(#paint11_linear_1481_12989)"/>
<path d="M8.21954 239.927C8.21954 239.927 27.0258 229.4 84.2102 245.35C84.2102 245.35 30.7496 241.287 8.21954 239.927Z" fill="#39B54A"/>
<path d="M36.3102 225.64C36.3102 225.64 73.5691 225.648 107.069 233.527C107.069 233.527 55.9618 236.677 36.3102 225.64Z" fill="url(#paint12_linear_1481_12989)"/>
<path d="M36.3172 225.637C36.3172 225.637 53.363 215.437 107.077 233.526C107.077 233.526 57.2771 227.749 36.3172 225.637Z" fill="#39B54A"/>
<path d="M61.0721 215.614C61.0721 215.614 94.7892 215.603 125.098 222.718C125.098 222.718 78.8397 225.619 61.0721 215.614Z" fill="url(#paint13_linear_1481_12989)"/>
<path d="M61.0755 215.614C61.0755 215.614 76.5163 206.408 125.102 222.719C125.102 222.719 80.0286 217.534 61.0755 215.614Z" fill="#39B54A"/>
<path d="M70.5803 213.909C70.5803 213.909 34.816 220.822 -1.63795 243.198C-38.0919 265.574 -91.7765 307.255 -98.0891 331.89C-98.0891 331.89 -94.5355 335.613 -92.7209 330.931C-90.8767 326.177 -79.2568 307.561 -60.4596 291.664C-41.6099 275.747 -23.6256 258.706 3.2509 244.502C30.1274 230.298 70.5803 213.909 70.5803 213.909Z" fill="url(#paint14_linear_1481_12989)"/>
<path d="M-69.0185 287.005C-69.0185 287.005 29.0446 256.195 94.414 253.355C94.43 253.412 -17.8422 287.945 -69.0185 287.005Z" fill="url(#paint15_linear_1481_12989)"/>
<path d="M-69.0058 286.979C-69.0058 286.979 18.8591 257.305 94.3866 253.317C94.4026 253.374 -20.0313 277.138 -69.0058 286.979Z" fill="#39B54A"/>
<path d="M95.617 268.041C95.617 268.041 -7.61141 298.934 -69.0762 287.122C-69.0762 287.122 -51.6545 282.164 -17.212 279.905C17.2305 277.645 56.4467 275.409 95.617 268.041Z" fill="url(#paint16_linear_1481_12989)"/>
<path d="M95.597 268.038C95.597 268.038 -12.9474 296.317 -69.0838 287.124C-69.0838 287.124 -51.6382 286.575 -17.1983 284.315C17.2416 282.054 56.4296 275.407 95.597 268.038Z" fill="#39B54A"/>
<path d="M85.4824 291.841C85.4824 291.841 -13.3979 303.678 -69.139 287.055C-69.139 287.055 -33.9537 284.548 -8.86944 286.599C16.1574 288.663 51.8205 294.536 85.4824 291.841Z" fill="url(#paint17_linear_1481_12989)"/>
<path d="M85.4824 291.841C85.4824 291.841 -13.3979 303.678 -69.139 287.055C-69.139 287.055 -38.0534 292.123 -10.4615 292.432C14.8029 292.742 51.8205 294.536 85.4824 291.841Z" fill="#39B54A"/>
<path d="M82.5017 310.087C82.5017 310.087 -30.1978 313.789 -69.3137 287.532C-69.3137 287.532 -47.4873 284.236 -9.8985 294.746C27.6903 305.257 38.2712 307.516 82.5017 310.087Z" fill="url(#paint18_linear_1481_12989)"/>
<path d="M82.5017 310.087C82.5017 310.087 -30.1978 313.789 -69.3137 287.532C-69.3137 287.532 -55.7344 289.331 -20.693 298.433C18.2853 308.435 38.2712 307.516 82.5017 310.087Z" fill="#39B54A"/>
<path d="M71.9845 330.141C71.9845 330.141 -15.285 332.549 -68.9488 287.993C-68.9488 287.993 -45.7031 291.928 -30.2737 300.799C-14.9018 309.684 24.4899 326.525 71.9845 330.141Z" fill="url(#paint19_linear_1481_12989)"/>
<path d="M71.6876 329.964C71.6876 329.964 -15.5819 332.371 -69.2456 287.816C-69.2456 287.816 -47.2783 296.983 -31.9065 305.867C-16.5347 314.752 24.1354 326.361 71.6876 329.964Z" fill="#39B54A"/>
<path d="M54.5461 354.816C54.5461 354.816 -2.86708 347.911 -69.0472 288.113C-69.0472 288.113 -63.8957 286.297 -29.4726 307.674C4.9505 329.051 9.4155 337.164 54.5461 354.816Z" fill="url(#paint20_linear_1481_12989)"/>
<path d="M54.5494 354.811C54.5494 354.811 5.56734 355.887 -69.2997 287.862C-69.2997 287.862 -65.8354 289.86 -31.4121 311.237C2.99501 332.556 8.8095 339.133 54.5494 354.811Z" fill="#39B54A"/>
<path d="M-68.4067 287.59C-68.4067 287.59 -24.707 342.776 33.7727 384.521C33.7727 384.521 -6.93169 342.905 -32.9055 315.48C-49.4439 297.975 -68.4067 287.59 -68.4067 287.59Z" fill="url(#paint21_linear_1481_12989)"/>
<path d="M-68.6927 287.412C-68.6927 287.412 -29.1947 337.823 33.7831 384.518C33.7831 384.518 0.165302 352.819 -35.8488 318.129C-49.6314 304.878 -68.6927 287.412 -68.6927 287.412Z" fill="#39B54A"/>
<path d="M28.4457 402.843C28.4457 402.843 -36.1404 364.668 -68.4975 287.669C-68.4975 287.669 -44.5954 308.813 -24.9826 342.737C-5.32807 376.589 28.4457 402.843 28.4457 402.843Z" fill="url(#paint22_linear_1481_12989)"/>
<path d="M28.4424 402.845C28.4424 402.845 -36.4162 364.365 -68.7154 287.352C-68.7154 287.352 -49.6276 315.511 -30.7417 342.307C-8.05699 374.408 28.4424 402.845 28.4424 402.845Z" fill="#39B54A"/>
<path d="M86.678 234.494C86.678 234.494 -20.4703 250.356 -69.2272 286.663C-69.2272 286.663 -50.8183 285.643 -19.0836 273.191C12.6512 260.74 48.1664 244.372 86.678 234.494Z" fill="url(#paint23_linear_1481_12989)"/>
<path d="M86.6579 234.492C86.6579 234.492 -23.9529 254.875 -69.2112 286.666C-69.2112 286.666 -53.1654 280.76 -21.4379 268.308C10.2897 255.856 48.1555 244.373 86.6579 234.492Z" fill="#39B54A"/>
<path d="M64.6094 215.956C64.6094 215.956 -28.7155 247.965 -69.2806 286.553C-69.2806 286.553 -36.922 273.668 -15.9292 261.091C5.06355 248.514 33.5573 228.047 64.6094 215.956Z" fill="url(#paint24_linear_1481_12989)"/>
<path d="M64.6094 215.956C64.6094 215.956 -28.7155 247.965 -69.2806 286.553C-69.2806 286.553 -44.4946 268.777 -20.3085 256.662C1.84083 245.572 33.5573 228.047 64.6094 215.956Z" fill="#39B54A"/>
<path d="M52.6172 201.254C52.6172 201.254 -48.7111 246.23 -69.5715 286.184C-69.5715 286.184 -48.5811 279.741 -20.9447 254.36C6.69168 228.98 14.9681 222.482 52.6172 201.254Z" fill="url(#paint25_linear_1481_12989)"/>
<path d="M52.6172 201.254C52.6172 201.254 -48.7111 246.23 -69.5715 286.184C-69.5715 286.184 -58.5578 278.739 -32.3269 255.755C-3.14662 230.194 14.9681 222.482 52.6172 201.254Z" fill="#39B54A"/>
<path d="M33.0781 189.152C33.0781 189.152 -45.1816 224.281 -69.3015 286.429C-69.3015 286.429 -50.8457 273.097 -41.8676 258.635C-32.8894 244.173 -6.90479 212.578 33.0781 189.152Z" fill="url(#paint26_linear_1481_12989)"/>
<path d="M32.9062 189.376C32.9062 189.376 -45.3534 224.506 -69.4733 286.654C-69.4733 286.654 -54.8835 269.234 -45.9467 254.843C-36.9524 240.438 -7.11805 212.874 32.9062 189.376Z" fill="#39B54A"/>
<path d="M5.03906 167.037C5.03906 167.037 -42.1029 205.354 -69.3561 286.28C-69.3561 286.28 -63.9194 285.681 -44.6767 252.178C-25.4176 218.732 -25.5556 201.79 5.03906 167.037Z" fill="url(#paint27_linear_1481_12989)"/>
<path d="M5.03906 167.04C5.03906 167.04 -38.8492 194.704 -69.506 286.623C-69.506 286.623 -67.4659 283.399 -48.2231 249.896C-28.9803 216.393 -27.1422 200.332 5.03906 167.04Z" fill="#39B54A"/>
<path d="M-68.4616 286.568C-68.4616 286.568 -58.5781 219.227 -28.7422 157.507C-28.7422 157.507 -43.0692 211.62 -51.6389 246.873C-57.1113 269.34 -68.4616 286.568 -68.4616 286.568Z" fill="url(#paint28_linear_1481_12989)"/>
<path d="M-68.5496 286.894C-68.5496 286.894 -59.9281 225.544 -28.6641 157.551C-28.6641 157.551 -41.8324 199.88 -55.576 245.835C-60.8488 263.356 -68.5496 286.894 -68.5496 286.894Z" fill="#39B54A"/>
<defs>
<linearGradient id="paint0_linear_1481_12989" x1="-12.2468" y1="242.062" x2="-34.7898" y2="219.616" gradientUnits="userSpaceOnUse">
<stop stop-color="#54B948"/>
<stop offset="0.3764" stop-color="#00A651"/>
<stop offset="1" stop-color="#005826"/>
</linearGradient>
<linearGradient id="paint1_linear_1481_12989" x1="4.35942" y1="236.416" x2="-13.9557" y2="210.769" gradientUnits="userSpaceOnUse">
<stop stop-color="#54B948"/>
<stop offset="0.3764" stop-color="#00A651"/>
<stop offset="1" stop-color="#005826"/>
</linearGradient>
<linearGradient id="paint2_linear_1481_12989" x1="32.0335" y1="217.898" x2="9.25656" y2="185.994" gradientUnits="userSpaceOnUse">
<stop stop-color="#54B948"/>
<stop offset="0.3764" stop-color="#00A651"/>
<stop offset="1" stop-color="#005826"/>
</linearGradient>
<linearGradient id="paint3_linear_1481_12989" x1="49.5427" y1="221.997" x2="38.0656" y2="185.359" gradientUnits="userSpaceOnUse">
<stop stop-color="#54B948"/>
<stop offset="0.3764" stop-color="#00A651"/>
<stop offset="1" stop-color="#005826"/>
</linearGradient>
<linearGradient id="paint4_linear_1481_12989" x1="75.2731" y1="211.651" x2="67.2354" y2="186.11" gradientUnits="userSpaceOnUse">
<stop stop-color="#54B948"/>
<stop offset="0.3764" stop-color="#00A651"/>
<stop offset="1" stop-color="#005826"/>
</linearGradient>
<linearGradient id="paint5_linear_1481_12989" x1="102.922" y1="213.964" x2="103.01" y2="187.589" gradientUnits="userSpaceOnUse">
<stop stop-color="#54B948"/>
<stop offset="0.3764" stop-color="#00A651"/>
<stop offset="1" stop-color="#005826"/>
</linearGradient>
<linearGradient id="paint6_linear_1481_12989" x1="-40.5143" y1="282.941" x2="-25.5385" y2="309.903" gradientUnits="userSpaceOnUse">
<stop stop-color="#54B948"/>
<stop offset="0.3764" stop-color="#00A651"/>
<stop offset="1" stop-color="#005826"/>
</linearGradient>
<linearGradient id="paint7_linear_1481_12989" x1="-23.7622" y1="272.891" x2="-11.5268" y2="301.152" gradientUnits="userSpaceOnUse">
<stop stop-color="#54B948"/>
<stop offset="0.3764" stop-color="#00A651"/>
<stop offset="1" stop-color="#005826"/>
</linearGradient>
<linearGradient id="paint8_linear_1481_12989" x1="-14.3289" y1="262.447" x2="-3.95673" y2="286.375" gradientUnits="userSpaceOnUse">
<stop stop-color="#54B948"/>
<stop offset="0.3764" stop-color="#00A651"/>
<stop offset="1" stop-color="#005826"/>
</linearGradient>
<linearGradient id="paint9_linear_1481_12989" x1="7.53342" y1="253.155" x2="14.9179" y2="278.525" gradientUnits="userSpaceOnUse">
<stop stop-color="#54B948"/>
<stop offset="0.3764" stop-color="#00A651"/>
<stop offset="1" stop-color="#005826"/>
</linearGradient>
<linearGradient id="paint10_linear_1481_12989" x1="20.8331" y1="242.808" x2="28.2176" y2="268.179" gradientUnits="userSpaceOnUse">
<stop stop-color="#54B948"/>
<stop offset="0.3764" stop-color="#00A651"/>
<stop offset="1" stop-color="#005826"/>
</linearGradient>
<linearGradient id="paint11_linear_1481_12989" x1="41.9685" y1="230.14" x2="49.3529" y2="255.511" gradientUnits="userSpaceOnUse">
<stop stop-color="#54B948"/>
<stop offset="0.3764" stop-color="#00A651"/>
<stop offset="1" stop-color="#005826"/>
</linearGradient>
<linearGradient id="paint12_linear_1481_12989" x1="67.2981" y1="216.642" x2="74.9207" y2="242.861" gradientUnits="userSpaceOnUse">
<stop stop-color="#54B948"/>
<stop offset="0.3764" stop-color="#00A651"/>
<stop offset="1" stop-color="#005826"/>
</linearGradient>
<linearGradient id="paint13_linear_1481_12989" x1="89.0903" y1="207.465" x2="95.9842" y2="231.178" gradientUnits="userSpaceOnUse">
<stop stop-color="#54B948"/>
<stop offset="0.3764" stop-color="#00A651"/>
<stop offset="1" stop-color="#005826"/>
</linearGradient>
<linearGradient id="paint14_linear_1481_12989" x1="87.9777" y1="195.165" x2="-103.829" y2="335.462" gradientUnits="userSpaceOnUse">
<stop stop-color="#54B948"/>
<stop offset="0.3764" stop-color="#00A651"/>
<stop offset="1" stop-color="#005826"/>
</linearGradient>
<linearGradient id="paint15_linear_1481_12989" x1="-14.2192" y1="240.229" x2="38.0423" y2="301.473" gradientUnits="userSpaceOnUse">
<stop stop-color="#54B948"/>
<stop offset="0.3764" stop-color="#00A651"/>
<stop offset="1" stop-color="#005826"/>
</linearGradient>
<linearGradient id="paint16_linear_1481_12989" x1="14.4911" y1="286.156" x2="13.5047" y2="276.413" gradientUnits="userSpaceOnUse">
<stop stop-color="#54B948"/>
<stop offset="0.3764" stop-color="#00A651"/>
<stop offset="1" stop-color="#005826"/>
</linearGradient>
<linearGradient id="paint17_linear_1481_12989" x1="5.1762" y1="304.443" x2="11.9494" y2="274.966" gradientUnits="userSpaceOnUse">
<stop stop-color="#54B948"/>
<stop offset="0.3764" stop-color="#00A651"/>
<stop offset="1" stop-color="#005826"/>
</linearGradient>
<linearGradient id="paint18_linear_1481_12989" x1="6.65836" y1="308.491" x2="7.33968" y2="289.291" gradientUnits="userSpaceOnUse">
<stop stop-color="#54B948"/>
<stop offset="0.3764" stop-color="#00A651"/>
<stop offset="1" stop-color="#005826"/>
</linearGradient>
<linearGradient id="paint19_linear_1481_12989" x1="2.16205" y1="329.577" x2="2.54162" y2="288.663" gradientUnits="userSpaceOnUse">
<stop stop-color="#54B948"/>
<stop offset="0.3764" stop-color="#00A651"/>
<stop offset="1" stop-color="#005826"/>
</linearGradient>
<linearGradient id="paint20_linear_1481_12989" x1="-11.2141" y1="337.143" x2="-2.55274" y2="306.396" gradientUnits="userSpaceOnUse">
<stop stop-color="#54B948"/>
<stop offset="0.3764" stop-color="#00A651"/>
<stop offset="1" stop-color="#005826"/>
</linearGradient>
<linearGradient id="paint21_linear_1481_12989" x1="-23.1712" y1="373.599" x2="-8.89369" y2="298.98" gradientUnits="userSpaceOnUse">
<stop stop-color="#54B948"/>
<stop offset="0.3764" stop-color="#00A651"/>
<stop offset="1" stop-color="#005826"/>
</linearGradient>
<linearGradient id="paint22_linear_1481_12989" x1="-33.0834" y1="370.852" x2="-6.56276" y2="319.887" gradientUnits="userSpaceOnUse">
<stop stop-color="#54B948"/>
<stop offset="0.3764" stop-color="#00A651"/>
<stop offset="1" stop-color="#005826"/>
</linearGradient>
<linearGradient id="paint23_linear_1481_12989" x1="5.54969" y1="252.526" x2="9.36946" y2="263.506" gradientUnits="userSpaceOnUse">
<stop stop-color="#54B948"/>
<stop offset="0.3764" stop-color="#00A651"/>
<stop offset="1" stop-color="#005826"/>
</linearGradient>
<linearGradient id="paint24_linear_1481_12989" x1="-12.698" y1="239.408" x2="7.18107" y2="263.451" gradientUnits="userSpaceOnUse">
<stop stop-color="#54B948"/>
<stop offset="0.3764" stop-color="#00A651"/>
<stop offset="1" stop-color="#005826"/>
</linearGradient>
<linearGradient id="paint25_linear_1481_12989" x1="-13.5156" y1="235.086" x2="-4.24992" y2="252.543" gradientUnits="userSpaceOnUse">
<stop stop-color="#54B948"/>
<stop offset="0.3764" stop-color="#00A651"/>
<stop offset="1" stop-color="#005826"/>
</linearGradient>
<linearGradient id="paint26_linear_1481_12989" x1="-28.1466" y1="219.387" x2="-9.60511" y2="256.835" gradientUnits="userSpaceOnUse">
<stop stop-color="#54B948"/>
<stop offset="0.3764" stop-color="#00A651"/>
<stop offset="1" stop-color="#005826"/>
</linearGradient>
<linearGradient id="paint27_linear_1481_12989" x1="-45.2552" y1="213.024" x2="-19.4876" y2="241.134" gradientUnits="userSpaceOnUse">
<stop stop-color="#54B948"/>
<stop offset="0.3764" stop-color="#00A651"/>
<stop offset="1" stop-color="#005826"/>
</linearGradient>
<linearGradient id="paint28_linear_1481_12989" x1="-73.3288" y1="191.434" x2="-25.6983" y2="254.104" gradientUnits="userSpaceOnUse">
<stop stop-color="#54B948"/>
<stop offset="0.3764" stop-color="#00A651"/>
<stop offset="1" stop-color="#005826"/>
</linearGradient>
</defs>
</svg>
