<svg width="213" height="454" viewBox="0 0 213 454" fill="none" xmlns="http://www.w3.org/2000/svg">
<path d="M260.77 245.991C260.77 245.991 221.873 249.592 187.727 262.272C187.727 262.272 241.318 261.158 260.77 245.991Z" fill="url(#paint0_linear_1481_13119)"/>
<path d="M260.77 245.991C260.77 245.991 241.98 235.284 187.727 262.272C187.727 262.272 239.113 250.495 260.77 245.991Z" fill="#39B54A"/>
<path d="M242.062 238.333C242.062 238.333 199.598 240.628 162.484 252.021C162.484 252.021 221.167 252.591 242.062 238.333Z" fill="url(#paint1_linear_1481_13119)"/>
<path d="M242.062 238.333C242.062 238.333 221.205 227.344 162.484 252.021C162.484 252.021 218.509 242.095 242.062 238.333Z" fill="#39B54A"/>
<path d="M226.762 233.222C226.762 233.222 184.544 228.311 146.188 233.206C146.188 233.206 203.973 243.656 226.762 233.222Z" fill="url(#paint2_linear_1481_13119)"/>
<path d="M226.762 233.222C226.762 233.222 207.889 218.872 146.188 233.206C146.188 233.206 202.951 232.933 226.762 233.222Z" fill="#39B54A"/>
<path d="M197.653 219.783C197.653 219.783 153.108 217.071 112.078 225.991C112.033 225.956 172.718 234.21 197.653 219.783Z" fill="url(#paint3_linear_1481_13119)"/>
<path d="M197.653 219.783C197.653 219.783 178.592 203.85 112.078 225.991C112.033 225.956 172.338 221.237 197.653 219.783Z" fill="#39B54A"/>
<path d="M185.73 213.256C185.73 213.256 144.168 196.402 102.57 191.534C102.57 191.534 157.816 218.828 185.73 213.256Z" fill="url(#paint4_linear_1481_13119)"/>
<path d="M185.739 213.25C185.739 213.25 172.297 192.112 102.57 191.524C102.57 191.524 161.255 206.495 185.739 213.25Z" fill="#39B54A"/>
<path d="M162.497 195.738C162.497 195.738 124.834 176.477 88.6252 166.812C88.548 166.825 139.266 196.377 162.497 195.738Z" fill="url(#paint5_linear_1481_13119)"/>
<path d="M162.505 195.734C162.505 195.734 148.349 176.816 88.6251 166.802C88.5479 166.814 140.655 186.937 162.505 195.734Z" fill="#39B54A"/>
<path d="M141.203 178.605C141.203 178.605 111.065 148.381 79.4553 127.662C79.4232 127.708 118.909 171.769 141.203 178.605Z" fill="url(#paint6_linear_1481_13119)"/>
<path d="M141.256 178.531C141.256 178.531 133.426 156.205 79.5079 127.584C79.4758 127.63 123.1 163.278 141.256 178.531Z" fill="#39B54A"/>
<path d="M265.021 242.582C265.021 242.582 241.58 211.732 227.211 178.302C227.211 178.302 262.113 218.336 265.021 242.582Z" fill="url(#paint7_linear_1481_13119)"/>
<path d="M265.014 242.591C265.014 242.591 245.486 235.824 227.204 178.301C227.204 178.301 253.64 223.728 265.014 242.591Z" fill="#39B54A"/>
<path d="M250.205 239.22C250.205 239.22 226.859 210.679 211.832 180.343C211.832 180.343 246.214 217.667 250.205 239.22Z" fill="url(#paint8_linear_1481_13119)"/>
<path d="M250.198 239.229C250.198 239.229 231.783 232.171 211.824 180.342C211.824 180.342 238.641 221.955 250.198 239.229Z" fill="#39B54A"/>
<path d="M230.625 230.691C230.625 230.691 208.642 197.063 195.609 163.032C195.564 162.998 228.433 207.663 230.625 230.691Z" fill="url(#paint9_linear_1481_13119)"/>
<path d="M230.628 230.691C230.628 230.691 211.837 220.138 195.612 163.031C195.567 162.997 220.034 210.761 230.628 230.691Z" fill="#39B54A"/>
<path d="M214.883 224.723C214.883 224.723 192.9 191.096 179.867 157.064C179.822 157.03 212.691 201.695 214.883 224.723Z" fill="url(#paint10_linear_1481_13119)"/>
<path d="M214.886 224.724C214.886 224.724 196.094 214.171 179.87 157.064C179.825 157.03 204.292 204.793 214.886 224.724Z" fill="#39B54A"/>
<path d="M193.008 213.31C193.008 213.31 171.025 179.682 157.992 145.651C157.992 145.651 190.816 190.281 193.008 213.31Z" fill="url(#paint11_linear_1481_13119)"/>
<path d="M193.011 213.309C193.011 213.309 174.219 202.756 157.995 145.649C157.995 145.649 182.417 193.379 193.011 213.309Z" fill="#39B54A"/>
<path d="M166.163 196.784C166.163 196.784 146.733 164.993 135.979 132.302C135.979 132.302 165.327 174.261 166.163 196.784Z" fill="url(#paint12_linear_1481_13119)"/>
<path d="M166.169 196.786C166.169 196.786 148.574 187.565 135.984 132.303C135.984 132.303 157.036 177.803 166.169 196.786Z" fill="#39B54A"/>
<path d="M144.705 180.902C144.705 180.902 127.107 152.141 117.365 122.573C117.365 122.573 143.972 160.524 144.705 180.902Z" fill="url(#paint13_linear_1481_13119)"/>
<path d="M144.698 180.903C144.698 180.903 128.788 172.532 117.358 122.572C117.358 122.572 136.448 163.731 144.698 180.903Z" fill="#39B54A"/>
<path d="M138.29 173.683C138.29 173.683 162.845 200.588 200.952 220.015C239.059 239.442 302.625 263.499 326.936 256.032C326.936 256.032 328.258 251.059 323.318 251.953C318.3 252.86 296.356 252.658 272.987 244.914C249.574 237.137 225.654 230.683 199.515 215.164C173.375 199.645 138.29 173.683 138.29 173.683Z" fill="url(#paint14_linear_1481_13119)"/>
<path d="M273.328 255.178C273.328 255.178 195.886 187.589 159.36 133.301C159.4 133.258 247.433 211.027 273.328 255.178Z" fill="url(#paint15_linear_1481_13119)"/>
<path d="M273.309 255.181C273.309 255.181 202.156 195.7 159.352 133.345C159.392 133.302 239.365 218.532 273.309 255.181Z" fill="#39B54A"/>
<path d="M171.276 124.617C171.276 124.617 251.484 196.569 273.473 255.169C273.473 255.169 260.154 242.893 240.258 214.687C220.363 186.481 197.996 154.191 171.276 124.617Z" fill="url(#paint16_linear_1481_13119)"/>
<path d="M171.27 124.628C171.27 124.628 252.022 202.479 273.464 255.167C273.464 255.167 263.895 240.569 244 212.367C224.105 184.164 197.99 154.199 171.27 124.628Z" fill="#39B54A"/>
<path d="M196.863 120.849C196.863 120.849 258.545 199.033 273.443 255.26C273.443 255.26 252.948 226.55 241.612 204.079C230.317 181.651 216.723 148.161 196.863 120.849Z" fill="url(#paint17_linear_1481_13119)"/>
<path d="M196.863 120.849C196.863 120.849 258.545 199.033 273.443 255.26C273.443 255.26 261.55 226.095 247.419 202.394C234.504 180.678 216.723 148.161 196.863 120.849Z" fill="#39B54A"/>
<path d="M213.966 113.864C213.966 113.864 275.918 208.081 273.922 255.151C273.922 255.151 259.724 238.249 249.081 200.697C238.439 163.146 234.846 152.94 213.966 113.864Z" fill="url(#paint18_linear_1481_13119)"/>
<path d="M213.966 113.864C213.966 113.864 275.918 208.081 273.922 255.151C273.922 255.151 268.373 242.627 257.858 207.983C246.057 169.511 234.846 152.94 213.966 113.864Z" fill="#39B54A"/>
<path d="M236.588 112.389C236.588 112.389 284.168 185.586 274.151 254.613C274.151 254.613 265.382 232.728 264.901 214.937C264.462 197.187 258.279 154.795 236.588 112.389Z" fill="url(#paint19_linear_1481_13119)"/>
<path d="M236.588 112.732C236.588 112.732 284.168 185.93 274.151 254.956C274.151 254.956 270.512 231.433 270.073 213.683C269.633 195.934 258.32 155.181 236.588 112.732Z" fill="#39B54A"/>
<path d="M266.732 114.386C266.732 114.386 290.793 166.969 274.301 254.626C274.301 254.626 270.065 251.178 270.344 210.659C270.624 170.139 275.216 162.097 266.732 114.386Z" fill="url(#paint20_linear_1481_13119)"/>
<path d="M266.722 114.386C266.722 114.386 293.193 155.614 274.215 254.973C274.215 254.973 274.112 250.975 274.392 210.455C274.631 169.979 277.208 161.588 266.722 114.386Z" fill="#39B54A"/>
<path d="M147.314 149.75C147.314 149.75 216.744 232.887 273.154 255.543C273.154 255.543 262.68 240.37 235.502 219.792C208.324 199.213 175.832 177.452 147.314 149.75Z" fill="url(#paint21_linear_1481_13119)"/>
<path d="M147.324 149.766C147.324 149.766 222.417 233.499 273.149 255.526C273.149 255.526 259.739 244.918 232.565 224.346C205.39 203.774 175.839 177.46 147.324 149.766Z" fill="#39B54A"/>
<path d="M143 178.238C143 178.238 218.994 241.158 273.077 255.636C273.077 255.636 245.204 234.751 223.522 223.402C201.841 212.054 169.515 198.421 143 178.238Z" fill="url(#paint22_linear_1481_13119)"/>
<path d="M143 178.238C143 178.238 218.994 241.158 273.077 255.636C273.077 255.636 244.982 243.763 222.029 229.449C201.012 216.338 169.515 198.421 143 178.238Z" fill="#39B54A"/>
<path d="M136.727 196.141C136.727 196.141 227.959 259.125 272.927 256.079C272.927 256.079 256.48 241.532 220.41 231.195C184.339 220.857 174.477 217.187 136.727 196.141Z" fill="url(#paint23_linear_1481_13119)"/>
<path d="M136.727 196.141C136.727 196.141 227.959 259.125 272.927 256.079C272.927 256.079 260.83 250.566 227.537 240.178C190.508 228.617 174.477 217.187 136.727 196.141Z" fill="#39B54A"/>
<path d="M136.586 219.123C136.586 219.123 207.383 267.563 272.987 255.719C272.987 255.719 251.984 246.929 234.963 246.814C217.941 246.698 177.43 241.012 136.586 219.123Z" fill="url(#paint24_linear_1481_13119)"/>
<path d="M136.883 219.157C136.883 219.157 207.68 267.597 273.284 255.753C273.284 255.753 250.811 252.394 233.871 252.277C216.89 252.118 177.809 241.045 136.883 219.157Z" fill="#39B54A"/>
<path d="M132.352 254.582C132.352 254.582 189.634 274.812 272.893 255.845C272.893 255.845 269.545 251.519 230.924 252.58C192.343 253.598 177.961 262.554 132.352 254.582Z" fill="url(#paint25_linear_1481_13119)"/>
<path d="M132.352 254.58C132.352 254.58 178.849 277.591 273.262 255.793C273.262 255.793 269.447 255.734 230.825 256.795C192.204 257.856 177.543 264.667 132.352 254.58Z" fill="#39B54A"/>
<path d="M272.383 254.364C272.383 254.364 279.665 326.442 246.16 383.92C246.16 383.92 263.152 352.071 263.375 315.787C263.555 279.462 268.453 260.908 272.383 254.364Z" fill="url(#paint26_linear_1481_13119)"/>
<path d="M272.539 254.016C272.539 254.016 279.821 326.094 246.316 383.572C246.316 383.572 260.78 361.131 266.795 311.022C270.26 282.271 271.294 269.31 272.539 254.016Z" fill="#39B54A"/>
<path d="M272.679 254.941C272.679 254.941 210.072 281.639 141.852 288.383C141.852 288.383 195.491 272.377 230.038 261.297C252.06 254.245 272.679 254.941 272.679 254.941Z" fill="url(#paint27_linear_1481_13119)"/>
<path d="M273.008 254.847C273.008 254.847 216.169 279.497 141.852 288.295C141.852 288.295 184.834 277.447 231.21 265.198C248.909 260.556 273.008 254.847 273.008 254.847Z" fill="#39B54A"/>
<path d="M137.469 307.75C137.469 307.75 209.073 307.463 272.697 254.974C272.697 254.974 242.844 261.444 210.361 281.654C177.919 301.82 137.469 307.75 137.469 307.75Z" fill="url(#paint28_linear_1481_13119)"/>
<path d="M137.461 307.749C137.461 307.749 209.351 307.327 273.017 254.88C273.017 254.88 243.754 270.193 215.3 284.454C181.201 301.411 137.461 307.749 137.461 307.749Z" fill="#39B54A"/>
<path d="M158.523 333.15C158.523 333.15 218.516 321.017 273.089 254.593C273.089 254.593 246.97 266.413 229.225 284.577C211.439 302.698 192.853 320.011 158.523 333.15Z" fill="url(#paint29_linear_1481_13119)"/>
<path d="M158.523 333.15C158.523 333.15 218.516 321.017 273.089 254.593C273.089 254.593 250.626 270.028 232.84 288.149C215.053 306.27 192.853 320.011 158.523 333.15Z" fill="#39B54A"/>
<path d="M178.594 346.92C178.594 346.92 252.215 311.216 272.809 254.518C272.809 254.518 253.469 269 232.704 297.732C211.856 326.465 178.594 346.92 178.594 346.92Z" fill="url(#paint30_linear_1481_13119)"/>
<path d="M178.797 346.614C178.797 346.614 252.418 310.91 273.012 254.211C273.012 254.211 263.597 266.868 243.002 293.298C215.378 328.657 178.797 346.614 178.797 346.614Z" fill="#39B54A"/>
<path d="M216.803 370.762C216.803 370.762 261.961 314.342 272.538 254.402C272.538 254.402 258.753 270.662 247.39 304.356C236.029 338.136 223.665 360.686 216.803 370.762Z" fill="url(#paint31_linear_1481_13119)"/>
<path d="M216.92 370.458C216.92 370.458 262.079 314.038 272.655 254.098C272.655 254.098 263.376 275.856 251.783 305.401C238.758 338.433 223.74 360.34 216.92 370.458Z" fill="#39B54A"/>
<defs>
<linearGradient id="paint0_linear_1481_13119" x1="227.632" y1="238.04" x2="220.004" y2="269.974" gradientUnits="userSpaceOnUse">
<stop stop-color="#54B948"/>
<stop offset="0.3764" stop-color="#00A651"/>
<stop offset="1" stop-color="#005826"/>
</linearGradient>
<linearGradient id="paint1_linear_1481_13119" x1="205.508" y1="229.656" x2="198.118" y2="260.598" gradientUnits="userSpaceOnUse">
<stop stop-color="#54B948"/>
<stop offset="0.3764" stop-color="#00A651"/>
<stop offset="1" stop-color="#005826"/>
</linearGradient>
<linearGradient id="paint2_linear_1481_13119" x1="192.031" y1="218.433" x2="179.705" y2="247.438" gradientUnits="userSpaceOnUse">
<stop stop-color="#54B948"/>
<stop offset="0.3764" stop-color="#00A651"/>
<stop offset="1" stop-color="#005826"/>
</linearGradient>
<linearGradient id="paint3_linear_1481_13119" x1="161.796" y1="204.478" x2="146.46" y2="240.554" gradientUnits="userSpaceOnUse">
<stop stop-color="#54B948"/>
<stop offset="0.3764" stop-color="#00A651"/>
<stop offset="1" stop-color="#005826"/>
</linearGradient>
<linearGradient id="paint4_linear_1481_13119" x1="156.16" y1="187.405" x2="130.89" y2="216.309" gradientUnits="userSpaceOnUse">
<stop stop-color="#54B948"/>
<stop offset="0.3764" stop-color="#00A651"/>
<stop offset="1" stop-color="#005826"/>
</linearGradient>
<linearGradient id="paint5_linear_1481_13119" x1="133.9" y1="170.84" x2="116.303" y2="191.021" gradientUnits="userSpaceOnUse">
<stop stop-color="#54B948"/>
<stop offset="0.3764" stop-color="#00A651"/>
<stop offset="1" stop-color="#005826"/>
</linearGradient>
<linearGradient id="paint6_linear_1481_13119" x1="121.463" y1="146.057" x2="98.915" y2="159.741" gradientUnits="userSpaceOnUse">
<stop stop-color="#54B948"/>
<stop offset="0.3764" stop-color="#00A651"/>
<stop offset="1" stop-color="#005826"/>
</linearGradient>
<linearGradient id="paint7_linear_1481_13119" x1="237.819" y1="223.394" x2="255.546" y2="198.212" gradientUnits="userSpaceOnUse">
<stop stop-color="#54B948"/>
<stop offset="0.3764" stop-color="#00A651"/>
<stop offset="1" stop-color="#005826"/>
</linearGradient>
<linearGradient id="paint8_linear_1481_13119" x1="223.989" y1="220.797" x2="238.992" y2="199.465" gradientUnits="userSpaceOnUse">
<stop stop-color="#54B948"/>
<stop offset="0.3764" stop-color="#00A651"/>
<stop offset="1" stop-color="#005826"/>
</linearGradient>
<linearGradient id="paint9_linear_1481_13119" x1="204.66" y1="206.988" x2="222.453" y2="187.452" gradientUnits="userSpaceOnUse">
<stop stop-color="#54B948"/>
<stop offset="0.3764" stop-color="#00A651"/>
<stop offset="1" stop-color="#005826"/>
</linearGradient>
<linearGradient id="paint10_linear_1481_13119" x1="188.896" y1="201.04" x2="206.688" y2="181.505" gradientUnits="userSpaceOnUse">
<stop stop-color="#54B948"/>
<stop offset="0.3764" stop-color="#00A651"/>
<stop offset="1" stop-color="#005826"/>
</linearGradient>
<linearGradient id="paint11_linear_1481_13119" x1="167.049" y1="189.615" x2="184.842" y2="170.08" gradientUnits="userSpaceOnUse">
<stop stop-color="#54B948"/>
<stop offset="0.3764" stop-color="#00A651"/>
<stop offset="1" stop-color="#005826"/>
</linearGradient>
<linearGradient id="paint12_linear_1481_13119" x1="142.321" y1="175.041" x2="160.713" y2="154.86" gradientUnits="userSpaceOnUse">
<stop stop-color="#54B948"/>
<stop offset="0.3764" stop-color="#00A651"/>
<stop offset="1" stop-color="#005826"/>
</linearGradient>
<linearGradient id="paint13_linear_1481_13119" x1="123.137" y1="161.249" x2="139.771" y2="142.997" gradientUnits="userSpaceOnUse">
<stop stop-color="#54B948"/>
<stop offset="0.3764" stop-color="#00A651"/>
<stop offset="1" stop-color="#005826"/>
</linearGradient>
<linearGradient id="paint14_linear_1481_13119" x1="113.223" y1="168.618" x2="332.978" y2="259.066" gradientUnits="userSpaceOnUse">
<stop stop-color="#54B948"/>
<stop offset="0.3764" stop-color="#00A651"/>
<stop offset="1" stop-color="#005826"/>
</linearGradient>
<linearGradient id="paint15_linear_1481_13119" x1="204.834" y1="232.828" x2="229.82" y2="156.292" gradientUnits="userSpaceOnUse">
<stop stop-color="#54B948"/>
<stop offset="0.3764" stop-color="#00A651"/>
<stop offset="1" stop-color="#005826"/>
</linearGradient>
<linearGradient id="paint16_linear_1481_13119" x1="229.053" y1="184.379" x2="221.255" y2="190.303" gradientUnits="userSpaceOnUse">
<stop stop-color="#54B948"/>
<stop offset="0.3764" stop-color="#00A651"/>
<stop offset="1" stop-color="#005826"/>
</linearGradient>
<linearGradient id="paint17_linear_1481_13119" x1="249.508" y1="182.787" x2="220.826" y2="192.387" gradientUnits="userSpaceOnUse">
<stop stop-color="#54B948"/>
<stop offset="0.3764" stop-color="#00A651"/>
<stop offset="1" stop-color="#005826"/>
</linearGradient>
<linearGradient id="paint18_linear_1481_13119" x1="252.17" y1="179.402" x2="235.434" y2="188.837" gradientUnits="userSpaceOnUse">
<stop stop-color="#54B948"/>
<stop offset="0.3764" stop-color="#00A651"/>
<stop offset="1" stop-color="#005826"/>
</linearGradient>
<linearGradient id="paint19_linear_1481_13119" x1="272.531" y1="172.252" x2="237.427" y2="193.272" gradientUnits="userSpaceOnUse">
<stop stop-color="#54B948"/>
<stop offset="0.3764" stop-color="#00A651"/>
<stop offset="1" stop-color="#005826"/>
</linearGradient>
<linearGradient id="paint20_linear_1481_13119" x1="285.96" y1="179.708" x2="255.21" y2="188.359" gradientUnits="userSpaceOnUse">
<stop stop-color="#54B948"/>
<stop offset="0.3764" stop-color="#00A651"/>
<stop offset="1" stop-color="#005826"/>
</linearGradient>
<linearGradient id="paint21_linear_1481_13119" x1="205.021" y1="209.557" x2="212.396" y2="200.57" gradientUnits="userSpaceOnUse">
<stop stop-color="#54B948"/>
<stop offset="0.3764" stop-color="#00A651"/>
<stop offset="1" stop-color="#005826"/>
</linearGradient>
<linearGradient id="paint22_linear_1481_13119" x1="203.338" y1="231.957" x2="213.48" y2="202.455" gradientUnits="userSpaceOnUse">
<stop stop-color="#54B948"/>
<stop offset="0.3764" stop-color="#00A651"/>
<stop offset="1" stop-color="#005826"/>
</linearGradient>
<linearGradient id="paint23_linear_1481_13119" x1="200.09" y1="234.912" x2="210.149" y2="217.9" gradientUnits="userSpaceOnUse">
<stop stop-color="#54B948"/>
<stop offset="0.3764" stop-color="#00A651"/>
<stop offset="1" stop-color="#005826"/>
</linearGradient>
<linearGradient id="paint24_linear_1481_13119" x1="194.321" y1="255.583" x2="216.596" y2="220.228" gradientUnits="userSpaceOnUse">
<stop stop-color="#54B948"/>
<stop offset="0.3764" stop-color="#00A651"/>
<stop offset="1" stop-color="#005826"/>
</linearGradient>
<linearGradient id="paint25_linear_1481_13119" x1="197.823" y1="273.5" x2="208.361" y2="236.852" gradientUnits="userSpaceOnUse">
<stop stop-color="#54B948"/>
<stop offset="0.3764" stop-color="#00A651"/>
<stop offset="1" stop-color="#005826"/>
</linearGradient>
<linearGradient id="paint26_linear_1481_13119" x1="284.296" y1="352.522" x2="231.323" y2="288.206" gradientUnits="userSpaceOnUse">
<stop stop-color="#54B948"/>
<stop offset="0.3764" stop-color="#00A651"/>
<stop offset="1" stop-color="#005826"/>
</linearGradient>
<linearGradient id="paint27_linear_1481_13119" x1="194.056" y1="308.723" x2="222.674" y2="235.394" gradientUnits="userSpaceOnUse">
<stop stop-color="#54B948"/>
<stop offset="0.3764" stop-color="#00A651"/>
<stop offset="1" stop-color="#005826"/>
</linearGradient>
<linearGradient id="paint28_linear_1481_13119" x1="203.539" y1="311.405" x2="206.876" y2="251.304" gradientUnits="userSpaceOnUse">
<stop stop-color="#54B948"/>
<stop offset="0.3764" stop-color="#00A651"/>
<stop offset="1" stop-color="#005826"/>
</linearGradient>
<linearGradient id="paint29_linear_1481_13119" x1="220.637" y1="320.895" x2="210.029" y2="266.923" gradientUnits="userSpaceOnUse">
<stop stop-color="#54B948"/>
<stop offset="0.3764" stop-color="#00A651"/>
<stop offset="1" stop-color="#005826"/>
</linearGradient>
<linearGradient id="paint30_linear_1481_13119" x1="234.439" y1="323.064" x2="215.598" y2="278.949" gradientUnits="userSpaceOnUse">
<stop stop-color="#54B948"/>
<stop offset="0.3764" stop-color="#00A651"/>
<stop offset="1" stop-color="#005826"/>
</linearGradient>
<linearGradient id="paint31_linear_1481_13119" x1="259.331" y1="328.884" x2="228.638" y2="297.748" gradientUnits="userSpaceOnUse">
<stop stop-color="#54B948"/>
<stop offset="0.3764" stop-color="#00A651"/>
<stop offset="1" stop-color="#005826"/>
</linearGradient>
</defs>
</svg>
