<svg xmlns="http://www.w3.org/2000/svg" width="22" height="39" viewBox="0 0 22 39" fill="none">
  <g style="mix-blend-mode:luminosity">
    <path d="M2.30579 4.9978C2.30579 4.9978 4.3022 4.48502 5.77269 4.66288C7.24318 4.84075 6.908 4.99918 7.41144 5.7507C7.91488 6.50222 7.54611 6.09492 6.96957 6.25012C6.39302 6.40532 7.10765 6.39541 7.72819 6.53723C8.34874 6.67906 9.05702 6.44067 9.52281 7.12364C9.98887 7.81655 10.5938 9.00269 10.5938 9.00269L5.45734 8.42959L3.34081 7.51411L2.30579 4.9978Z" fill="url(#paint0_linear_2788_22876)"/>
    <path d="M3.2725 7.10881C3.2725 7.10881 5.87747 7.59317 7.50924 7.78643C9.14101 7.9797 9.89192 7.98866 10.1703 8.35871C10.4487 8.72876 11.0104 9.64767 10.5386 9.39235C10.0668 9.13704 8.30919 8.91744 8.70226 9.2346C9.09505 9.54182 9.73152 9.61361 10.8715 10.1188C12.0115 10.624 12.0077 10.4849 12.44 11.2483C12.8812 12.0115 11.9825 11.5096 11.5478 11.3029C11.1042 11.0965 11.1736 11.3432 12.1733 11.9417C13.1729 12.5403 12.9724 12.0786 13.6016 13.1746C13.6016 13.1746 11.0471 12.5794 8.62388 11.8813C6.20955 11.1828 4.36166 9.6435 4.36166 9.6435L3.2725 7.10881Z" fill="url(#paint1_linear_2788_22876)"/>
    <path d="M4.51726 9.53776C4.51726 9.53776 6.46254 11.0446 9.08704 11.588C11.7205 12.1312 12.0907 12.2701 12.779 12.5989C13.467 12.9178 13.467 12.9178 13.7124 13.3882C13.9576 13.8486 13.4665 13.5442 12.9663 13.23C12.4661 12.9158 10.5132 12.4233 9.81417 12.6713C9.12402 12.9192 9.58162 12.986 10.1611 13.2582C10.7317 13.5307 12.4299 13.5431 13.9863 14.8818C15.5426 16.2204 15.8125 17.8931 15.8125 17.8931C15.8125 17.8931 13.5181 15.7199 10.4774 15.6354C7.43669 15.5509 5.98098 12.6884 5.98098 12.6884L4.51726 9.53776Z" fill="url(#paint2_linear_2788_22876)"/>
    <path d="M6.44758 13.2035C6.44758 13.2035 7.07207 14.1306 9.43623 14.6316C11.8004 15.1326 14.2195 15.6817 14.8909 16.3689C15.5621 17.0462 15.9728 17.9991 15.7772 18.0344C15.5816 18.0697 13.0001 16.501 12.3324 16.5891C11.6646 16.6773 11.7399 16.8144 12.5283 17.21C13.3171 17.6156 15.1935 17.9313 15.947 18.6759C16.7004 19.4205 17.0312 20.7136 17.0312 20.7136L13.388 19.2043L9.2258 19.2802C9.2258 19.2802 8.63989 18.1333 8.02295 17.1562C7.40601 16.1792 6.44758 13.2035 6.44758 13.2035Z" fill="url(#paint3_linear_2788_22876)"/>
    <path d="M8.27116 17.4273C8.27116 17.4273 9.29638 18.3035 11.9293 18.5087C14.5626 18.7238 15.9449 18.9439 16.587 19.8606C17.238 20.777 17.1639 21.0077 16.5094 20.6084C15.8549 20.209 11.1062 19.4363 11.2472 20.009C11.3885 20.5916 12.5254 20.3413 14.6108 20.7804C16.6962 21.2196 17.4641 21.1982 18.3213 23.1031C18.3213 23.1031 14.8979 23.7152 12.9026 23.3034C10.8981 22.8819 11.0787 23.5926 10.1761 22.3054C9.28243 21.0179 8.27116 17.4273 8.27116 17.4273Z" fill="url(#paint4_linear_2788_22876)"/>
    <path d="M10.1014 21.7507C10.1014 21.7507 10.7067 22.3105 13.9817 22.468C17.2657 22.6254 17.9258 22.2591 18.457 23.3677C18.9793 24.4766 19.2412 24.8968 18.335 24.4448C17.4286 23.9828 14.5612 23.7046 14.8131 24.0853C15.0647 24.4561 17.9176 24.2178 18.8024 25.5055C19.6871 26.7932 19.9688 28.2468 19.9688 28.2468C19.9688 28.2468 18.2584 26.8329 15.1504 26.8994L12.522 26.535C12.522 26.535 11.8396 26.0966 10.9749 23.9235C10.1014 21.7507 10.1014 21.7507 10.1014 21.7507Z" fill="url(#paint5_linear_2788_22876)"/>
    <path d="M11.9329 25.9645C11.9329 25.9645 12.8366 26.3271 15.3761 26.3858C17.9157 26.4445 19.0893 26.5511 19.6164 27.5107C20.1435 28.4704 20.1866 29.0557 19.82 28.7279C19.4534 28.4001 16.631 28.1305 17.2869 28.5795C17.9431 29.0385 19.3606 28.9196 19.89 29.6406C20.4194 30.3615 20.5859 31.53 20.5859 31.53C20.5859 31.53 15.7904 31.3252 14.3823 29.8532C12.9738 28.3713 11.9329 25.9645 11.9329 25.9645Z" fill="url(#paint6_linear_2788_22876)"/>
    <path d="M14.2987 29.6372C14.2987 29.6372 17.8913 31.5754 20.4296 30.9482C20.4296 30.9482 20.8526 32.0201 20.3604 31.994C19.8682 31.9679 17.7623 31.758 18.4623 32.1859C19.1623 32.6138 20.5951 32.7231 20.9259 33.3701C21.2566 34.0171 21.6676 34.9799 21.1159 35.0648C20.5642 35.1498 20.522 35.5585 21.1441 36.0781C21.7662 36.5977 21.6249 36.9794 21.7812 38.4265C21.7812 38.4265 17.015 35.4174 14.2987 29.6372Z" fill="url(#paint7_linear_2788_22876)"/>
    <path d="M15.2829 36.6682C15.162 36.1744 14.7773 33.9085 15.397 34.9849C16.0259 36.0709 15.6895 36.5078 17.5405 37.192C19.3914 37.8763 19.3791 38.0754 19.507 37.8532C19.6348 37.6309 19.0728 36.7021 19.7524 37.3592C20.4319 38.0164 21.3803 38.3777 21.7656 38.4167C21.7656 38.4167 19.1469 36.4713 17.4769 34.261C15.8073 32.0606 14.0736 29.166 13.4151 28.2995C12.7568 27.4429 12.4153 33.8051 12.7948 34.5998C13.1743 35.3946 15.4231 37.2111 15.2829 36.6682Z" fill="url(#paint8_linear_2788_22876)"/>
    <path d="M10.0831 32.0718C10.0831 32.0718 11.1793 33.2542 11.4482 33.6046C11.7174 33.965 11.5615 32.8559 11.641 31.8595C11.7206 30.8631 12.0068 29.2645 12.2685 31.2853C12.5301 33.3061 12.2581 34.1289 12.8235 34.8588C13.3978 35.5885 13.3493 35.4507 13.6852 35.6402C14.0122 35.8299 13.6819 33.5923 13.908 31.7567C14.134 29.9212 14.367 29.9445 14.0513 29.1977C13.7357 28.4509 11.4936 24.9442 10.9648 23.9249C10.445 22.9055 10.0831 32.0718 10.0831 32.0718Z" fill="url(#paint9_linear_2788_22876)"/>
    <path d="M11.3148 24.4826C11.2091 24.2171 9.2506 19.3405 8.80074 18.5874C8.35088 17.8344 8.38537 24.5441 7.85998 26.2189C7.33432 27.8839 6.96775 27.556 7.30494 28.1133C7.7919 28.915 8.87914 30.4158 8.87897 30.0878C8.87879 29.7597 9.70463 23.7817 9.79795 25.2107C9.89127 26.6397 9.4428 30.4399 9.56845 31.1025C9.69409 31.7651 10.1787 32.1593 10.4278 32.4407C10.4278 32.4407 11.0568 30.3156 11.168 28.2049C11.2791 26.0941 11.6223 25.2594 11.3148 24.4826Z" fill="url(#paint10_linear_2788_22876)"/>
    <path d="M7.78227 16.3259C7.78227 16.3259 9.60823 19.3272 9.38257 20.8546C9.15692 22.3819 7.71734 28.7846 7.79126 28.872C7.96727 29.0957 7.00908 28.0586 6.9859 27.2242C6.96271 26.3897 7.28909 23.9847 7.10065 24.2782C6.9122 24.5718 6.8526 26.9296 6.58289 26.5494C6.31345 26.1791 5.95241 26.0499 5.69724 25.55C5.44207 25.0501 7.33028 16.1396 7.78227 16.3259Z" fill="url(#paint11_linear_2788_22876)"/>
    <path d="M2.41314 5.20382L4.25152 8.65221C4.25152 8.65221 3.61765 12.8553 1.79218 13.7311C1.79218 13.7311 1.64084 13.109 1.86538 12.5063C2.08991 11.9035 2.95178 9.47371 2.71191 8.23766C2.4631 7.00187 1.86579 10.2694 1.37238 9.55736C0.870048 8.84557 2.13036 4.67483 2.41314 5.20382Z" fill="url(#paint12_linear_2788_22876)"/>
    <path d="M7.6786 15.9634C7.6786 15.9634 6.42725 12.7373 5.95622 11.8655C5.48519 10.9938 3.759 19.3033 3.759 19.3033C3.759 19.3033 3.74913 20.5562 3.85729 20.9111C3.96545 21.266 4.27925 22.5895 4.38586 21.6023C4.42168 21.2831 4.61899 19.3788 5.10036 18.3713C5.58174 17.3637 5.60218 17.1345 5.07445 20.9767C4.547 24.8288 5.87073 25.8359 5.87073 25.8359C5.87073 25.8359 6.75778 20.4527 7.23953 19.137C7.72128 17.8213 8.06282 16.927 7.6786 15.9634Z" fill="url(#paint13_linear_2788_22876)"/>
    <path d="M4.24295 8.65061C4.24295 8.65061 3.53709 12.8358 1.7836 13.7295C1.7836 13.7295 1.87242 14.3534 2.40045 14.0603C2.92849 13.7673 1.97679 15.2154 2.08854 15.6994C2.20029 16.1835 2.60531 17.574 2.82082 17.2897C3.03633 17.0053 3.9274 13.0536 4.23238 13.0948C4.53735 13.1361 3.35687 16.3204 3.03768 18.0193C2.7185 19.7183 3.63296 20.4683 3.85076 20.9096C3.85076 20.9096 4.83067 16.6174 5.43993 14.4233C6.04919 12.2291 5.94076 11.8643 5.94076 11.8643L4.24295 8.65061Z" fill="url(#paint14_linear_2788_22876)"/>
    <path d="M1.45013 9.64333C1.45013 9.64333 2.58348 6.37087 2.80377 5.93725L2.31323 5.00643C2.31323 5.00643 0.731472 8.22176 1.01619 8.82029C1.30063 9.40889 1.4088 9.76378 1.45013 9.64333Z" fill="url(#paint15_linear_2788_22876)"/>
    <path d="M21.7812 38.4265C20.0678 37.2215 18.991 36.0982 17.8808 34.7372C16.7617 33.3764 15.7551 31.8833 14.8099 30.3487C13.8647 28.8142 12.7591 27.294 11.9013 25.6874C11.0434 24.0808 10.3806 22.4191 9.57556 20.7812L9.04884 19.5133C8.84973 19.1013 8.65062 18.6893 8.46044 18.277L7.88097 17.0405L7.30151 15.8039L6.15123 13.3207C5.76194 12.4964 5.38157 11.6718 4.99229 10.8476C4.21371 9.19899 3.42648 7.5606 2.62194 5.94258C2.42311 5.54049 2.21507 5.12872 2.01624 4.72664C1.80848 4.32481 1.60072 3.92297 1.39295 3.52113C1.18519 3.1193 0.968505 2.71771 0.761019 2.32581C0.657276 2.12986 0.544602 1.93415 0.431931 1.73845L0.263194 1.45483C0.207132 1.36692 0.150524 1.25913 0.103945 1.19083L0.0947423 1.18114C-0.0268598 0.985689 -0.0248365 0.737097 0.106069 0.6241C0.236975 0.511107 0.43535 0.575183 0.565881 0.77039L0.566157 0.780328C0.640904 0.897548 0.688311 0.99565 0.753576 1.09326L0.922865 1.39674C1.03581 1.60238 1.13956 1.79833 1.2525 2.00396C1.4692 2.40555 1.67723 2.81732 1.88527 3.22909C2.09331 3.64086 2.29214 4.04294 2.50018 4.45471C2.69929 4.86673 2.8984 5.27875 3.09751 5.69076C3.88501 7.33908 4.65466 8.9879 5.41593 10.6568C5.79657 11.4913 6.16799 12.3161 6.5397 13.1508L7.65454 15.645L8.20749 16.8922L8.76938 18.1392C8.95956 18.5515 9.14974 18.9637 9.33992 19.376L9.84878 20.6443C10.6274 22.2929 11.2723 23.9551 12.0947 25.5727C12.926 27.1899 14.0049 28.7109 14.9325 30.2559C15.8512 31.8011 16.8315 33.3148 17.933 34.686C19.0253 36.0475 20.0999 37.0913 21.7812 38.4265Z" fill="url(#paint16_linear_2788_22876)"/>
  </g>
  <defs>
    <linearGradient id="paint0_linear_2788_22876" x1="10.6947" y1="10.3802" x2="1.12879" y2="4.65737" gradientUnits="userSpaceOnUse">
      <stop stop-color="#54B948"/>
      <stop offset="0.3764" stop-color="#00A651"/>
      <stop offset="1" stop-color="#005826"/>
    </linearGradient>
    <linearGradient id="paint1_linear_2788_22876" x1="14.2236" y1="14.1523" x2="1.72765" y2="6.67662" gradientUnits="userSpaceOnUse">
      <stop stop-color="#54B948"/>
      <stop offset="0.3764" stop-color="#00A651"/>
      <stop offset="1" stop-color="#005826"/>
    </linearGradient>
    <linearGradient id="paint2_linear_2788_22876" x1="16.8824" y1="18.4824" x2="2.2782" y2="9.7454" gradientUnits="userSpaceOnUse">
      <stop stop-color="#54B948"/>
      <stop offset="0.3764" stop-color="#00A651"/>
      <stop offset="1" stop-color="#005826"/>
    </linearGradient>
    <linearGradient id="paint3_linear_2788_22876" x1="17.6113" y1="21.9377" x2="4.10632" y2="13.8584" gradientUnits="userSpaceOnUse">
      <stop stop-color="#54B948"/>
      <stop offset="0.3764" stop-color="#00A651"/>
      <stop offset="1" stop-color="#005826"/>
    </linearGradient>
    <linearGradient id="paint4_linear_2788_22876" x1="18.4235" y1="24.8953" x2="6.3742" y2="17.6868" gradientUnits="userSpaceOnUse">
      <stop stop-color="#54B948"/>
      <stop offset="0.3764" stop-color="#00A651"/>
      <stop offset="1" stop-color="#005826"/>
    </linearGradient>
    <linearGradient id="paint5_linear_2788_22876" x1="20.822" y1="28.7968" x2="8.5102" y2="21.4313" gradientUnits="userSpaceOnUse">
      <stop stop-color="#54B948"/>
      <stop offset="0.3764" stop-color="#00A651"/>
      <stop offset="1" stop-color="#005826"/>
    </linearGradient>
    <linearGradient id="paint6_linear_2788_22876" x1="21.4037" y1="31.8762" x2="10.6808" y2="25.4612" gradientUnits="userSpaceOnUse">
      <stop stop-color="#54B948"/>
      <stop offset="0.3764" stop-color="#00A651"/>
      <stop offset="1" stop-color="#005826"/>
    </linearGradient>
    <linearGradient id="paint7_linear_2788_22876" x1="22.6079" y1="35.8125" x2="13.0696" y2="30.1191" gradientUnits="userSpaceOnUse">
      <stop stop-color="#54B948"/>
      <stop offset="0.3764" stop-color="#00A651"/>
      <stop offset="1" stop-color="#005826"/>
    </linearGradient>
    <linearGradient id="paint8_linear_2788_22876" x1="17.1122" y1="40.7108" x2="17.4494" y2="29.5569" gradientUnits="userSpaceOnUse">
      <stop stop-color="#54B948"/>
      <stop offset="0.3764" stop-color="#00A651"/>
      <stop offset="1" stop-color="#005826"/>
    </linearGradient>
    <linearGradient id="paint9_linear_2788_22876" x1="11.9987" y1="38.4614" x2="12.3964" y2="25.3075" gradientUnits="userSpaceOnUse">
      <stop stop-color="#54B948"/>
      <stop offset="0.3764" stop-color="#00A651"/>
      <stop offset="1" stop-color="#005826"/>
    </linearGradient>
    <linearGradient id="paint10_linear_2788_22876" x1="9.1276" y1="35.7819" x2="9.5977" y2="20.2317" gradientUnits="userSpaceOnUse">
      <stop stop-color="#54B948"/>
      <stop offset="0.3764" stop-color="#00A651"/>
      <stop offset="1" stop-color="#005826"/>
    </linearGradient>
    <linearGradient id="paint11_linear_2788_22876" x1="7.36588" y1="31.9641" x2="7.79268" y2="17.8458" gradientUnits="userSpaceOnUse">
      <stop stop-color="#54B948"/>
      <stop offset="0.3764" stop-color="#00A651"/>
      <stop offset="1" stop-color="#005826"/>
    </linearGradient>
    <linearGradient id="paint12_linear_2788_22876" x1="0.52543" y1="9.27528" x2="4.71498" y2="9.61793" gradientUnits="userSpaceOnUse">
      <stop stop-color="#54B948"/>
      <stop offset="0.3764" stop-color="#00A651"/>
      <stop offset="1" stop-color="#005826"/>
    </linearGradient>
    <linearGradient id="paint13_linear_2788_22876" x1="7.50482" y1="24.5218" x2="3.68365" y2="13.469" gradientUnits="userSpaceOnUse">
      <stop stop-color="#54B948"/>
      <stop offset="0.3764" stop-color="#00A651"/>
      <stop offset="1" stop-color="#005826"/>
    </linearGradient>
    <linearGradient id="paint14_linear_2788_22876" x1="5.64152" y1="19.6361" x2="2.34613" y2="10.1042" gradientUnits="userSpaceOnUse">
      <stop stop-color="#54B948"/>
      <stop offset="0.3764" stop-color="#00A651"/>
      <stop offset="1" stop-color="#005826"/>
    </linearGradient>
    <linearGradient id="paint15_linear_2788_22876" x1="3.15138" y1="6.48671" x2="-0.357459" y2="8.35346" gradientUnits="userSpaceOnUse">
      <stop stop-color="#54B948"/>
      <stop offset="0.3764" stop-color="#00A651"/>
      <stop offset="1" stop-color="#005826"/>
    </linearGradient>
    <linearGradient id="paint16_linear_2788_22876" x1="26.641" y1="31.0738" x2="-6.31776" y2="11.3561" gradientUnits="userSpaceOnUse">
      <stop stop-color="#54B948"/>
      <stop offset="0.3764" stop-color="#00A651"/>
      <stop offset="1" stop-color="#005826"/>
    </linearGradient>
  </defs>
</svg>