<svg width="13" height="14" viewBox="0 0 13 14" fill="none" xmlns="http://www.w3.org/2000/svg">
<g clip-path="url(#clip0_3191_11686)">
<path d="M2.03593 5.67614C2.16798 5.97033 2.4981 6.55871 2.4981 6.55871L6.27802 0L2.59714 2.69963C2.38256 2.85538 2.20099 3.06304 2.06894 3.30532C1.72231 4.04944 1.72231 4.91471 2.03593 5.67614Z" fill="url(#paint0_linear_3191_11686)"/>
<path d="M0.551804 7.8219C0.634335 9.08519 1.24506 10.262 2.20242 11.0234L6.27945 13.9999C6.27945 13.9999 3.72099 10.1408 1.57519 6.29904C1.36061 5.90101 1.21205 5.45107 1.14603 4.98383C1.11301 4.77617 1.11301 4.5685 1.14603 4.36084C1.09651 4.46467 0.980965 4.68964 0.980965 4.68964C0.766384 5.15688 0.617828 5.65874 0.535297 6.1779C0.485779 6.73167 0.485779 7.28544 0.551804 7.8219Z" fill="#A0A8D4"/>
<path d="M10.953 8.34131C10.821 8.04712 10.4909 7.45874 10.4909 7.45874L6.71094 14.0001L10.4083 11.3178C10.6229 11.1621 10.8045 10.9544 10.9365 10.7121C11.2666 9.96801 11.2832 9.10275 10.953 8.34131Z" fill="url(#paint1_linear_3191_11686)"/>
<path d="M12.4542 6.178C12.3717 4.91471 11.761 3.73795 10.8036 2.97651L6.72656 0C6.72656 0 9.28502 3.85909 11.4308 7.70086C11.6454 8.09889 11.794 8.54883 11.86 9.01607C11.893 9.22373 11.893 9.4314 11.86 9.63906C11.9095 9.53523 12.0251 9.31026 12.0251 9.31026C12.2396 8.84302 12.3882 8.34116 12.4707 7.83931C12.5037 7.26823 12.5037 6.73177 12.4542 6.178Z" fill="#A0A8D4"/>
<path d="M2.07037 3.30532C2.20242 3.06304 2.36748 2.85538 2.59857 2.69963L6.27945 0L2.49953 6.54141C2.49953 6.54141 2.16941 5.95303 2.03736 5.65884C1.72374 4.91471 1.72374 4.04944 2.07037 3.30532ZM0.551804 7.822C0.634335 9.08529 1.24506 10.2621 2.20242 11.0235L6.27945 14C6.27945 14 3.72099 10.1409 1.57519 6.29913C1.36061 5.90111 1.21205 5.45117 1.14603 4.98393C1.11301 4.77627 1.11301 4.5686 1.14603 4.36094C1.09651 4.46477 0.980965 4.68974 0.980965 4.68974C0.766384 5.15698 0.617828 5.65884 0.535297 6.178C0.485779 6.73177 0.485779 7.28554 0.551804 7.822ZM10.9507 8.34116C10.8187 8.04697 10.4885 7.45859 10.4885 7.45859L6.70861 14L10.406 11.3177C10.6206 11.1619 10.8021 10.9543 10.9342 10.712C11.2643 9.96786 11.2808 9.1026 10.9507 8.34116ZM12.4363 6.1953C12.3537 4.93201 11.743 3.75525 10.7856 2.99382L6.72512 0C6.72512 0 9.28358 3.85909 11.4294 7.70086C11.644 8.09889 11.7925 8.54883 11.8585 9.01607C11.8916 9.22373 11.8916 9.4314 11.8585 9.63906C11.9081 9.53523 12.0236 9.31026 12.0236 9.31026C12.2382 8.84302 12.3867 8.34116 12.4693 7.83931C12.5023 7.26823 12.5023 6.73177 12.4363 6.1953Z" fill="url(#paint2_linear_3191_11686)"/>
</g>
<defs>
<linearGradient id="paint0_linear_3191_11686" x1="6.44995" y1="0.164072" x2="1.35165" y2="5.43578" gradientUnits="userSpaceOnUse">
<stop offset="0.58" stop-color="#A0A8D4"/>
<stop offset="0.73" stop-color="#8791C7"/>
<stop offset="0.91" stop-color="#6470B4"/>
</linearGradient>
<linearGradient id="paint1_linear_3191_11686" x1="6.55555" y1="13.8476" x2="11.6519" y2="8.57973" gradientUnits="userSpaceOnUse">
<stop offset="0.58" stop-color="#A0A8D4"/>
<stop offset="0.73" stop-color="#8791C7"/>
<stop offset="0.91" stop-color="#6470B4"/>
</linearGradient>
<linearGradient id="paint2_linear_3191_11686" x1="6.49776" y1="-0.069204" x2="6.49776" y2="14.0519" gradientUnits="userSpaceOnUse">
<stop stop-color="#513EFF"/>
<stop offset="0.18" stop-color="#5157FF"/>
<stop offset="0.57" stop-color="#5298FF"/>
<stop offset="1" stop-color="#52E5FF"/>
</linearGradient>
<clipPath id="clip0_3191_11686">
<rect width="12" height="14" fill="white" transform="translate(0.5)"/>
</clipPath>
</defs>
</svg>
