<svg width="36" height="36" viewBox="0 0 36 36" fill="none" xmlns="http://www.w3.org/2000/svg">
<g id="Symbol Starknet">
<path id="Vector" d="M22.5634 4.88623C29.9127 7.31917 33.9044 15.2057 31.4997 22.542C29.0865 29.9044 21.1337 33.9205 13.8013 31.48C6.46229 29.0378 2.47662 21.1274 4.89725 13.8065C7.32231 6.47026 15.2524 2.46645 22.5634 4.88623Z" fill="#29296A"/>
<g id="Group">
<path id="Vector_2" d="M9.97042 13.7952C11.412 13.967 12.5309 14.5815 13.2949 15.6216C13.7634 16.2594 14.1812 16.931 14.5367 17.617C15.3521 19.1907 16.2869 20.8467 17.5973 22.2963C18.7065 23.5245 19.887 24.416 21.2062 25.0236C23.8737 26.2524 26.9706 25.6121 28.9107 23.4315C28.9818 23.3516 29.167 23.1236 29.3517 22.8895C29.5404 22.6507 29.7117 22.3936 29.8618 22.1259L30.2811 21.3757C29.4005 21.4532 28.5636 21.5366 27.7271 21.586C26.8801 21.6361 26.0423 21.5668 25.2428 21.2376C24.4612 20.916 23.8619 20.3548 23.3724 19.7023C22.4214 18.4347 21.5089 17.1371 20.6114 15.8306C19.7764 14.6153 18.9912 13.3672 17.872 12.3764C16.7325 11.3669 15.4541 10.6149 13.95 10.3296C11.7268 9.90775 9.73717 10.447 8.01683 11.9206C7.36091 12.4828 6.81167 13.1352 6.45539 13.9294C7.50075 13.7739 8.71883 13.6461 9.97096 13.7954L9.97042 13.7952Z" fill="#FAFAFA"/>
<path id="Vector_3" d="M21.7617 25.8492C21.4951 25.7618 21.2318 25.6587 20.9711 25.5385C19.5809 24.8987 18.3406 23.9624 17.1789 22.6767C15.8254 21.1794 14.8682 19.4854 14.0357 17.878C13.6938 17.218 13.2916 16.5719 12.8405 15.9578C12.1637 15.0363 11.204 14.513 9.9066 14.3591C8.90619 14.2401 7.91738 14.3091 7.02709 14.4237C7.12874 14.4834 7.22915 14.5451 7.3249 14.6137C8.2592 15.2823 8.97027 16.1671 9.58969 17.1154C10.5326 18.5598 11.4137 20.0445 12.352 21.4922C13.8454 23.7988 15.7038 25.713 18.2792 26.8198C19.9899 27.555 21.7644 27.7602 23.5854 27.353C25.3217 26.9642 26.7606 26.1406 27.9744 24.9949C26.1635 26.2138 23.8844 26.5448 21.7623 25.8494L21.7617 25.8492Z" fill="#EC5D2C"/>
</g>
<path id="Vector_4" d="M27.221 12.639C27.2636 12.791 27.308 12.8806 27.3103 12.9707C27.3171 13.285 27.3149 13.5994 27.3061 13.9139C27.2971 14.238 27.4228 14.4845 27.6906 14.6671C27.9581 14.8489 28.2236 15.0349 28.481 15.2309C28.5449 15.2795 28.5733 15.374 28.6177 15.4474C28.5346 15.4885 28.4535 15.5604 28.368 15.5648C28.0822 15.5797 27.7937 15.5848 27.5087 15.5664C27.1073 15.5405 26.8137 15.6838 26.6014 16.0295C26.4469 16.2813 26.2672 16.5183 26.0852 16.7515C26.0379 16.8116 25.9395 16.8315 25.8638 16.8703C25.8264 16.7939 25.7604 16.7188 25.7575 16.6417C25.7452 16.3184 25.7445 15.9947 25.7533 15.6711C25.7624 15.3465 25.6405 15.1013 25.3686 14.9203C25.099 14.7414 24.8338 14.5543 24.5769 14.3584C24.513 14.3099 24.4874 14.2121 24.4438 14.1366C24.5272 14.0943 24.6089 14.0191 24.694 14.0157C25.0077 14.0033 25.3228 14.0088 25.6372 14.0182C25.9712 14.028 26.2258 13.905 26.4117 13.6215C26.5837 13.3585 26.7681 13.1033 26.9568 12.8519C27.0107 12.7807 27.0994 12.7354 27.2215 12.6392L27.221 12.639Z" fill="#FAFAFA"/>
<path id="Vector_5" d="M9.41421 22.7369C9.28355 23.1448 8.87327 23.3566 8.46739 23.2272C8.04688 23.093 7.83141 22.6737 7.97051 22.2602C8.10589 21.8581 8.51909 21.6538 8.9277 21.7877C9.33685 21.9218 9.54541 22.3292 9.41475 22.7371L9.41421 22.7369Z" fill="#FAFAFA"/>
</g>
</svg>
