<svg viewBox="0 0 160 160" width="160" height="160" xmlns="http://www.w3.org/2000/svg">
<defs><clipPath id="hexagon-clip-156">
<path d="M251.6 17.34l63.53 110.03c5.72 9.9 5.72 22.1 0 32L251.6 269.4c-5.7 9.9-16.27 16-27.7 16H96.83c-11.43 0-22-6.1-27.7-16L5.6 159.37c-5.7-9.9-5.7-22.1 0-32L69.14 17.34c5.72-9.9 16.28-16 27.7-16H223.9c11.43 0 22 6.1 27.7 16z" transform="scale(0.5) translate(0, 16)"></path>
</clipPath></defs>
<g clip-path="url(#hexagon-clip-156)">
<g color="#0582CA" fill="#FA7268">
<rect fill="#E9B213" x="0" y="0" width="160" height="160"></rect>
<circle cx="80" cy="80" r="40" fill="#0582CA"></circle>
<g opacity=".1" fill="#010101"><path d="M119.21,80a39.46,39.46,0,0,1-67.13,28.13c10.36,2.33,36,3,49.82-14.28,10.39-12.47,8.31-33.23,4.16-43.26A39.35,39.35,0,0,1,119.21,80Z"></path></g>
<path xmlns="http://www.w3.org/2000/svg" d="M43.8 62.3c-2.8.7-3.5-1.6.2-5.3a55.4 55.4 0 0139-14c24 1 31 10 31 10s4 5-2.4 3.7c0 0-31-14.1-67.8 5.6z" fill="#743a4b"></path><path xmlns="http://www.w3.org/2000/svg" d="M45.5 60.2A48.2 48.2 0 0168 50c18-4 39.1 1.6 39.1 1.6s5.9 1.1 5.9 3.3-3 .2-3 .2c-24.3-5.3-47.7-5.6-66 8 0-.1-1-.7 1.5-2.9z" opacity=".2"></path><ellipse xmlns="http://www.w3.org/2000/svg" transform="rotate(-23.9 94 37.3)" cx="94" cy="37.3" rx="14.8" ry="16.9" fill="#c1c1c1"></ellipse><ellipse xmlns="http://www.w3.org/2000/svg" transform="rotate(-24.3 94.7 36.2)" cx="94.7" cy="36.2" rx="14.1" ry="16.2" fill="#efefef"></ellipse><ellipse xmlns="http://www.w3.org/2000/svg" transform="rotate(-17.1 95.4 36.7)" cx="95.4" cy="36.7" rx="11.5" ry="13" fill="#fff"></ellipse><ellipse xmlns="http://www.w3.org/2000/svg" transform="rotate(-17.1 96.1 36.5)" cx="96.1" cy="36.5" rx="3.5" ry="4"></ellipse><path xmlns="http://www.w3.org/2000/svg" d="M93.2 34.2a7 7 0 013.6 2.2c1.5 1.7.8 4-1.2 3.9 3.4.7 4.6-2.7 3.3-5.9 0 0-2.5-4.1-5.7-.2z" fill="#010101" opacity=".3"></path>
<path xmlns="http://www.w3.org/2000/svg" d="M124.6 80.7s20 .3 18.6-12.5c0 0 9.6 11.1 1 20.9s-27.3 6.1-27.3 6.1l7.7-14.5z" fill="#fff"></path><path xmlns="http://www.w3.org/2000/svg" d="M143.2 68.2c.3 13.7-20.2 12.1-20.2 12.1l-1.2 5.7-4.9 9.2s18.7 3.6 27.3-6.1-1-20.9-1-20.9z" fill="#fff"></path><path xmlns="http://www.w3.org/2000/svg" d="M143.2 68.2c8.4 22.4-21.7 19.4-21.7 19.4l.3-1.7-4.9 9.2s18.7 3.6 27.3-6.1-1-20.8-1-20.8z" opacity=".1"></path><path xmlns="http://www.w3.org/2000/svg" d="M118.5 75s7.1 1 7.3 11.2-11 11.8-11 11.8a39.6 39.6 0 003.7-23zM38.2 78.1l9.6-4s8.6.9 9.5 11.4-5.5 12.9-5.5 12.9l-10.3.2s-4.5-3.1-5.2-11.3 1.9-9.2 1.9-9.2z"></path><g xmlns="http://www.w3.org/2000/svg" fill="#fff"><path d="M38.2 78.1l9.6-4c5 1.5 9 4.3 9.5 11.4-.8-1.6-2.3-2.3-4.5-2.2L48 84.4l-5.7 1.4-5.9 1.4c.4-5-.1-7.3 1.8-9.1z" opacity=".1"></path><ellipse transform="rotate(-4.6 42 88.2)" cx="42" cy="88.2" rx="4.9" ry="9.1" opacity=".16"></ellipse><path d="M41.7 80.6s-15.6 2.1-20-2.9-.2-13.9-.2-13.9-11.1 6.4-10 19 25 13.8 30.3 12.4c0 0 3.6-1.8 3.3-7.5 0-5.8-3.4-7.1-3.4-7.1z"></path><path d="M41.7 80.6s-15.6 2.1-20-2.9-.2-13.9-.2-13.9-11.1 6.4-10 19 25 13.8 30.3 12.4c0 0 3.6-1.8 3.3-7.5 0-5.8-3.4-7.1-3.4-7.1z" opacity=".3"></path></g><path xmlns="http://www.w3.org/2000/svg" d="M45 87.7c-15.9 3.8-39.8-2.6-23.5-23.8 0 0-11.1 6.4-10 19s25 13.8 30.3 12.4c0 0 3.6-1.8 3.2-7.6z" opacity=".3"></path>
<path xmlns="http://www.w3.org/2000/svg" d="M94 85s4.8-2 8.2 0c.8.4.7 1.1 0 2 0 0-3.4 4-4.1 4s-4.8-4-4.8-4c-.6-1-.3-1.7.7-2z"></path><path xmlns="http://www.w3.org/2000/svg" d="M99.3 84.1c1 .2 2 .4 3 .9.8.4.7 1.1 0 2a22.1 22.1 0 01-4.1 4c1.9-3.2 2.6-6.3 1.1-6.9z" fill="#3a3a3a" opacity=".2"></path><g xmlns="http://www.w3.org/2000/svg" fill="none" stroke="#000" stroke-linecap="round" stroke-linejoin="round"><path d="M96 100c1.6.2 2-5.8 2-9M88 95.5s7.5 11 18 0"></path></g><g xmlns="http://www.w3.org/2000/svg" fill="#010101" opacity=".6"><path d="M79 82s0-12 6-12 6 11.6 6 11.6S86 70 79 82zM102 82s0-12 6-12 6 11.6 6 11.6-5-11.6-12 .4z"></path></g><path xmlns="http://www.w3.org/2000/svg" d="M96 86s4-1 6 0h-6z" opacity=".3" fill="#fff"></path><g xmlns="http://www.w3.org/2000/svg" fill="none" stroke="#000" stroke-linecap="round" stroke-linejoin="round" stroke-width=".5"><path d="M93 90c-9.9-3.8-20.4-6.2-31-7M92.6 91.3c-12-2.8-27.7-1.2-27.7-1.2M92.5 93.2c-12.3-1-27.6 5-27.6 5M101 90a84.1 84.1 0 0127-7M101.3 91.3c10.5-2.8 24.1-1.2 24.1-1.2M101.4 93.2c10.7-1 24 5 24 5"></path></g>
<g xmlns="http://www.w3.org/2000/svg" fill="currentColor"><path d="M64.7 115.9s-2.8 10.7-11.2 12.9c-5 1.3-10.3.5-14.6-2.2 0 0-3.9-1.1-1.7 2.8s8.4 11.8 25.8 5.6 18-16.9 18-16.9-11.2 1.2-16.3-2.2z"></path><path d="M58 112s-6.2 13.5-15.2 3.9c0 0-5.6-5.6-3.4 1.1s11.1 18.7 30.3.9c0 .1-7.8-2-11.7-5.9zM94.8 115.9s2.8 10.7 11.2 12.9c5 1.3 10.3.5 14.6-2.2 0 0 3.9-1.1 1.7 2.8s-8.4 11.8-25.9 5.6-18-16.9-18-16.9 11.3 1.2 16.4-2.2z"></path><path d="M101.5 112s6.2 13.5 15.2 3.9c0 0 5.6-5.6 3.4 1.1s-11.2 18.7-30.3.9c-.1.1 7.8-2 11.7-5.9z"></path></g><ellipse xmlns="http://www.w3.org/2000/svg" transform="rotate(-65 46 121.6)" cx="45.9" cy="121.6" rx="1.4" ry="1.8"></ellipse><ellipse xmlns="http://www.w3.org/2000/svg" transform="rotate(-2.5 51 122.3)" cx="51" cy="122.3" rx="1.8" ry="1.4"></ellipse><ellipse xmlns="http://www.w3.org/2000/svg" transform="rotate(-27.5 55.6 121)" cx="55.6" cy="121.1" rx="1.4" ry="1.1"></ellipse><ellipse xmlns="http://www.w3.org/2000/svg" transform="rotate(-47.8 58.4 118.6)" cx="58.4" cy="118.6" rx="1.4" ry="1.1"></ellipse><ellipse xmlns="http://www.w3.org/2000/svg" transform="rotate(-25 113.5 121.6)" cx="113.5" cy="121.6" rx="1.8" ry="1.4"></ellipse><ellipse xmlns="http://www.w3.org/2000/svg" transform="rotate(-87.5 108.5 122.3)" cx="108.5" cy="122.3" rx="1.4" ry="1.8"></ellipse><ellipse xmlns="http://www.w3.org/2000/svg" transform="rotate(-62.5 103.9 121.1)" cx="103.9" cy="121.1" rx="1.1" ry="1.4"></ellipse><ellipse xmlns="http://www.w3.org/2000/svg" transform="rotate(-42.2 101 118.6)" cx="101.1" cy="118.6" rx="1.1" ry="1.4"></ellipse><path xmlns="http://www.w3.org/2000/svg" d="M58 112s-6.2 13.5-15.2 3.9c0 0-5.6-5.6-3.4 1.1s11.1 18.7 30.3.9c0 .1-7.8-2-11.7-5.9z" fill="#010101" opacity=".3"></path><g xmlns="http://www.w3.org/2000/svg" fill="#010101" opacity=".2"><path d="M101.5 112s6.2 13.5 15.2 3.9c0 0 5.6-5.6 3.4 1.1s-11.2 18.7-30.3.9c-.1.1 7.8-2 11.7-5.9zM64.7 115.9s-2.8 10.7-11.2 12.9c-5 1.3-10.3.5-14.6-2.2 0 0-3.9-1.1-1.7 2.8s8.4 11.8 25.8 5.6 18-16.9 18-16.9-11.2 1.2-16.3-2.2z"></path><path d="M94.8 115.9s2.8 10.7 11.2 12.9c5 1.3 10.3.5 14.6-2.2 0 0 3.9-1.1 1.7 2.8s-8.4 11.8-25.9 5.6-18-16.9-18-16.9 11.3 1.2 16.4-2.2z"></path></g><g xmlns="http://www.w3.org/2000/svg" fill="currentColor"><path d="M62.5 114.8s-1.7 14.6-7.3 14.6c0 0-2.2 0-3.9-2.8s-3.4-2.2-2.8.6S50.7 139.6 62 139s15.7-11.2 15.7-17.4v-3.2c-.1 0-9.6.3-15.2-3.6zM97 114.8s1.7 14.6 7.3 14.6c0 0 2.2 0 3.9-2.8s3.4-2.2 2.8.6-2.2 12.4-13.5 11.8-15.7-11.2-15.7-17.4v-3.2s9.6.3 15.2-3.6z"></path></g><ellipse xmlns="http://www.w3.org/2000/svg" transform="rotate(-37.1 64.1 128.3)" cx="64.1" cy="128.3" rx="2.2" ry="1.7"></ellipse><ellipse xmlns="http://www.w3.org/2000/svg" transform="rotate(-9.5 58.5 131.1)" cx="58.5" cy="131.1" rx="2.2" ry="1.7"></ellipse><ellipse xmlns="http://www.w3.org/2000/svg" transform="rotate(-62.1 68 123.8)" cx="68" cy="123.8" rx="1.8" ry="1.3"></ellipse><ellipse xmlns="http://www.w3.org/2000/svg" transform="rotate(-82.4 69 119.3)" cx="69.1" cy="119.3" rx="1.8" ry="1.3"></ellipse><ellipse xmlns="http://www.w3.org/2000/svg" transform="rotate(-52.9 95.3 128.3)" cx="95.3" cy="128.3" rx="1.7" ry="2.2"></ellipse><ellipse xmlns="http://www.w3.org/2000/svg" transform="rotate(-80.5 101 131.1)" cx="100.9" cy="131.1" rx="1.7" ry="2.2"></ellipse><ellipse xmlns="http://www.w3.org/2000/svg" transform="rotate(-27.9 91.5 123.8)" cx="91.5" cy="123.8" rx="1.3" ry="1.8"></ellipse><ellipse xmlns="http://www.w3.org/2000/svg" transform="rotate(-7.6 90.4 119.3)" cx="90.4" cy="119.3" rx="1.3" ry="1.8"></ellipse>
</g>
</g></svg>