<svg width="137" height="19" viewBox="0 0 137 19" fill="none" xmlns="http://www.w3.org/2000/svg">
<path d="M6.496 5.16C6.384 5.448 6.44 5.744 6.664 6.048C6.888 6.336 7.224 6.616 7.672 6.888C8.12 7.16 8.624 7.448 9.184 7.752C9.744 8.04 10.32 8.368 10.912 8.736C11.52 9.104 12.072 9.496 12.568 9.912C13.064 10.328 13.48 10.824 13.816 11.4C14.152 11.976 14.336 12.584 14.368 13.224C14.416 14.04 14.24 14.776 13.84 15.432C13.456 16.088 12.92 16.624 12.232 17.04C11.56 17.456 10.76 17.752 9.832 17.928C8.904 18.088 7.936 18.12 6.928 18.024C5.936 17.928 4.904 17.664 3.832 17.232C2.776 16.784 1.792 16.192 0.88 15.456L4.696 10.992C5.896 12.208 7.048 12.84 8.152 12.888C8.776 12.92 9.112 12.752 9.16 12.384C9.224 11.936 8.76 11.464 7.768 10.968C7.56 10.856 7.336 10.752 7.096 10.656C5.96 10.224 5.008 9.696 4.24 9.072C3.488 8.448 2.952 7.808 2.632 7.152C2.312 6.496 2.144 5.832 2.128 5.16C2.128 4.488 2.28 3.872 2.584 3.312C2.888 2.736 3.328 2.232 3.904 1.8C4.496 1.368 5.176 1.064 5.944 0.887999C6.584 0.743999 7.2 0.679999 7.792 0.696C8.384 0.711999 8.944 0.791999 9.472 0.935999C10.016 1.08 10.512 1.256 10.96 1.464C11.424 1.672 11.84 1.896 12.208 2.136C12.576 2.376 12.888 2.592 13.144 2.784C13.416 2.976 13.616 3.144 13.744 3.288L13.96 3.48L10.6 6.84C10.568 6.808 10.52 6.768 10.456 6.72C10.392 6.656 10.256 6.536 10.048 6.36C9.856 6.184 9.656 6.024 9.448 5.88C9.256 5.72 9.032 5.552 8.776 5.376C8.52 5.2 8.272 5.064 8.032 4.968C7.808 4.856 7.592 4.776 7.384 4.728C7.176 4.664 6.992 4.672 6.832 4.752C6.672 4.816 6.56 4.952 6.496 5.16ZM14.3566 5.88L14.5246 0.912L26.3806 1.152L26.3326 6.288L22.6126 6.168L22.7806 18.264L17.9326 18.408L18.1246 6L14.3566 5.88ZM29.2006 1.104L36.0406 1.248L39.7366 17.928L34.3126 18.408L33.6646 13.032L31.0246 13.128L30.2566 18.096L24.8326 17.472L29.2006 1.104ZM31.4806 10.2H33.3286L32.5366 4.704L31.4806 10.2ZM52.8239 6.792C52.6799 8.504 51.7839 9.888 50.1359 10.944L53.3039 16.224L48.9839 18.456L46.1759 12.528C45.9359 12.592 45.7039 12.64 45.4799 12.672L45.7439 18.48L40.7519 18.336L40.1759 1.32C40.7999 1.192 41.4559 1.088 42.1439 1.008C42.8319 0.927999 43.6079 0.879999 44.4719 0.863999C45.3519 0.831999 46.1919 0.863999 46.9919 0.959999C47.7919 1.04 48.5679 1.216 49.3199 1.488C50.0879 1.744 50.7359 2.088 51.2639 2.52C51.8079 2.952 52.2239 3.536 52.5119 4.272C52.7999 5.008 52.9039 5.848 52.8239 6.792ZM44.8079 5.544L45.0479 9.024C45.3839 8.992 45.7519 8.928 46.1519 8.832C46.5519 8.736 46.9679 8.616 47.3999 8.472C47.8319 8.312 48.1999 8.096 48.5039 7.824C48.8239 7.552 49.0079 7.256 49.0559 6.936C49.0879 6.776 49.0719 6.624 49.0079 6.48C48.9599 6.336 48.8639 6.216 48.7199 6.12C48.5919 6.024 48.4399 5.944 48.2639 5.88C48.1039 5.8 47.9039 5.736 47.6639 5.688C47.4239 5.64 47.1919 5.608 46.9679 5.592C46.7599 5.56 46.5119 5.544 46.2239 5.544C45.9519 5.528 45.7119 5.52 45.5039 5.52C45.2959 5.52 45.0639 5.528 44.8079 5.544ZM67.3983 4.656L62.0223 8.592L68.6223 14.904L64.3023 18.576L59.7183 12.552L59.6223 18.312L54.2943 18.264L54.0303 1.104L59.8863 1.344L59.8143 5.088L64.6143 1.104L67.3983 4.656ZM78.5571 9.744L78.7011 1.368H83.9571L83.3331 17.664L78.1731 17.832L74.8371 10.392L74.6451 18.024L68.9091 17.496L69.6291 1.536L74.8611 1.032L78.5571 9.744ZM90.5095 13.176L97.8055 12.816L97.9975 18.144L85.4935 18.168L84.9655 1.176L97.3015 0.792L97.1815 6.216L89.9095 6.264L90.1495 8.184L94.6135 8.136L94.7335 11.112L90.3415 11.136L90.5095 13.176ZM98.1222 5.88L98.2902 0.912L110.146 1.152L110.098 6.288L106.378 6.168L106.546 18.264L101.698 18.408L101.89 6L98.1222 5.88ZM111.973 13.656C112.485 13.656 112.941 13.736 113.341 13.896C113.741 14.056 114.037 14.264 114.229 14.52C114.421 14.776 114.557 15.056 114.637 15.36C114.717 15.664 114.701 15.976 114.589 16.296C114.493 16.6 114.341 16.88 114.133 17.136C113.925 17.392 113.629 17.6 113.245 17.76C112.861 17.92 112.437 18 111.973 18C111.509 18 111.093 17.92 110.725 17.76C110.357 17.6 110.077 17.392 109.885 17.136C109.693 16.88 109.557 16.6 109.477 16.296C109.397 15.976 109.397 15.664 109.477 15.36C109.573 15.056 109.717 14.776 109.909 14.52C110.101 14.264 110.373 14.056 110.725 13.896C111.093 13.736 111.509 13.656 111.973 13.656ZM115.841 0.767999L121.169 0.839999L121.433 18L115.577 17.76L115.841 0.767999ZM123.495 0.792C124.343 0.695999 125.167 0.647999 125.967 0.647999C126.783 0.631999 127.607 0.663999 128.439 0.743999C129.271 0.823999 130.055 0.975999 130.791 1.2C131.543 1.408 132.255 1.68 132.927 2.016C133.599 2.336 134.191 2.76 134.703 3.288C135.215 3.8 135.647 4.384 135.999 5.04C136.351 5.696 136.591 6.472 136.719 7.368C136.863 8.248 136.879 9.216 136.767 10.272C136.655 11.28 136.399 12.2 135.999 13.032C135.599 13.848 135.103 14.528 134.511 15.072C133.935 15.616 133.287 16.088 132.567 16.488C131.847 16.888 131.095 17.192 130.311 17.4C129.543 17.608 128.775 17.776 128.007 17.904C127.255 18.032 126.535 18.104 125.847 18.12C125.175 18.136 124.575 18.136 124.047 18.12C123.519 18.12 123.103 18.104 122.799 18.072L122.343 18.024L123.495 0.792ZM132.663 9.168C132.855 8.464 132.839 7.84 132.615 7.296C132.391 6.752 132.031 6.336 131.535 6.048C131.055 5.744 130.511 5.536 129.903 5.424C129.311 5.296 128.711 5.272 128.103 5.352L127.695 13.008C127.807 12.976 127.959 12.936 128.151 12.888C128.343 12.84 128.695 12.712 129.207 12.504C129.719 12.296 130.183 12.064 130.599 11.808C131.015 11.552 131.423 11.192 131.823 10.728C132.239 10.248 132.519 9.728 132.663 9.168Z" fill="#DCCAB8"/>
</svg>
