<svg width="50" height="46" viewBox="0 0 50 46" fill="none" xmlns="http://www.w3.org/2000/svg">
<path d="M35.3448 19.6155C37.2742 16.8715 40.1862 19.7227 41.401 21.4913C44.8847 21.4913 44.6703 23.6888 46.9749 24.3319C49.2795 24.9751 49.4938 25.7254 48.9579 26.2077C48.4219 26.6901 45.2598 31.0313 43.4912 32.1568C41.7226 33.2823 42.1513 35.4261 40.6507 36.6051C39.15 37.7842 38.2925 37.3555 36.5775 35.962C34.8624 34.5685 35.3448 32.6391 37.9173 32.1568C40.4899 31.6744 40.9187 30.1738 42.1513 26.9581C38.6677 28.5123 32.933 23.0456 35.3448 19.6155Z" fill="#DCCAB8" stroke="#FFF9F0" stroke-width="0.8"/>
<path d="M31.2834 35.7476L30.6938 40.0352H32.4625V36.0692L31.2834 35.7476Z" fill="#FFF9F0"/>
<circle cx="25.1226" cy="23.1528" r="14.4994" fill="#DCCAB8" stroke="#FFF9F0" stroke-width="0.8"/>
<mask id="mask0_636_4730" style="mask-type:alpha" maskUnits="userSpaceOnUse" x="23" y="25" width="15" height="9">
<path d="M37.7709 25.2962H23.6218C23.6218 29.2087 25.4441 33.9786 31.1251 33.9786C35.67 33.9786 37.4493 28.1904 37.7709 25.2962Z" fill="black"/>
</mask>
<g mask="url(#mask0_636_4730)">
<path d="M37.7709 25.2962H23.6218C23.6218 29.2087 25.4441 33.9786 31.1251 33.9786C35.67 33.9786 37.4493 28.1904 37.7709 25.2962Z" fill="#FFF9F0"/>
<path d="M38.8427 27.9224C32.5399 29.1658 25.4261 28.4405 22.657 27.9224L22.2819 24.4923H38.8427V27.9224Z" fill="#DCCAB8"/>
<path d="M25.5718 30.8767C24.5437 29.3936 24.087 27.4877 24.0284 25.6962H37.3153C37.1088 27.081 36.6016 28.949 35.686 30.5215C34.669 32.2683 33.1963 33.5786 31.1251 33.5786C28.416 33.5786 26.6629 32.4507 25.5718 30.8767Z" stroke="#F5F0EB" stroke-width="0.8"/>
</g>
<path d="M24.0507 23.6353C24.6938 22.3669 26.4946 20.5376 28.5526 23.3674C28.4454 20.634 25.7121 15.8643 24.0507 23.6353Z" fill="#FFF9F0"/>
<path d="M32.8938 23.6353C33.5369 22.3669 35.3377 20.5376 37.3958 23.3674C37.2886 20.634 34.5552 15.8643 32.8938 23.6353Z" fill="#FFF9F0"/>
<path d="M15.0766 19.6155C13.1472 16.8715 10.2352 19.7227 9.02038 21.4913C5.53671 21.4913 5.75109 23.6888 3.44651 24.3319C1.14193 24.9751 0.927551 25.7254 1.4635 26.2077C1.99945 26.6901 5.16155 31.0313 6.93018 32.1568C8.69881 33.2823 8.27005 35.4261 9.7707 36.6051C11.2714 37.7842 12.1289 37.3555 13.8439 35.962C15.559 34.5685 15.0766 32.6391 12.504 32.1568C9.93149 31.6744 9.50273 30.1738 8.27005 26.9581C11.7537 28.5123 17.4884 23.0456 15.0766 19.6155Z" fill="#DCCAB8" stroke="#FFF9F0" stroke-width="0.8"/>
<path d="M17.5628 35.7474L16.9733 40.035H18.7419V36.069L17.5628 35.7474Z" fill="#FFF9F0"/>
<path d="M14.9902 45.342V43.5734C19.7602 40.3028 17.5628 38.91 19.0098 35.6406C20.8633 31.453 25.6556 31.5145 28.0674 33.4975C25.87 31.9433 20.7249 33.9799 19.7602 38.9106C18.9884 42.8552 16.2586 44.8418 14.9902 45.342Z" fill="#DCCAB8" stroke="#FFF9F0" stroke-width="0.8"/>
<path d="M26.6207 41.7967C25.0906 44.1014 22.021 45.8775 16.2331 45.4315C16.7345 45.0502 17.2743 44.557 17.7926 43.962C18.8484 42.75 19.8449 41.0819 20.2509 39.0068C20.7022 36.7003 22.1284 35.0767 23.6938 34.2098C25.2116 33.3693 26.7373 33.2934 27.6368 33.815C28.2439 36.0752 28.2647 39.3203 26.6207 41.7967Z" fill="#DCCAB8" stroke="#FFF9F0"/>
<path d="M18.1523 39.8205C16.5266 39.8919 13.0479 40.9297 14.5615 43.2505C15.3654 44.4832 17.3841 42.0357 18.1523 39.8205Z" fill="#DCCAB8" stroke="#FFF9F0" stroke-width="0.8"/>
<path d="M28.7111 45.342V43.5733C33.481 40.3028 31.2836 38.91 32.7307 35.6406C34.5841 31.453 39.3764 31.5145 41.7882 33.4975C39.5908 31.9433 34.4457 33.9799 33.481 38.9106C32.7092 42.8552 29.9795 44.8417 28.7111 45.342Z" fill="#DCCAB8" stroke="#FFF9F0" stroke-width="0.6"/>
<path d="M40.4491 41.8531C38.8805 44.2326 35.7102 46.0339 29.7246 45.5088C30.2727 45.1145 30.8822 44.5716 31.4647 43.8944C32.4986 42.6925 33.4718 41.0405 33.8735 38.9876C34.3309 36.6494 35.7774 35.0021 37.366 34.1223C38.9183 33.2627 40.5056 33.1796 41.4434 33.7497C42.0663 36.0299 42.1119 39.3308 40.4491 41.8531Z" fill="#DCCAB8" stroke="#FFF9F0" stroke-width="0.8"/>
<path d="M31.873 39.8204C30.2473 39.8919 26.7686 40.9297 28.2822 43.2505C29.0861 44.4832 31.1048 42.0357 31.873 39.8204Z" fill="#DCCAB8" stroke="#FFF9F0" stroke-width="0.8"/>
<path d="M38.1854 3.21459C38.1934 3.36932 38.071 3.66685 37.4705 4.06528C36.9024 4.44222 36.0382 4.81738 34.92 5.15955C32.6913 5.84156 29.5637 6.35972 26.0702 6.54148C22.5766 6.72324 19.4122 6.53243 17.1247 6.08538C15.977 5.8611 15.0785 5.57765 14.4744 5.2617C13.8358 4.92773 13.6832 4.64451 13.6751 4.48979C13.6671 4.33506 13.7894 4.03753 14.39 3.6391C14.9581 3.26216 15.8223 2.887 16.9405 2.54483C19.1692 1.86282 22.2968 1.34465 25.7903 1.1629C29.2838 0.981141 32.4483 1.17195 34.7358 1.619C35.8834 1.84328 36.782 2.12673 37.3861 2.44268C38.0247 2.77665 38.1773 3.05986 38.1854 3.21459Z" stroke="#DCCAB8"/>
</svg>
