<svg viewBox="0 0 160 160" width="160" height="160" xmlns="http://www.w3.org/2000/svg">
<defs><clipPath id="hexagon-clip-34">
<path d="M251.6 17.34l63.53 110.03c5.72 9.9 5.72 22.1 0 32L251.6 269.4c-5.7 9.9-16.27 16-27.7 16H96.83c-11.43 0-22-6.1-27.7-16L5.6 159.37c-5.7-9.9-5.7-22.1 0-32L69.14 17.34c5.72-9.9 16.28-16 27.7-16H223.9c11.43 0 22 6.1 27.7 16z" transform="scale(0.5) translate(0, 16)"></path>
</clipPath></defs>
<g clip-path="url(#hexagon-clip-34)">
<g color="#FA7268" fill="#0582CA">
<rect fill="#795548" x="0" y="0" width="160" height="160"></rect>
<circle cx="80" cy="80" r="40" fill="#FA7268"></circle>
<g opacity=".1" fill="#010101"><path d="M119.21,80a39.46,39.46,0,0,1-67.13,28.13c10.36,2.33,36,3,49.82-14.28,10.39-12.47,8.31-33.23,4.16-43.26A39.35,39.35,0,0,1,119.21,80Z"></path></g>
<path xmlns="http://www.w3.org/2000/svg" d="M74.9 33.5s-7-2.4-6.2-9.6 9.5-11.4 15.3-5.1c3.4 3.4 4.1 8.6 1.8 12.8l-10.9 1.9z" fill="#fff"></path><path xmlns="http://www.w3.org/2000/svg" d="M79.8 26.6c-31.7-1.6-33.9 27-33.9 27l65 .8c-.1-.1.5-26.3-31.1-27.8z"></path><path xmlns="http://www.w3.org/2000/svg" d="M46.1 49.8s-4.7 1.2-5.4 4.6-1.2 7.8-1.2 7.8c.1 1.9 2.9 4.1 2.9 4.1l1.1-2.7c10.8-5.8 42.1-8.4 50.7-8.8 5.6-.1 11.2.3 16.7 1.1l2.2 3.4 3.6-2.5c.7-.4 1.1-1.2.7-2-.6-1.4-3-10.3-5-11.7-1.3-.9-11-2.3-28.8-.4a269.2 269.2 0 00-37.5 7.1z" fill="#fff"></path><path xmlns="http://www.w3.org/2000/svg" d="M39.5 62.2c.1 1.9 2.9 4.1 2.9 4.1l1.1-2.7c10.8-5.8 42.1-8.4 50.7-8.8 5.3-.1 10.5.2 15.7 1.1l3.2 3.5 3.6-2.5c.7-.4 1.1-1.2.7-2-3.9-9.4-80 2.4-77.9 7.3z" opacity=".12"></path><g xmlns="http://www.w3.org/2000/svg" opacity=".2"><path d="M45.7 49.8s-1.4 7.5-1.2 9.4c.1 1.2.4 2.3.8 3.4l2.1-.7-.8-3.4 1.1-9.2-2 .5z"></path><path d="M48.5 49.2s-1.4 7.5-1.2 9.4c.1 1.2.4 2.3.8 3.4l2.1-.7-.8-3.4 1.1-9.2-2 .5zM55.9 47.4l-.3 8.8 1 3.3 2-.3-.9-3v-9.1z"></path><path d="M58.3 46.8l-.3 8.8 1 3.2 2-.3-.9-3v-9zM67.7 45l.9 9.2-.1 3.2 2.7-.3-.4-3.1-1.2-9.3zM71.1 44.4l.8 9.2v3.2l2.6-.3-.3-3.2-1.2-9.2zM83.9 55.4l.1-3.1-1.1-9.6 2.5-.2 1.4 9.5-.7 3.4zM87.2 55.2v-3l-1.1-9.6 2.5-.3 1.4 9.6-.7 3.3zM99 41.7l1.4 9.5-.4 3.6 2.3.2.6-3.7-1.8-9.6zM102.4 41.7l1.8 9.6-.5 3.8 2.5.2.5-3.8-2-9.7zM111.7 42.7l3.9 10.4-4.9 2.7 1.4 2 5.5-3.2-3.5-8.9c.1 0-1-2.6-2.4-3z"></path></g>
<path xmlns="http://www.w3.org/2000/svg" d="M124.6 80.7s20 .3 18.6-12.5c0 0 9.6 11.1 1 20.9s-27.3 6.1-27.3 6.1l7.7-14.5z" fill="#fff"></path><path xmlns="http://www.w3.org/2000/svg" d="M143.2 68.2c.3 13.7-20.2 12.1-20.2 12.1l-1.2 5.7-4.9 9.2s18.7 3.6 27.3-6.1-1-20.9-1-20.9z" fill="#fff"></path><path xmlns="http://www.w3.org/2000/svg" d="M143.2 68.2c8.4 22.4-21.7 19.4-21.7 19.4l.3-1.7-4.9 9.2s18.7 3.6 27.3-6.1-1-20.8-1-20.8z" opacity=".1"></path><path xmlns="http://www.w3.org/2000/svg" d="M118.5 75s7.1 1 7.3 11.2-11 11.8-11 11.8a39.6 39.6 0 003.7-23zM38.2 78.1l9.6-4s8.6.9 9.5 11.4-5.5 12.9-5.5 12.9l-10.3.2s-4.5-3.1-5.2-11.3 1.9-9.2 1.9-9.2z"></path><g xmlns="http://www.w3.org/2000/svg" fill="#fff"><path d="M38.2 78.1l9.6-4c5 1.5 9 4.3 9.5 11.4-.8-1.6-2.3-2.3-4.5-2.2L48 84.4l-5.7 1.4-5.9 1.4c.4-5-.1-7.3 1.8-9.1z" opacity=".1"></path><ellipse transform="rotate(-4.6 42 88.2)" cx="42" cy="88.2" rx="4.9" ry="9.1" opacity=".16"></ellipse><path d="M41.7 80.6s-15.6 2.1-20-2.9-.2-13.9-.2-13.9-11.1 6.4-10 19 25 13.8 30.3 12.4c0 0 3.6-1.8 3.3-7.5 0-5.8-3.4-7.1-3.4-7.1z"></path><path d="M41.7 80.6s-15.6 2.1-20-2.9-.2-13.9-.2-13.9-11.1 6.4-10 19 25 13.8 30.3 12.4c0 0 3.6-1.8 3.3-7.5 0-5.8-3.4-7.1-3.4-7.1z" opacity=".3"></path></g><path xmlns="http://www.w3.org/2000/svg" d="M45 87.7c-15.9 3.8-39.8-2.6-23.5-23.8 0 0-11.1 6.4-10 19s25 13.8 30.3 12.4c0 0 3.6-1.8 3.2-7.6z" opacity=".3"></path>
<g xmlns="http://www.w3.org/2000/svg" fill="#fff"><path d="M72.4 70.5s-5 2.3-4.5 5.4 4.5 2.3 4.5-.4 1.4-4.5 0-5zM111 66.8s3.2-.9 4.3.7-1.2 2.9-2.3 1.6-2.5-1.6-2-2.3zM70.5 67.2s-3.4-.1-4 1.8 1.9 2.5 2.6 1 2-2.2 1.4-2.8z"></path></g><g xmlns="http://www.w3.org/2000/svg" fill="#010101" opacity=".6"><path d="M109.9 101.1H75.5s1.7-19.4 18.6-19.4c4.4-.2 8.8 1.6 11.8 4.8 5.3 5.7 4 14.6 4 14.6z"></path><circle cx="78.8" cy="67.7" r="4.8"></circle><circle cx="106.1" cy="67.7" r="4.4"></circle></g><path xmlns="http://www.w3.org/2000/svg" d="M105.3 58.5c2.9-.3 5.8 4.6 8.6 6.9 0 0-3.7-7.5-4.4-8.6s-4.2 1.7-4.2 1.7zM80.7 59.2c-2.6-1.2-7 2.3-10.4 3.6 0 0 6-5.8 7.1-6.6s3.3 3 3.3 3z"></path>
<path xmlns="http://www.w3.org/2000/svg" d="M97 122.5s-2.8 5.5-5.5 7.5c-1.2.8-2.3 1.8-3.4 2.7v4.4c0 .4 10.2-3 8.9-14.6z" fill="#6d4716"></path><path xmlns="http://www.w3.org/2000/svg" d="M97.6 122.5s-5.4-1.4-8.9 2-3.4 8.2-1.4 8.2 2.2.7 10.3-10.2z" fill="#fff"></path><path xmlns="http://www.w3.org/2000/svg" d="M123.5 106.8s-4.8-8.2-19.1-.7c-14.3 7.5-2.7 23.2-15.7 30.7 0 0 3.4 4.3 8.4-5.9 4.7-9.3 4.6-24.7 26.4-24.1z" fill="#99671d"></path><path xmlns="http://www.w3.org/2000/svg" d="M88.8 136.8s6.1 2.7 10.2-10.9 8.9-21.8 20.4-21.1c1.6 0 3.2.6 4.4 1.7 5.6 5 1.3 19.6-4.4 24.2-6.8 5.4-21.8 10.9-27.9 8.9s-2.7-2.8-2.7-2.8z" fill="#444"></path><path xmlns="http://www.w3.org/2000/svg" d="M87.8 117.2l1 7.4c1.9-1.4 3.6-2.3 5-2.3l-.6-6.2c-1.8.5-3.6.8-5.4 1.1z" fill="currentColor"></path><path xmlns="http://www.w3.org/2000/svg" d="M122.2 110.6h-11.6c-.3 0-.5-.2-.5-.5v-.1c0-.3.2-.5.5-.5h11.6c.3 0 .5.2.5.5v.1c0 .3-.2.5-.5.5zM123.3 113.8h-14.7c-.3 0-.5-.2-.5-.5v-.1c0-.3.2-.5.5-.5h14.7c.3 0 .5.2.5.5v.1c0 .3-.3.5-.5.5zM123.3 116.9h-17.9c-.3 0-.5-.2-.5-.5v-.1c0-.3.2-.5.5-.5h17.9c.3 0 .5.2.5.5v.1c0 .3-.3.5-.5.5zM122.2 120.1h-17.9c-.3 0-.5-.2-.5-.5v-.1c0-.3.2-.5.5-.5h17.9c.3 0 .5.2.5.5v.1c0 .2-.2.5-.5.5zM121.1 123.2h-17.9c-.3 0-.5-.2-.5-.5v-.1c0-.3.2-.5.5-.5h17.9c.3 0 .5.2.5.5v.1c0 .3-.2.5-.5.5zM119.1 126.4h-17.9c-.3 0-.5-.2-.5-.5v-.1c0-.3.2-.5.5-.5h17.9c.3 0 .5.2.5.5v.1c0 .2-.3.5-.5.5zM117 129.5h-15.8c-.3 0-.5-.2-.5-.5s.2-.5.5-.5H117c.3 0 .5.2.5.5v.1c0 .2-.3.4-.5.4zM112.8 132.7H99.1c-.3 0-.5-.2-.5-.5v-.1c0-.3.2-.5.5-.5h13.7c.3 0 .5.2.5.5v.1c0 .2-.3.5-.5.5zM107.5 135.8H98c-.3 0-.5-.2-.5-.5v-.1c0-.3.2-.5.5-.5h9.5c.3 0 .5.2.5.5v.1c0 .3-.2.5-.5.5z"></path><path xmlns="http://www.w3.org/2000/svg" d="M63 123.5s-2.8 5.5-5.5 7.5c-1.2.8-2.3 1.8-3.4 2.7v4.4c0 .4 10.2-3 8.9-14.6z" fill="#6d4716"></path><path xmlns="http://www.w3.org/2000/svg" d="M60.3 113l-2.1 11.3c1.9-1.4 2.7-.3 4.1-.3l2.2-9.2c-2-.4-2.9-1.4-4.2-1.8z" fill="currentColor"></path><path xmlns="http://www.w3.org/2000/svg" d="M63.6 123.5s-5.5-1.4-8.9 2c-3.4 3.4-3.4 8.2-1.4 8.2s2.2.7 10.3-10.2z" fill="#fff"></path><path xmlns="http://www.w3.org/2000/svg" d="M89.5 107.8s-4.8-8.2-19.1-.7c-14.3 7.5-2.7 23.2-15.7 30.7 0 0 3.6 4 8.4-6 4.6-9.3 4.6-24.6 26.4-24z" fill="#99671d"></path><path xmlns="http://www.w3.org/2000/svg" d="M54.8 137.8s6.1 2.7 10.2-10.9 8.9-21.8 20.4-21.1c1.6 0 3.2.6 4.4 1.7 5.6 5 1.3 19.6-4.4 24.2-6.8 5.4-21.8 10.9-28 8.9s-2.6-2.8-2.6-2.8z" fill="#444"></path><path xmlns="http://www.w3.org/2000/svg" d="M88.2 111.6H76.6c-.3 0-.5-.2-.5-.5v-.1c0-.3.2-.5.5-.5h11.6c.3 0 .5.2.5.5v.1c0 .3-.2.5-.5.5zM89.3 114.8H74.5c-.3 0-.5-.2-.5-.5v-.1c0-.3.2-.5.5-.5h14.7c.3 0 .5.2.5.5v.1c.1.3-.2.5-.4.5zM89.3 117.9H71.4c-.3 0-.5-.2-.5-.5v-.1c0-.3.2-.5.5-.5h17.9c.3 0 .5.2.5.5v.1c0 .3-.3.5-.5.5zM88.2 121.1H70.3c-.3 0-.5-.2-.5-.5v-.1c0-.3.2-.5.5-.5h17.9c.3 0 .5.2.5.5v.1c0 .2-.2.5-.5.5zM87.1 124.2H69.3c-.3 0-.5-.2-.5-.5v-.1c0-.3.2-.5.5-.5h17.9c.3 0 .5.2.5.5v.1c-.1.3-.3.5-.6.5zM85.1 127.4H67.2c-.3 0-.5-.2-.5-.5v-.1c0-.3.2-.5.5-.5h17.9c.3 0 .5.2.5.5v.1c0 .2-.3.5-.5.5zM83 130.5H67.2c-.3 0-.5-.2-.5-.5s.2-.5.5-.5H83c.3 0 .5.2.5.5v.1c0 .2-.3.4-.5.4zM78.8 133.7H65.1c-.3 0-.5-.2-.5-.5v-.1c0-.3.2-.5.5-.5h13.7c.3 0 .5.2.5.5v.1c0 .2-.3.5-.5.5zM73.5 136.8H64c-.3 0-.5-.2-.5-.5v-.1c0-.3.2-.5.5-.5h9.5c.3 0 .5.2.5.5v.1c0 .3-.2.5-.5.5z"></path>
</g>
</g></svg>