<svg viewBox="0 0 160 160" width="160" height="160" xmlns="http://www.w3.org/2000/svg">
<defs><clipPath id="hexagon-clip-41">
<path d="M251.6 17.34l63.53 110.03c5.72 9.9 5.72 22.1 0 32L251.6 269.4c-5.7 9.9-16.27 16-27.7 16H96.83c-11.43 0-22-6.1-27.7-16L5.6 159.37c-5.7-9.9-5.7-22.1 0-32L69.14 17.34c5.72-9.9 16.28-16 27.7-16H223.9c11.43 0 22 6.1 27.7 16z" transform="scale(0.5) translate(0, 16)"></path>
</clipPath></defs>
<g clip-path="url(#hexagon-clip-41)">
<g color="#795548" fill="#FC8702">
<rect fill="#1F2348" x="0" y="0" width="160" height="160"></rect>
<circle cx="80" cy="80" r="40" fill="#795548"></circle>
<g opacity=".1" fill="#010101"><path d="M119.21,80a39.46,39.46,0,0,1-67.13,28.13c10.36,2.33,36,3,49.82-14.28,10.39-12.47,8.31-33.23,4.16-43.26A39.35,39.35,0,0,1,119.21,80Z"></path></g>
<path xmlns="http://www.w3.org/2000/svg" d="M105.1 24.3h7.9S94.2 9.8 75 21.6C69.2 25 63.4 35.7 61 45.2c0 0 23.5-7.7 33.8 11.8h4.8L113 24.3z"></path><path xmlns="http://www.w3.org/2000/svg" d="M113 24.3S92.8 8.7 73.4 22.7c0 0 11.5-10.3 31.7 1.6z" fill="#fff" opacity=".5"></path><path xmlns="http://www.w3.org/2000/svg" d="M94.8 57h4.7L113 24.3h-7.9z" fill="#010107" opacity=".1"></path>
<path xmlns="http://www.w3.org/2000/svg" d="M14.2 80.3l6.1-.9c1.7-.2 3.3.9 3.5 2.6.2 1.7-.9 3.3-2.6 3.5l-6.1.9c-1.7.2-3.3-.9-3.5-2.6-.2-1.7.9-3.2 2.6-3.5z" fill="currentColor"></path><g xmlns="http://www.w3.org/2000/svg" fill="#e0e0e0"><path d="M36.3 92.3L36 99c-.3-.3 2.7 2.3 5 0l-.4-7.8-4.3 1.1zM129.6 97.1l-.8 6.7c-.3-.3 2.5 2.5 5 .3l.1-6.1a6 6 0 01-4.3-.9zM34 42.2s.9-4.3 3.5-1.7 5.8 16.1 2.4 23.9c-.8 4.7-.6 5.7-.6 5.7-1.1.5-2.4.5-3.5 0L34 42.2zM129.5 50.8l-.8 15.4s-.2 4.6 4.4 4.9 5.5-2.8 5.6-4.3l.8-15.4s-1.2.3-1.4 4.2-1.2 7.6-2 7.6h-.6c-.5 0-.9-.2-.8-2.4.2-3.1.5-9.2-.3-9.3s-1.3 9.2-1.3 9.2-.1 2.3-1.7 2.2-1.1-8.5-1.1-8.5.4-4-.8-3.6zM130.9 77l-2.4 7.8 2 .2 2.2-7.3z"></path></g><g xmlns="http://www.w3.org/2000/svg" fill="#fff"><path d="M37.5 40.4S44 50 39.9 64.3c.5 5.7-.3-22.2-2.4-23.9z" opacity=".1"></path><g opacity=".3"><path d="M34.6 42c.3 0 .5.2.5.5l1.7 26.9c0 .3-.2.5-.5.5s-.5-.2-.5-.5l-1.7-26.9c0-.2.2-.4.5-.5zM139.5 51.3s-.9 3-1.4 10.7c0 0 0 8.4-2.6 8.7 0 0 2.8.4 3.3-8.8l.7-10.6zM134.4 60.2l.5-8.5s-.4 8.5-.1 10-.5 1.5-.5 1.5l.1-3z"></path></g><path d="M27 68.2a7 7 0 00-1.7 5.9l.1 1.6s-7.9-2.3-7.6 4.2l.1 1.7c.2 5.3.8 7.8 4.1 9.7 3.6 2.1 4.2-1.4 6.5-.2s14.6 10.2 18.1-1.6l.5-5.2c.2-2.6 1.8-4.3.6-9.4s-6.1-6.6-10-6.1c0 0-.6.3-1.7-1.6s-6-3.5-9 1z"></path></g><path xmlns="http://www.w3.org/2000/svg" d="M25 80.4l4.4-.4c.2 0 .5.2.5.4s-.2.5-.4.5l-4.4.4c-.2 0-.5-.2-.5-.4s.1-.4.4-.5zM25.2 82.2l4.4-.4c.2 0 .5.2.5.4s-.2.5-.4.5l-4.4.4c-.2 0-.5-.2-.5-.4 0-.3.2-.5.4-.5zM25.5 83.9l4.4-.4c.2 0 .5.2.5.4s-.2.5-.4.5l-4.4.4c-.2 0-.5-.2-.5-.4s.1-.4.4-.5z"></path><path xmlns="http://www.w3.org/2000/svg" d="M124 73.5a6.8 6.8 0 00-1.6 5.8l.1 1.6-3.3-.3-1.4 7.7c.8.6 1.5 1.2 2.1 1.9.6 1 3.5 4.4 5.8 5.5l2.4 1.3c4.4 2.4 12.7 6 15.2-3.3l.4-5.1c.2-2.5 1.7-4.2.4-9.2s-6-6.3-9.8-5.8c0 0-.6.3-1.7-1.5s-5.8-3-8.6 1.4z" fill="#d8d8d8"></path><path xmlns="http://www.w3.org/2000/svg" d="M127.2 96.5c4 2.3 13.4 7.1 16.1-2.8l.4-5.1c.2-2.5 1.7-4.2.4-9.2s-1.3-5-9.8-5.8c-7.8-.7-5.5 11.9-7.8 20-.3.8.1 2.5.7 2.9z" fill="#fff"></path><g xmlns="http://www.w3.org/2000/svg" opacity=".05"><path d="M28.4 91c-2.5-.9 14.7 10.2 18.1-1.6l.5-5.2c.2-2.6 1.8-4.3.6-9.4s-6.1-6.6-10-6.1C49 70.9 40.8 94.4 28.4 91zM125.7 95.7c-2.4-.8 14.4 9.6 17.6-1.9l.4-5.1c.2-2.5 1.7-4.2.4-9.2s-6-6.3-9.8-5.8c11.1 2 3.5 25-8.6 22z"></path></g><g xmlns="http://www.w3.org/2000/svg" opacity=".16"><path d="M19 88.4c.8 1.1 1.8 2 2.9 2.8 3.6 2.1 4.2-1.4 6.5-.2 2 1.1 11.7 8 16.4 1.9.7-1.1 1.2-2.3 1.7-3.5-1 1.6-4.9 2.7-8.7 2.3-5.2-.5-8.3-4.6-11.5-4.4-5.4 2.1-7.3 1.1-7.3 1.1zM117.8 88.3s5.7 6.2 7.9 7.4c2 1 11.6 7.6 16 1.5a26 26 0 001.6-3.4c-.9 1.6-4.7 2.7-8.4 2.4-5.1-.3-8.1-4.3-11.3-4.1a26.3 26.3 0 00-5.8-3.8z"></path></g>
<g xmlns="http://www.w3.org/2000/svg" fill="#010101" opacity=".6"><path d="M76 77s0-12 6-12 6 11.6 6 11.6S83 65 76 77zM100 76.5s0-11 5.5-11 5.5 10.6 5.5 10.6-4.6-10.6-11 .4z"></path></g><g xmlns="http://www.w3.org/2000/svg" opacity=".2"><path d="M75 91.1c-.2-1.5.4-2.9 1.4-3.9 0 0 10.8 0 13-4.6s4.3-10.1 7.9-7.8c5.7 3.3 5 7.8 8.6 10.1s7.2 5.7 12.2 5.7 5.8.5 5.8 2.1-2.2 4.7-6.5 3.1-10.4-4.3-19.8-.4-5 4.7-10.8 2.3c-4.1-1.8-8-4-11.8-6.6z"></path><path d="M77.8 92.6l-.6 2.9 2.2 3.6s6.5 0 8.7 2.2 13.7 5 20.9 2.9 6.7-8.6 6.7-8.6-12.7 5.4-22.1 2.1a9 9 0 01-3.1 1.5c-2.2-.7-4.4-1.5-6.6-2.5-2.3-1-4.3-2.4-6.1-4.1z"></path><path d="M116.3 94.5s-5.8-2.2-10.1-1.4c-3.4.5-6.7 1.3-9.9 2.6 4.2 1.7 13.6-1.2 20-1.2z"></path></g><path xmlns="http://www.w3.org/2000/svg" d="M116.3 94.5s-5.8-2.2-10.1-1.4-9 1.8-11.3 3.4c0 0 2.4 1.7 7.2 1.3s12.1-1.8 14.2-3.3z" fill="#eb5273"></path><path xmlns="http://www.w3.org/2000/svg" d="M76 90.9l1.4-3.6s10.8 0 13-4.3 4.3-9.4 7.9-7.2 5 7.2 8.6 9.4 7.2 4.3 12.2 4.3 5.7 1.4 5.7 2.9-2.2 4.3-6.5 2.9-10.4-4-19.8-.4-5 4.3-10.8 2.2c-4-1.7-7.9-3.8-11.7-6.2z" fill="#fbdb31"></path><path xmlns="http://www.w3.org/2000/svg" d="M76 90.9l1.4-3.6a50 50 0 0015.1 7.2c4.3-5 21.6-5 32.4-2.2.1 1.4-2.2 4.3-6.5 2.9s-10.4-4-19.8-.4-5 4.3-10.8 2.2c-4.1-1.6-8-3.7-11.8-6.1z" opacity=".05"></path><path xmlns="http://www.w3.org/2000/svg" d="M91.8 83l-.7 2.2 5.1 4.3c.4.4 1 .4 1.4 0 .7-.7-2.2-3.6-2.2-3.6L93.3 83c-.4-.4-1-.4-1.5 0 .1 0 .1 0 0 0z"></path><path xmlns="http://www.w3.org/2000/svg" d="M78.8 92.6l-.6 1.9 2.2 3.6s6.5 0 8.7 2.2 13.7 5 20.9 2.9 6.7-8.6 6.7-8.6-12.7 5.4-22.1 2.1a9 9 0 01-3.1 1.5c-2.2-.7-4.4-1.5-6.6-2.5-3.5-1.5-6.1-3.1-6.1-3.1z" fill="#fbdb31"></path><path xmlns="http://www.w3.org/2000/svg" d="M78.8 92.6l-.6 1.9 2.2 3.6s6.5 0 8.7 2.2 13.7 5 20.9 2.9 6.7-8.6 6.7-8.6-12.7 5.4-22.1 2.1a9 9 0 01-3.1 1.5c-2.2-.7-4.4-1.5-6.6-2.5-3.5-1.5-6.1-3.1-6.1-3.1z" opacity=".2"></path>
<path xmlns="http://www.w3.org/2000/svg" d="M59.5 114.4c-.6-1-1.9-1.2-2.9-.6h-.1c-1.8 1.2-1.8 2.9-1.2 3.5l12.2 13.4 1.2 11.1s0 1.2 2.3 1.2 1.8-1.8 1.8-1.8l-.6-11.1 8.8-14c1.2-1.8-1.2-5.8-4.7-2.9L71.6 126 70 109.8a3 3 0 00-2.9-1.8c-2.3 0-2.3 2.3-2.3 3.5s2.9 15.2 2.9 15.2l-8.2-12.3zM119 120.2c0-.6-.5-1.2-1.1-1.2l-11.1 2.9-2.1 2c1.7-1.9 3.1-3.9 4.4-6.1 1.2-2.3 2.3-1.8 2.3-1.8s2.9 0 3.5-1.8-.6-1.8-2.9-2.3c-1.5-.3-3 .1-4.1 1.2l-8.8 9.9-3.5-5.2 1.8-3.5c-1.8 2.3-12.2 5.2-12.2 5.2l5.2 1.2c2 1.7 3.8 3.7 5.2 5.8 1.8 2.9-2.3 14-2.3 14-.3 2.5 3.7 1.5 4.7-2.2.5-2.8 1.2-5.5 2-8.1 1.4.2 9.3 1.1 10.9 1.1.9 0 1.7-.7 1.8-1.7v-.1l-5.8-3.5c-.1.1 12.1-4.6 12.1-5.8z"></path><g xmlns="http://www.w3.org/2000/svg" fill="#010101" opacity=".1"><path d="M59.5 114.4c-.6-.2-1.2-.2-1.8 0-1.8 1.2 1.8 5.2 1.8 5.2l9.3 11.1 1.2 11.1s-.3 1.2 1.2 1.2c2-.3 1.8-1.8 1.8-1.8l-.6-11.1 8.8-14c1.2-1.8-.9-3.8-3.5-1.2l-5.8 12.8-1.9-17.9s0-1.2-2.3-1.2-1.8 2.9-1.8 2.9l2.9 16.9-9.3-14zM92.4 118.2l5.3 7 1.5-2.1-3.6-5.1 1.4-2.9-4.6 2.5z"></path></g><path xmlns="http://www.w3.org/2000/svg" d="M99.8 126.7c2.3-1.8 6.6-8.3 9.2-12.1 2.2-1.6 4.9-2.2 6-.2-.5 1.8-3.5 1.8-3.5 1.8s-1.2-.6-2.3 1.8-5.8 8.2-7.6 9.3-3.6 11-3.6 11c-1 1.9-2 3-3.1 3l4.9-14.6z" opacity=".1"></path><path xmlns="http://www.w3.org/2000/svg" d="M106.8 122l11.1-2.9c.6 0 1.2.5 1.2 1.1 0 1.2-12.2 5.8-12.2 5.8l5.8 3.5c0 .9-.7 1.7-1.7 1.8h-.1c-1.8 0-11.1-1.2-11.1-1.2l1.2-2.5 5.8-5.6z" fill="#010101" opacity=".2"></path>
</g>
</g></svg>