<svg viewBox="0 0 160 160" width="160" height="160" xmlns="http://www.w3.org/2000/svg">
<defs><clipPath id="hexagon-clip-32">
<path d="M251.6 17.34l63.53 110.03c5.72 9.9 5.72 22.1 0 32L251.6 269.4c-5.7 9.9-16.27 16-27.7 16H96.83c-11.43 0-22-6.1-27.7-16L5.6 159.37c-5.7-9.9-5.7-22.1 0-32L69.14 17.34c5.72-9.9 16.28-16 27.7-16H223.9c11.43 0 22 6.1 27.7 16z" transform="scale(0.5) translate(0, 16)"></path>
</clipPath></defs>
<g clip-path="url(#hexagon-clip-32)">
<g color="#FC8702" fill="#5961A8">
<rect fill="#0582CA" x="0" y="0" width="160" height="160"></rect>
<circle cx="80" cy="80" r="40" fill="#FC8702"></circle>
<g opacity=".1" fill="#010101"><path d="M119.21,80a39.46,39.46,0,0,1-67.13,28.13c10.36,2.33,36,3,49.82-14.28,10.39-12.47,8.31-33.23,4.16-43.26A39.35,39.35,0,0,1,119.21,80Z"></path></g>
<path xmlns="http://www.w3.org/2000/svg" d="M75.3 38.8A13.9 13.9 0 0060 34c-10 3-7.4 13.4-16.2 19.2S34 51 34 51s-1 24 21 16c0 0 9-2 12-9-.1 2.5-.7 4.9-2 7 4.7-.8 9.4-1.7 14-7 0 0 3-5 4 0 3 7 14 7 14 7s-3-6 0-10c3-3 2.8-1.8 2.8-1.8S103 63 113 62s10-12 10-12-3 7-6 2-10.4-21.1-17.7-13.5-24 .3-24 .3z"></path><path xmlns="http://www.w3.org/2000/svg" d="M74 22l2 24s11-3 22 1l5-25-10 10-4-16-7 15-8-9z" fill="#ff0"></path><path xmlns="http://www.w3.org/2000/svg" d="M75.8 43.4L76 46s11-3 22 1l.5-2.6a40.2 40.2 0 00-22.7-1z" fill="#d68227"></path><g xmlns="http://www.w3.org/2000/svg" opacity=".2"><path d="M89 16l4 16.4-3-1.8-2.3-11.8zm-15 6.4l8 8.2-3 .9-4.7-5.8zM93.5 45.6l4.1 1.3 5.9-24.8-5.6 5.2-4.4 18.3z"></path></g>
<path xmlns="http://www.w3.org/2000/svg" d="M53.5 84.2a2.5 2.5 0 00-2.9-2.2l-16 2.4-2.3-8s0-2-1.7-.7l2.6 8.9-3.8.6-2.3-7.9s0-2-1.7-.7l2.6 8.9-2.2.3c.4 1.3.5 2.6.2 3.9l3.4-.3 2.4 8.4h.1c-.2.5.1 1 .5 1.1.4.2.8 0 1.1-.4h.1v-.2a1 1 0 00-.2-.9L31 89l3.6-.4 2.6 8.9h.1c-.2.4 0 1 .4 1.2l.5.2c.6 0 1-.5 1-1a1 1 0 00-.7-.9l-2.4-8.4L51.5 87c1.2-.1 2.2-1.4 2-2.8z" fill="#fff"></path><path xmlns="http://www.w3.org/2000/svg" d="M51.3 87.1l-15.4 1.6-.5-1.6s18.8-2.3 18-2.9c.1 0 .6 2.1-2.1 2.9z" opacity=".2"></path><path xmlns="http://www.w3.org/2000/svg" d="M8.8 87.5a8.5 8.5 0 019.5-7.3c4.7.5 8 4.7 7.5 9.3a8.5 8.5 0 01-9.5 7.3 8.4 8.4 0 01-7.5-9.3zM146.7 77.5c-.5 4-4.3 6.9-8.3 6.3a7.4 7.4 0 01-6-4.9c-.1-.4 4.6.1 4.6-1.9 0-1-1.7-1-3-.9l-2 .2.1-.8c.6-4 4.3-6.9 8.3-6.3s6.9 4.2 6.3 8.3z"></path><g xmlns="http://www.w3.org/2000/svg" fill="#010101" opacity=".3"><path d="M25.8 89.4a8.5 8.5 0 01-9.5 7.3 9 9 0 01-5.7-3.1c2.2.8 7.7 1.6 11.1-1.8 2.5-2.4 2.6-6.8 2-9a8.6 8.6 0 012.1 6.6zM146.7 77.5c-.6 4-4.3 6.9-8.3 6.3a7.4 7.4 0 01-4.8-2.8c1.9.7 6.6 1.5 9.6-1.4 2.2-2.1 2.4-6 1.9-7.9a8 8 0 011.6 5.8z"></path></g><path xmlns="http://www.w3.org/2000/svg" d="M137.1 76.5c-.2-.8-2.3-.5-2.3-.5l-6.4.5-1.5-5.7s0-1.4-1.2-.5l1.7 6.3-3.3.3-1.6-5.8s0-1.4-1.2-.5L123 77l-3.7.3.1 3.2 4.6-.6 2.1 8h.1c-.2.4 0 .9.3 1.1.4.2.8 0 1-.3h.1v-.2c.1-.3 0-.6-.2-.8l-2.1-8 3.1-.4 2.3 8.5h.1c-.2.4 0 .8.4 1 .4.2.8 0 1-.3h.1v-.2c.1-.3 0-.6-.2-.8l-2.3-8.5 5.5-.7c1.6 0 2-.8 1.8-1.8z" fill="#fff"></path><g xmlns="http://www.w3.org/2000/svg" opacity=".2"><path d="M123.9 80l-4.6.5v-1.4l4-.4.2-.1zM128.3 79.4l-3.1.4-.3-1.4 3.1-.3zM134.4 78.7l-4.7.6-.4-1.4 7.5-.9c0 .1.8.9-2.4 1.7zM29.4 89.3l-3.4.3.1-1.5 2.6-.3.3.2zM30.3 87.9l3.5-.6.5 1.4-3.5.4z"></path><circle cx="38" cy="98" r="1"></circle><circle cx="32.7" cy="98.2" r=".9"></circle></g>
<path xmlns="http://www.w3.org/2000/svg" d="M79 88.5c-.3-.1-6.4 4.2-8.3 6.2s.4 7.8 8.3 4c3.2-1.2 7.1-4.7 7.1-4.7s-4.8-2.4-7.1-5.5z" fill="#f15a24"></path><path xmlns="http://www.w3.org/2000/svg" d="M81.1 92.7c-2 1.8-4.2 3.5-6.6 4.8-2.9 1.4-2.1 2.2 0 2.1s5.5-.8 9.7-4.2l1.9-1.4-4-2.2-1 .9z" fill="#e84715"></path><path xmlns="http://www.w3.org/2000/svg" d="M76.1 83.3c-.5-2.6 3.3 13.4 18.4 12.7 16-.8 16.5-13.6 16.5-13.6" fill="none" stroke="#42210b" stroke-width="2" stroke-linecap="round" stroke-linejoin="round"></path><g xmlns="http://www.w3.org/2000/svg" fill="#010101" opacity=".6"><path d="M77 75s0-12 6-12 6 11.6 6 11.6S84 63 77 75zM100 75s0-12 6-12 6 11.6 6 11.6-5-11.6-12 .4z"></path></g>
<ellipse xmlns="http://www.w3.org/2000/svg" cx="36.9" cy="126.7" rx="15.4" ry="25.6" transform="rotate(-10.1)"></ellipse><path xmlns="http://www.w3.org/2000/svg" d="M59 118c.3 1.7-1.5 3.6-1.5 3.6s-2.4-1-2.8-3 1.6-3.6 1.6-3.6 2.4 1 2.7 3z" fill="#010101" opacity=".5"></path><path xmlns="http://www.w3.org/2000/svg" d="M120.7 120.8c-2.6 13.5-11.2 23.1-19.2 21.6-7.6-1.4-12-12.2-10.4-24.6C94 116 107 113 115.6 96.3c4.8 4.5 7 14.1 5 24.5z"></path><g xmlns="http://www.w3.org/2000/svg" fill="#010101" opacity=".4"><path d="M49.2 120.3c.8 4.2 4.7 16.4 10 18.5-5.2 1-11.1-7.1-13-18s.7-20.6 6-21.6c-4.6 2.3-3.8 16.9-3 21zM97 116.7c-.7 4-1.4 16.4 2.7 20.2-5-1-7.5-9.8-5.8-19.9l3.4-1.6-.3 1.3z"></path></g><g xmlns="http://www.w3.org/2000/svg" fill="#fff" opacity=".2"><path d="M55.6 92.9a25.6 15.4 79.9 00-1.5.1 25.6 15.4 79.9 00-10.7 28 25.6 15.4 79.9 0019.7 22.5 25.6 15.4 79.9 0010.6-28 25.6 15.4 79.9 00-18-22.6zm-2.5 6.3c5 0 10.4 7.8 12.2 18.1 2 11-.7 20.6-6 21.5a4.9 4.9 0 01-.9 0c-5 0-10.4-7.7-12.2-18-2-11 .7-20.6 6-21.6a4.8 4.8 0 01.9 0zM115.6 96.3C107 113 94 116 91 117.8c-1.6 12.4 2.8 23.2 10.4 24.6 8 1.5 16.6-8.1 19.2-21.6 2-10.4-.3-20-5.1-24.5zm-4 7c1.7 4 2.1 9.8 1 16.2-2 10-7.2 17.4-12 17.4a4.3 4.3 0 01-1 0c-4.9-1-7.4-9.8-5.8-19.9.1-.3 11.2-4 17.8-13.6z"></path></g>
</g>
</g></svg> 