<svg width="65" height="67" viewBox="0 0 65 67" fill="none" xmlns="http://www.w3.org/2000/svg">
<rect x="13.6953" y="9.07202" width="43.6597" height="43.6597" rx="12.6227" transform="rotate(18.2701 13.6953 9.07202)" fill="#5865F2"/>
<path d="M37.8004 32.0913C36.678 31.0264 35.4189 30.1174 34.0562 29.3882C33.7679 29.6566 33.4119 30.028 33.151 30.3309C31.6701 29.5802 30.1255 29.0703 28.5174 28.8011C28.4882 28.4026 28.4186 27.8906 28.3451 27.5028C26.8146 27.2769 25.2602 27.2583 23.7232 27.4474C19.7483 30.5994 17.7351 34.288 16.8161 38.2763C18.1354 40.1751 19.5715 41.5381 21.0704 42.6146C21.6759 42.1764 22.2443 41.6886 22.7698 41.1561C22.2455 40.7278 21.7603 40.2532 21.3202 39.7378C21.5007 39.6776 21.6793 39.6116 21.8557 39.5401C24.6718 42.2112 28.2948 43.4073 32.108 42.9248C32.208 43.0867 32.3122 43.246 32.4204 43.4024C31.7588 43.555 31.0851 43.6477 30.4076 43.6795C30.5137 44.4234 30.6791 45.1541 30.9046 45.863C32.7514 45.8911 34.7183 45.6516 36.9094 44.9099C38.8112 40.5627 38.9557 36.2971 37.8004 32.0913ZM24.282 38.1018C23.281 37.7713 22.7707 36.5595 23.1489 35.4138C23.5272 34.2681 24.6417 33.5909 25.6602 33.9272C26.6788 34.2635 27.1891 35.4752 26.7928 36.6168C26.4161 37.763 25.3006 38.4381 24.282 38.1018ZM31.0148 40.3246C30.0138 39.9941 29.5036 38.7823 29.8818 37.6366C30.2601 36.4909 31.3745 35.8137 32.393 36.15C33.4116 36.4862 33.9219 37.698 33.5256 38.8395C33.1474 39.9852 32.0334 40.6608 31.0148 40.3246Z" fill="white"/>
<g clip-path="url(#clip0_3295_23028)">
<circle cx="50.3016" cy="22.591" r="9.55056" transform="rotate(18.2701 50.3016 22.591)" fill="#19AA6E"/>
<path d="M48.021 26.6489C47.6835 25.5926 46.4141 23.1724 45.8216 22.0944C45.4682 21.4408 46.3355 20.4786 47.0979 21.6107C47.7078 22.5164 48.537 24.1442 48.8754 24.8449C50.156 22.5834 54.4988 19.5167 55.1798 19.1403C55.8607 18.7638 55.8607 18.7638 56.2848 19.1952C56.624 19.5403 56.2548 19.8776 56.0278 20.0031C52.0255 22.8815 49.7235 25.7077 49.4665 26.5156C49.2096 27.3234 48.4429 27.9692 48.021 26.6489Z" fill="white"/>
</g>
<defs>
<clipPath id="clip0_3295_23028">
<rect x="43.3594" y="8.80444" width="21.8299" height="21.8299" rx="10.9149" transform="rotate(18.2701 43.3594 8.80444)" fill="white"/>
</clipPath>
</defs>
</svg>
