<svg width="35" height="36" viewBox="0 0 35 36" fill="none" xmlns="http://www.w3.org/2000/svg">
<rect x="1.83594" y="13.9497" width="23.409" height="23.409" rx="6.76791" transform="rotate(-19.8308 1.83594 13.9497)" fill="black"/>
<path fill-rule="evenodd" clip-rule="evenodd" d="M15.4246 16.4033C14.4038 16.7716 13.5473 17.4911 13.0083 18.4331C12.4693 19.375 12.2831 20.478 12.4828 21.5448C12.6826 22.6115 13.2554 23.5723 14.0987 24.2554C14.942 24.9385 16.0008 25.2993 17.0857 25.2733C17.3151 25.2357 17.3597 25.0704 17.3187 24.9567L17.055 24.2257C15.9532 24.9146 15.4001 24.17 15.4001 24.17C15.2211 23.937 14.9636 23.777 14.6754 23.7197C14.1901 23.5963 14.612 23.4476 14.612 23.4476C14.7552 23.4177 14.9033 23.4209 15.0451 23.457C15.1868 23.4931 15.3185 23.5612 15.4299 23.6559C15.6258 23.8264 15.8815 23.9121 16.1406 23.8942C16.3997 23.8762 16.641 23.7561 16.8116 23.5603C16.7503 23.3361 16.7728 23.0973 16.8747 22.8884C15.8827 23.1212 14.7454 23.1148 14.1516 21.4685C13.9905 21.0434 13.9997 20.5725 14.1774 20.1541C13.9123 19.8311 13.781 19.4189 13.8106 19.0021C13.8106 19.0021 14.1279 18.7557 15.1516 19.0148C15.7862 18.569 16.5286 18.3013 17.3016 18.2394C17.9213 17.3877 18.3227 17.3749 18.3227 17.3749C18.6116 17.6768 18.7736 18.078 18.7756 18.4958C19.1795 18.7045 19.4871 19.0611 19.6344 19.4912C20.2303 21.1437 19.3566 21.8684 18.4371 22.3215C18.5773 22.3885 18.7014 22.4848 18.8013 22.6039C18.9011 22.723 18.9742 22.8621 19.0158 23.0118L19.4411 24.1913C19.4921 24.3326 19.6076 24.4124 19.8225 24.2863C20.6755 23.6131 21.2607 22.6579 21.4732 21.5922C21.6858 20.5266 21.5117 19.42 20.9823 18.471C20.4529 17.522 19.6027 16.7927 18.5842 16.4138C17.5657 16.0348 16.4456 16.0311 15.4246 16.4033Z" fill="white"/>
<g clip-path="url(#clip0_3295_23026)">
<circle cx="21.4683" cy="7.64861" r="5.12072" transform="rotate(-19.8308 21.4683 7.64861)" fill="#19AA6E"/>
<path d="M21.9761 10.178C21.4842 9.84398 20.1479 9.24282 19.5413 8.98399C19.176 8.82512 19.2236 8.13223 19.9198 8.35766C20.4767 8.53799 21.3652 8.95045 21.7397 9.13414C21.5318 7.75631 22.3496 5.02563 22.5124 4.64149C22.6751 4.25735 22.6751 4.25735 22.9968 4.29908C23.2541 4.33247 23.2099 4.59691 23.1556 4.72495C22.4193 7.26358 22.383 9.21762 22.5419 9.64349C22.7007 10.0694 22.5909 10.5955 21.9761 10.178Z" fill="white"/>
</g>
<defs>
<clipPath id="clip0_3295_23026">
<rect x="13.9766" y="4.12866" width="11.7045" height="11.7045" rx="5.85225" transform="rotate(-19.8308 13.9766 4.12866)" fill="white"/>
</clipPath>
</defs>
</svg>
