<svg width="130" height="210" viewBox="0 0 130 210" fill="none" xmlns="http://www.w3.org/2000/svg">
<g clip-path="url(#clip0_3295_23049)">
<path d="M72.6635 149.207L48.1099 158.859L54.3148 150.923L72.6635 149.207Z" fill="#E2761B" stroke="#E2761B" stroke-width="0.212864" stroke-linecap="round" stroke-linejoin="round"/>
<path d="M25.47 136.435L41.6026 157.251L40.4699 147.175L25.47 136.435ZM55.7873 182.414L48.0848 189.282L58.8679 195.64L65.2918 185.184L55.7873 182.414ZM13.7382 171.234L13.9922 183.497L26.51 183.444L23.3223 173.629L13.7382 171.234Z" fill="#E4761B" stroke="#E4761B" stroke-width="0.212864" stroke-linecap="round" stroke-linejoin="round"/>
<path d="M31.9132 160.828L27.3379 164.861L38.7671 168.505L41.7199 155.962L31.9132 160.828ZM54.7825 167.017L48.7039 157.698L45.0341 170.201L56.7207 172.812L54.7825 167.017ZM26.4992 183.444L34.3617 181.933L29.6295 175.625L26.4992 183.444ZM42.0259 184.007L48.0741 189.282L49.2934 180.946L42.0259 184.007Z" fill="#E4761B" stroke="#E4761B" stroke-width="0.212864" stroke-linecap="round" stroke-linejoin="round"/>
<path d="M48.0793 189.282L42.0311 184.007L41.3572 188.698L40.7784 190.592L48.0793 189.282ZM26.5045 183.444L32.1485 188.257L32.6245 186.335L34.3669 181.933L26.5045 183.444Z" fill="#D7C1B3" stroke="#D7C1B3" stroke-width="0.212864" stroke-linecap="round" stroke-linejoin="round"/>
<path d="M36.0848 174.149L30.7519 170.876L35.3468 170.112L36.0848 174.149ZM44.4887 176.423L47.1616 173.309L50.7651 176.291L44.4887 176.423Z" fill="#233447" stroke="#233447" stroke-width="0.212864" stroke-linecap="round" stroke-linejoin="round"/>
<path d="M26.4993 183.445L29.7429 175.369L23.2615 173.814L26.4993 183.445ZM49.3452 180.674L48.0741 189.283L55.7265 182.599L49.3452 180.674ZM56.7208 172.812L45.0341 170.201L44.4958 176.428L47.1687 173.315L50.7722 176.297L56.7208 172.812ZM30.7384 170.876L35.3539 170.118L36.0713 174.149L38.7672 168.505L27.3379 164.861L30.7384 170.876Z" fill="#CD6116" stroke="#CD6116" stroke-width="0.212864" stroke-linecap="round" stroke-linejoin="round"/>
<path d="M27.3516 164.861L29.6432 175.625L30.752 170.876L27.3516 164.861ZM50.7858 176.297L49.3071 180.946L56.7344 172.812L50.7858 176.297ZM38.7808 168.505L36.0849 174.149L35.5451 181.523L38.3498 172.38L38.7808 168.505ZM45.0478 170.201L43.4922 173.75L41.2368 183.063L44.5094 176.429L45.0478 170.201Z" fill="#E4751F" stroke="#E4751F" stroke-width="0.212864" stroke-linecap="round" stroke-linejoin="round"/>
<path d="M44.4839 176.429L41.2113 183.063L42.0141 184.008L49.2816 180.947L50.7603 176.297L44.4839 176.429ZM30.7266 170.876L29.6177 175.626L34.3499 181.934L35.5196 181.523L36.0595 174.149L30.7266 170.876Z" fill="#F6851B" stroke="#F6851B" stroke-width="0.212864" stroke-linecap="round" stroke-linejoin="round"/>
<path d="M40.7661 190.593L41.3449 188.699L40.9535 188.108L33.2071 186.012L32.6122 186.336L32.1362 188.258L26.4922 183.445L28.252 185.906L31.9723 190.331L39.842 192.46L45.3064 190.521L48.067 189.283L40.7661 190.593Z" fill="#C0AD9E" stroke="#C0AD9E" stroke-width="0.212864" stroke-linecap="round" stroke-linejoin="round"/>
<path d="M42.0335 184.008L41.2307 183.063L35.539 181.522L34.3693 181.934L32.6268 186.336L33.2217 186.011L40.9681 188.108L41.3595 188.699L42.0335 184.008Z" fill="#161616" stroke="#161616" stroke-width="0.212864" stroke-linecap="round" stroke-linejoin="round"/>
<path d="M69.1566 165.61L73.1716 157.7L72.6693 149.206L48.9328 158.528L54.7951 167.017L64.6908 173.068L67.8249 170.939L66.9977 169.922L69.0473 168.867L68.0403 167.536L70.0232 166.727L69.1566 165.61ZM20.7756 143.522L20.2536 152.378L18.9217 152.899L20.2263 154.597L18.706 155.245L19.944 157.189L18.7164 157.651L20.3288 161.064L31.9258 160.828L41.2686 156.454L25.4718 136.435L20.7756 143.522Z" fill="#763D16" stroke="#763D16" stroke-width="0.212864" stroke-linecap="round" stroke-linejoin="round"/>
<path d="M64.6862 173.069L54.7905 167.018L56.7287 172.812L49.3014 180.947L55.7344 182.599L65.289 185.184L64.6862 173.069ZM31.9212 160.829L20.3242 161.065L13.7354 171.234L23.2694 173.814L29.6374 175.626L27.3458 164.862L31.9212 160.829ZM45.042 170.201L48.9282 158.529L54.3366 150.929L40.467 147.176L41.264 156.455L38.7751 168.506L38.0097 172.312L35.5394 181.523L41.231 183.063L43.763 173.869L45.042 170.201Z" fill="#F6851B" stroke="#F6851B" stroke-width="0.212864" stroke-linecap="round" stroke-linejoin="round"/>
</g>
<path d="M28.9606 124.732C28.7134 124.471 27.9092 123.493 27.4229 122.848C26.2722 121.377 25.3432 119.683 25.0429 117.816C24.998 117.524 24.8411 117.057 25.9646 116.702C27.133 116.331 27.896 116.367 27.9949 116.773C28.253 117.754 28.463 118.835 29.189 119.604C30.2286 120.708 31.035 121.95 32.1679 122.921C32.3535 123.086 32.5479 123.245 32.7394 123.4L32.86 123.502L32.8927 123.524L32.951 123.567C33.0248 123.624 33.123 123.691 33.2189 123.648C33.2786 123.616 33.3087 123.548 33.3229 123.483C33.3292 123.454 33.3299 123.417 33.329 123.387L33.3242 123.34C33.3229 123.329 33.3185 123.332 33.3217 123.317L33.6669 122.209C33.8682 121.55 34.0795 120.897 34.3565 120.269C34.8309 119.189 35.5768 118.225 36.1441 117.184C36.277 116.938 36.2096 116.544 36.3444 116.273C36.4582 116.046 36.6326 115.663 36.825 115.472C36.9073 115.388 37.0039 115.308 37.0061 115.196C37.016 114.671 37.4559 114.723 38.6232 115.401C38.8797 115.551 39.2536 115.663 39.3927 115.852C39.3983 115.861 39.4139 115.875 39.4195 115.884C40.0253 116.533 39.5333 116.718 39.4086 117.063C38.7843 118.757 38.0814 120.415 37.4083 122.091L36.7669 123.623C36.6611 123.882 36.5597 124.138 36.4683 124.4L36.2826 124.92C36.1959 125.16 36.112 125.405 36.011 125.642C35.8038 126.157 35.5753 126.735 35.1029 126.951L35.1116 126.945C34.9021 127.128 34.6642 127.287 34.4012 127.406C34.1484 127.512 33.8761 127.587 33.6008 127.591C33.0746 127.607 32.5496 127.48 32.0371 127.228C31.7799 127.115 31.5357 126.926 31.2926 126.749C31.0568 126.573 30.7866 126.382 30.5779 126.219C30.0431 125.778 29.5516 125.328 29.1389 124.827C29.1006 124.796 29.0129 124.785 28.9606 124.732Z" fill="#402D28"/>
<path d="M36.3373 98.3042C35.9847 99.3436 35.1592 103.133 34.7525 105.582L34.2118 109.856C34.0896 111.284 34.0148 112.72 33.8998 114.15C33.8771 114.51 33.8329 114.865 33.8218 115.223L33.8071 116.299L33.7547 118.454L33.7169 119.532C33.6986 119.889 33.6903 120.252 33.7094 120.61L33.7507 122.766C33.7595 123.667 33.8718 125.192 32.7027 125.293C31.4859 125.405 30.6948 124.419 30.6122 122.776C30.5776 121.787 30.4941 120.798 30.5201 119.807L30.6053 116.836L30.6306 115.353C30.6227 114.858 30.6924 114.37 30.7104 113.877C30.7723 112.894 30.8083 111.91 30.814 110.925C30.9896 105.165 32.2482 99.5076 33.8327 93.993C35.3057 89.0369 37.3684 84.2893 39.6536 79.6584L41.3745 76.449C41.6685 75.9157 41.9253 75.3629 42.2421 74.8459L43.1895 73.2904L44.1412 71.7321C44.4679 71.221 44.7635 70.6805 45.1328 70.1976C45.8433 69.2068 46.5593 68.2247 47.2925 67.2501C47.9024 66.3914 48.6273 65.6256 49.3295 64.8436L51.4699 62.5312L53.7672 60.3774C54.5401 59.6673 55.269 58.9174 56.0898 58.263C56.8425 57.6274 57.5853 56.6776 58.4099 55.9713C59.0642 55.3555 60.2825 54.4838 61.0435 54.0155C61.373 53.8172 61.7211 53.6192 61.9926 53.3592C63.2403 52.148 63.8456 52.2171 64.1756 53.6585C64.2489 53.9755 64.5904 54.201 64.3882 54.6078C64.3806 54.625 64.3656 54.6592 64.358 54.6764C63.8776 56.075 62.6731 56.5248 61.6885 57.3087C56.9867 61.2655 52.7414 65.7628 49.1 70.7124C48.548 71.4785 47.9549 72.2093 47.4356 72.9977L45.8949 75.3705C44.8236 76.9251 43.9945 78.6269 43.1215 80.289C42.6288 81.1961 42.3546 82.2038 41.8117 83.0999L41.8192 83.0827C41.3853 84.0817 40.9713 85.0926 40.5118 86.0709C38.9154 89.8604 37.4726 93.9093 36.4336 97.7124C36.3989 97.8702 36.3962 98.0877 36.3373 98.3042Z" fill="#402D28"/>
<path d="M106.059 61.4267C106.309 61.6793 107.124 62.6281 107.618 63.2548C108.786 64.6841 109.736 66.3391 110.062 68.1827C110.111 68.471 110.274 68.9299 109.16 69.3103C108.002 69.7081 107.241 69.6919 107.137 69.2926C106.865 68.3258 106.64 67.2601 105.906 66.5165C104.854 65.4478 104.033 64.2377 102.89 63.3039C102.703 63.1452 102.507 62.9922 102.314 62.8435L102.192 62.7457L102.159 62.7245L102.101 62.6835C102.026 62.6283 101.927 62.5647 101.832 62.6096C101.773 62.6429 101.744 62.7116 101.731 62.776C101.725 62.8046 101.725 62.8418 101.727 62.8718L101.732 62.9175C101.733 62.9289 101.738 62.926 101.735 62.9403L101.407 64.0483C101.216 64.7067 101.015 65.3595 100.748 65.9885C100.291 67.0717 99.5624 68.0467 99.0124 69.0933C98.8836 69.3399 98.9565 69.7294 98.8261 70.0017C98.7161 70.2296 98.5479 70.6136 98.359 70.8078C98.2783 70.8926 98.1832 70.9747 98.1827 71.0861C98.1804 71.6061 97.7414 71.5663 96.5687 70.9242C96.311 70.7816 95.9368 70.6799 95.7956 70.4965C95.7898 70.488 95.7741 70.4738 95.7684 70.4653C95.1554 69.838 95.6429 69.6418 95.7621 69.2967C96.3594 67.6012 97.0355 65.9394 97.6816 64.2606L98.2983 62.725C98.3999 62.4657 98.4972 62.2093 98.5845 61.9473L98.7619 61.4275C98.8447 61.1869 98.9247 60.9421 99.0219 60.7043C99.2208 60.1886 99.4401 59.61 99.9076 59.3839L99.8989 59.3897C100.105 59.2026 100.34 59.0396 100.6 58.9149C100.85 58.8032 101.12 58.7214 101.395 58.711C101.919 58.6817 102.443 58.7939 102.958 59.0304C103.215 59.1358 103.462 59.317 103.706 59.4868C103.944 59.6552 104.216 59.8377 104.426 59.9934C104.965 60.4169 105.461 60.8507 105.88 61.3364C105.918 61.3662 106.006 61.3756 106.059 61.4267Z" fill="#402D28"/>
<path d="M99.0947 87.815C99.4308 86.7755 100.198 82.9973 100.568 80.559L101.044 76.3084C101.145 74.8891 101.199 73.4644 101.292 72.0437C101.31 71.6864 101.349 71.3333 101.354 70.9775L101.353 69.9104L101.374 67.773L101.396 66.7028C101.409 66.3484 101.412 65.9884 101.388 65.6342L101.316 63.4975C101.294 62.6047 101.16 61.0956 102.323 60.9663C103.533 60.8238 104.336 61.7813 104.442 63.4077C104.491 64.3875 104.588 65.3654 104.577 66.3484L104.535 69.2959L104.532 70.7674C104.547 71.2573 104.484 71.7435 104.474 72.2322C104.426 73.2082 104.405 74.1856 104.413 75.1613C104.322 80.8764 103.151 86.5175 101.653 92.025C100.257 96.9761 98.2715 101.735 96.0623 106.385L94.3948 109.611C94.1097 110.147 93.8618 110.701 93.5538 111.222L92.6326 112.788L91.7072 114.358C91.3892 114.873 91.1026 115.416 90.7416 115.904C90.0483 116.905 89.3493 117.897 88.6331 118.881C88.038 119.748 87.327 120.526 86.6389 121.319L84.5402 123.666L82.283 125.86C81.5234 126.584 80.8082 127.346 80 128.016C79.2595 128.665 78.5333 129.626 77.7221 130.347C77.0792 130.974 75.8783 131.87 75.1269 132.353C74.8017 132.559 74.4577 132.764 74.1911 133.028C72.9657 134.261 72.3617 134.208 72.0119 132.787C71.9344 132.475 71.5908 132.26 71.7864 131.852C71.7936 131.835 71.8081 131.8 71.8154 131.783C72.2736 130.384 73.467 129.907 74.4365 129.105C79.0629 125.062 83.2265 120.495 86.7821 115.495C87.3208 114.722 87.9011 113.982 88.4069 113.187L89.9072 110.795C90.9518 109.227 91.753 107.518 92.5985 105.848C93.0761 104.936 93.3346 103.93 93.8624 103.028L93.8552 103.045C94.2729 102.044 94.6706 101.031 95.1141 100.05C96.6493 96.2519 98.0277 92.201 99.0074 88.4042C99.0397 88.2468 99.0392 88.0311 99.0947 87.815Z" fill="#402D28"/>
<rect x="79.4766" y="0.49585" width="50.8933" height="50.8933" rx="25.4467" transform="rotate(19.3832 79.4766 0.49585)" fill="#402D28"/>
<path d="M99.6667 16.0277C99.3353 15.9111 98.9721 16.0853 98.8555 16.4167L97.7487 19.5626L95.0536 18.6144C92.61 17.7547 89.8105 19.1693 88.9143 21.7165L88.2554 23.5895C86.5654 28.2781 87.3925 30.9776 90.3122 32.0049L97.0634 34.3801C97.5138 34.707 99.3138 35.1719 98.3869 37.7204L97.8057 39.4584C96.284 40.1378 95.5553 38.6666 93.3049 37.8749L88.8041 36.2914C88.8041 36.2914 88.1638 36.1031 87.9367 35.8585L88.6232 33.9072C88.7398 33.5758 88.5657 33.2126 88.2342 33.096L85.841 32.254C85.5096 32.1374 85.1464 32.3115 85.0298 32.643L83.923 35.7888C83.4749 37.0625 83.8113 38.4017 84.4761 39.267C85.0917 40.1571 86.0547 40.7485 87.0968 41.1152L89.7919 42.0634L88.6851 45.2093C88.5685 45.5407 88.7427 45.9039 89.0741 46.0205L91.4674 46.8625C91.7988 46.9791 92.162 46.805 92.2786 46.4735L93.3854 43.3277L96.0805 44.2759C98.56 45.1482 101.31 43.7584 102.22 41.1737L102.879 39.3007C103.775 36.7534 105.323 32.4689 100.822 30.8854L91.8203 27.7184C91.3699 27.3915 91.6511 25.4157 91.8488 24.8538L92.4053 23.1573C92.4053 23.1573 92.8761 23.1104 93.3792 23.2874L102.354 26.4449C102.749 26.584 103.171 26.6481 103.288 26.7736L102.511 28.983C102.394 29.3144 102.568 29.6776 102.9 29.7943L105.293 30.6363C105.625 30.7529 105.988 30.5787 106.104 30.2473L107.211 27.1014C107.659 25.8278 107.323 24.4886 106.658 23.6232C106.042 22.7331 105.079 22.1417 104.037 21.7751L101.342 20.8268L102.449 17.681C102.566 17.3495 102.391 16.9863 102.06 16.8697L99.6667 16.0277Z" fill="#FFF9F0"/>
<defs>
<clipPath id="clip0_3295_23049">
<rect width="67.8186" height="67.8186" fill="white" transform="translate(18.3125 126.672) rotate(15.1412)"/>
</clipPath>
</defs>
</svg>
