<svg width="29" height="30" viewBox="0 0 29 30" fill="none" xmlns="http://www.w3.org/2000/svg">
<rect x="4.35938" y="4.99536" width="20.7789" height="20.7789" rx="6.0075" transform="rotate(11.0524 4.35938 4.99536)" fill="white"/>
<path fill-rule="evenodd" clip-rule="evenodd" d="M7.61303 19.6871C6.80194 18.7288 7.04497 16.9167 7.20163 16.4696L7.23928 16.2242C7.3562 15.4592 7.47269 14.6969 7.7672 13.574C8.09313 12.3312 9.10064 11.5993 9.53752 11.5513C9.97657 11.4879 10.6771 11.3636 11.3544 11.2434L11.3544 11.2434C11.8876 11.1487 12.4064 11.0567 12.7719 10.9989C13.6017 10.8677 14.6045 11.2346 14.8709 11.4089C15.1243 11.556 15.6141 11.8717 16.176 12.2338C16.7648 12.6133 17.4327 13.0437 17.9904 13.3846C19.0655 14.0417 18.696 15.7179 18.5868 16.2132L18.5824 16.2331L17.9871 19.2805C17.7463 20.5133 16.9361 21.2304 16.5611 21.4349C16.311 21.5512 15.9372 21.7867 15.4988 22.0631C14.8459 22.4746 14.0495 22.9765 13.3043 23.3095C12.0586 23.8661 10.5011 23.3463 10.0588 22.9488C9.77623 22.6677 9.34378 22.0533 8.87957 21.3937L8.87957 21.3937C8.4537 20.7886 8.0011 20.1456 7.61303 19.6871ZM13.4751 13.3716C12.9649 13.272 11.8429 13.5921 11.6509 14.5751C11.4464 15.6222 11.8027 16.5781 12.781 16.8013L12.823 16.8095L12.8556 16.8159L12.8649 16.8177C13.3145 16.9055 14.5027 16.2219 14.7119 15.1757C14.9204 14.1079 13.9854 13.4713 13.4751 13.3716ZM13.0635 20.8177C14.2805 21.1756 15.5848 21.5592 15.8272 20.3181C15.9468 19.7057 15.5681 19.1808 15.1375 18.697C13.9238 17.3233 11.5847 16.8664 9.93272 17.6803C9.35705 17.9676 8.78839 18.387 8.68374 18.9227C8.4413 20.1639 9.79399 20.2993 11.0563 20.4256C11.4153 20.4616 11.767 20.4968 12.0726 20.5565C12.3782 20.6161 12.7173 20.7159 13.0635 20.8177Z" fill="#402D28"/>
<g clip-path="url(#clip0_3295_23024)">
<circle cx="22.5584" cy="9.21063" r="4.54538" transform="rotate(11.0524 22.5584 9.21063)" fill="#19AA6E"/>
<path d="M21.5304 10.9874C21.3078 10.5088 20.5638 9.44204 20.2196 8.96846C20.0136 8.68098 20.3656 8.17483 20.7933 8.66377C21.1354 9.05491 21.6242 9.7739 21.8259 10.0845C22.2953 8.94016 24.1624 7.23254 24.4614 7.01407C24.7605 6.79559 24.7605 6.79559 24.9865 6.97393C25.1673 7.11659 25.0131 7.29791 24.9134 7.37073C23.1958 8.96913 22.2779 10.4412 22.2049 10.838C22.1319 11.2348 21.8085 11.5855 21.5304 10.9874Z" fill="white"/>
</g>
<defs>
<clipPath id="clip0_3295_23024">
<rect x="18.4531" y="3.11646" width="10.3894" height="10.3894" rx="5.19472" transform="rotate(11.0524 18.4531 3.11646)" fill="white"/>
</clipPath>
</defs>
</svg>
