<svg width="48" height="49" viewBox="0 0 48 49" fill="none" xmlns="http://www.w3.org/2000/svg">
<rect x="2.88281" y="18.4905" width="32" height="32" rx="9.2517" transform="rotate(-17.6737 2.88281 18.4905)" fill="#55ACEE"/>
<path d="M28.8385 22.2737C28.3897 22.6778 27.8832 23.0107 27.3357 23.2611C27.8132 22.7092 28.0855 21.9895 28.0818 21.2364C27.6268 21.7577 27.0865 22.1949 26.4844 22.5292C25.7788 22.1263 24.9188 22.0081 24.0925 22.2713C22.506 22.7769 21.6381 24.4996 22.1541 26.1189C22.2273 26.3487 22.324 26.5644 22.4414 26.7634C20.015 27.4018 17.5263 26.909 15.5442 25.5864C15.435 26.0982 15.4538 26.6471 15.625 27.1844C15.9492 28.2018 16.7423 28.9376 17.6806 29.2179C17.2198 29.3486 16.7336 29.365 16.2626 29.2657C16.2663 29.278 16.2702 29.2903 16.2742 29.3026C16.7268 30.7233 18.0947 31.593 19.4946 31.4436C19.109 31.6958 18.6708 31.8544 18.2134 31.9072C18.9501 32.9557 20.2811 33.4653 21.5457 33.0886C20.8131 34.1882 19.7238 35.0517 18.378 35.4805C18.1461 35.5544 17.913 35.6134 17.6796 35.6579C19.216 36.0848 20.8807 36.0891 22.5029 35.5722C27.7868 33.8886 29.2525 28.4998 28.0179 24.625C27.9774 24.4979 27.9343 24.3723 27.8887 24.2483C28.3188 23.6541 28.6405 22.9855 28.8385 22.2737Z" fill="white"/>
<g clip-path="url(#clip0_3295_23029)">
<circle cx="30.826" cy="10.6384" r="7" transform="rotate(-17.6737 30.826 10.6384)" fill="#19AA6E"/>
<path d="M31.1393 13.9887C30.4846 13.5072 28.6901 12.6172 27.8747 12.2324C27.3838 11.9966 27.4845 11.0526 28.424 11.3963C29.1755 11.6713 30.3679 12.2805 30.8702 12.5507C30.657 10.6578 31.9146 6.9697 32.1567 6.45333C32.3989 5.93696 32.3989 5.93696 32.8361 6.01052C33.1858 6.06936 33.1119 6.42832 33.0312 6.60044C31.8946 10.0304 31.7446 12.6978 31.9397 13.2877C32.1348 13.8776 31.9577 14.5907 31.1393 13.9887Z" fill="white"/>
</g>
<defs>
<clipPath id="clip0_3295_23029">
<rect x="20.7734" y="5.44482" width="16" height="16" rx="8" transform="rotate(-17.6737 20.7734 5.44482)" fill="white"/>
</clipPath>
</defs>
</svg>
