<svg width="18" height="19" viewBox="0 0 18 19" fill="none" xmlns="http://www.w3.org/2000/svg">
<path d="M9 18.2393C13.8325 18.2393 17.75 14.3217 17.75 9.48926C17.75 4.65677 13.8325 0.739258 9 0.739258C4.16751 0.739258 0.25 4.65677 0.25 9.48926C0.25 14.3217 4.16751 18.2393 9 18.2393Z" fill="#627EEA"/>
<path d="M9.27344 2.92676V7.77754L13.3734 9.60957L9.27344 2.92676Z" fill="white" fill-opacity="0.602"/>
<path d="M9.27234 2.92676L5.17188 9.60957L9.27234 7.77754V2.92676Z" fill="white"/>
<path d="M9.27344 12.7535V16.0496L13.3761 10.3735L9.27344 12.7535Z" fill="white" fill-opacity="0.602"/>
<path d="M9.27234 16.0496V12.753L5.17188 10.3735L9.27234 16.0496Z" fill="white"/>
<path d="M9.27344 11.9918L13.3734 9.61121L9.27344 7.78027V11.9918Z" fill="white" fill-opacity="0.2"/>
<path d="M5.17188 9.61121L9.27234 11.9918V7.78027L5.17188 9.61121Z" fill="white" fill-opacity="0.602"/>
</svg>
