<svg xmlns="http://www.w3.org/2000/svg" xmlns:xlink="http://www.w3.org/1999/xlink" width="500" zoomAndPan="magnify" viewBox="0 0 375 374.999991" height="500" preserveAspectRatio="xMidYMid meet" version="1.0"><defs><clipPath id="7d47bb643a"><path d="M 13 6 L 184.976562 6 L 184.976562 366 L 13 366 Z M 13 6 " clip-rule="nonzero"/></clipPath><clipPath id="148f7f0c20"><path d="M 114 51 L 184.976562 51 L 184.976562 189 L 114 189 Z M 114 51 " clip-rule="nonzero"/></clipPath><clipPath id="3716b708ac"><path d="M 114 204 L 184.976562 204 L 184.976562 321 L 114 321 Z M 114 204 " clip-rule="nonzero"/></clipPath><clipPath id="355205ab29"><path d="M 114 150 L 184.976562 150 L 184.976562 238 L 114 238 Z M 114 150 " clip-rule="nonzero"/></clipPath><clipPath id="9f0a534fcf"><path d="M 184.660156 6.703125 L 365.925781 6.703125 L 365.925781 363.703125 L 184.660156 363.703125 Z M 184.660156 6.703125 " clip-rule="nonzero"/></clipPath><clipPath id="63f6f852be"><path d="M 184.660156 122 L 325 122 L 325 281 L 184.660156 281 Z M 184.660156 122 " clip-rule="nonzero"/></clipPath><clipPath id="08b331e02f"><path d="M 184.660156 86 L 325 86 L 325 259 L 184.660156 259 Z M 184.660156 86 " clip-rule="nonzero"/></clipPath></defs><g clip-path="url(#7d47bb643a)"><path fill="#627eea" d="M 193.226562 365.589844 C 292.292969 365.589844 372.601562 285.179688 372.601562 185.988281 C 372.601562 86.796875 292.292969 6.386719 193.226562 6.386719 C 94.160156 6.386719 13.851562 86.796875 13.851562 185.988281 C 13.851562 285.179688 94.160156 365.589844 193.226562 365.589844 Z M 193.226562 365.589844 " fill-opacity="1" fill-rule="nonzero"/></g><g clip-path="url(#148f7f0c20)"><path fill="#ffffff" d="M 198.8125 51.285156 L 114.75 188.457031 L 198.8125 150.851562 Z M 198.8125 51.285156 " fill-opacity="1" fill-rule="nonzero"/></g><g clip-path="url(#3716b708ac)"><path fill="#ffffff" d="M 198.8125 320.644531 L 198.8125 252.980469 L 114.75 204.136719 Z M 198.8125 320.644531 " fill-opacity="1" fill-rule="nonzero"/></g><g clip-path="url(#355205ab29)"><path fill="#ffffff" d="M 114.75 188.492188 L 198.8125 237.355469 L 198.8125 150.910156 Z M 114.75 188.492188 " fill-opacity="0.602" fill-rule="nonzero"/></g><g clip-path="url(#9f0a534fcf)"><path fill="#0c0c4f" d="M 8.925781 185.199219 C 8.925781 283.78125 88.84375 363.699219 187.425781 363.699219 C 286.007812 363.699219 365.925781 283.78125 365.925781 185.199219 C 365.925781 86.617188 286.007812 6.703125 187.425781 6.703125 C 88.84375 6.703125 8.925781 86.617188 8.925781 185.199219 Z M 8.925781 185.199219 " fill-opacity="1" fill-rule="evenodd"/></g><g clip-path="url(#63f6f852be)"><path fill="#ec796b" d="M 324.914062 135.226562 C 319.273438 128.917969 310.472656 125.371094 301.914062 123.914062 C 293.289062 122.515625 284.246094 122.644531 275.730469 124.15625 C 258.503906 127.070312 242.851562 134.207031 229.199219 143.003906 C 222.113281 147.324219 216.066406 152.320312 209.800781 157.410156 C 206.785156 159.984375 204.035156 162.726562 201.167969 165.429688 L 193.339844 173.21875 C 184.832031 182.113281 176.445312 190.210938 168.332031 196.925781 C 160.1875 203.609375 152.570312 208.683594 145.0625 212.226562 C 137.5625 215.789062 129.539062 217.886719 119.074219 218.222656 C 108.707031 218.585938 96.4375 216.714844 83.316406 213.625 C 70.121094 210.550781 56.269531 206.167969 40.785156 202.394531 C 46.1875 217.382812 54.324219 230.625 64.765625 242.734375 C 75.332031 254.628906 88.527344 265.46875 105.476562 272.601562 C 122.183594 279.890625 143.175781 282.507812 162.804688 278.558594 C 182.488281 274.769531 199.757812 265.664062 213.71875 255.128906 C 227.714844 244.492188 239.039062 232.371094 248.585938 219.769531 C 251.21875 216.289062 252.613281 214.339844 254.519531 211.617188 L 259.792969 203.8125 C 263.453125 198.980469 266.789062 193.484375 270.414062 188.699219 C 277.523438 178.675781 284.53125 168.667969 292.675781 159.445312 C 296.773438 154.765625 301.09375 150.292969 306.195312 145.992188 C 308.742188 143.894531 311.492188 141.839844 314.535156 139.992188 C 317.628906 137.996094 320.894531 136.433594 324.914062 135.226562 Z M 324.914062 135.226562 " fill-opacity="1" fill-rule="evenodd"/></g><g clip-path="url(#08b331e02f)"><path fill="#fafafa" d="M 324.914062 135.226562 C 318.855469 119.9375 307.589844 107.070312 292.472656 97.574219 C 277.449219 88.179688 256.578125 83.386719 235.898438 87.472656 C 225.683594 89.449219 215.785156 93.253906 207.097656 98.320312 C 198.453125 103.367188 190.703125 109.441406 183.996094 115.957031 C 180.648438 119.226562 177.605469 122.636719 174.585938 126.0625 L 166.761719 136.042969 L 154.671875 152.105469 C 139.261719 172.769531 122.667969 196.992188 95.433594 204.167969 C 68.699219 211.210938 57.105469 204.972656 40.785156 202.394531 C 43.769531 210.097656 47.464844 217.578125 52.476562 224.160156 C 57.394531 230.875 63.199219 237.179688 70.421875 242.585938 C 74.070312 245.183594 77.921875 247.746094 82.199219 249.917969 C 86.460938 252.015625 91.054688 253.867188 95.957031 255.253906 C 105.707031 257.929688 116.6875 258.867188 127.316406 257.425781 C 137.953125 256.007812 148.117188 252.636719 157.003906 248.164062 C 165.957031 243.726562 173.753906 238.328125 180.714844 232.628906 C 194.554688 221.132812 205.320312 208.433594 214.414062 195.597656 C 218.988281 189.179688 223.140625 182.640625 226.980469 176.097656 L 231.5 168.3125 C 232.882812 166.035156 234.28125 163.742188 235.699219 161.609375 C 241.425781 153.039062 247.027344 146.167969 253.832031 141.011719 C 260.539062 135.71875 269.882812 131.808594 282.367188 130.902344 C 294.796875 129.984375 309.148438 131.679688 324.914062 135.226562 Z M 324.914062 135.226562 " fill-opacity="1" fill-rule="evenodd"/></g><path fill="#ec796b" d="M 257.652344 262.246094 C 257.652344 273.476562 266.761719 282.582031 277.988281 282.582031 C 289.21875 282.582031 298.3125 273.476562 298.3125 262.246094 C 298.3125 251.019531 289.21875 241.910156 277.988281 241.910156 C 266.761719 241.910156 257.652344 251.019531 257.652344 262.246094 Z M 257.652344 262.246094 " fill-opacity="1" fill-rule="evenodd"/></svg>