<svg width="20" height="21" viewBox="0 0 20 21" fill="none" xmlns="http://www.w3.org/2000/svg">
<path d="M10.0063 1.7393C14.8447 1.75391 18.7504 5.66101 18.75 10.4863C18.7496 15.3286 14.808 19.2617 9.9781 19.2393C5.14394 19.2172 1.2372 15.2947 1.25003 10.4756C1.26251 5.6464 5.19313 1.72504 10.0063 1.7393Z" fill="#29296A"/>
<path d="M4.25686 9.48222C5.14649 9.30365 5.93062 9.45086 6.58679 9.91991C6.98919 10.2075 7.36807 10.5251 7.71273 10.8634C8.50327 11.6393 9.38078 12.4409 10.4411 13.0468C11.339 13.5604 12.2136 13.8602 13.1154 13.9642C14.9388 14.1749 16.6536 13.1919 17.3814 11.5192C17.4081 11.4579 17.4737 11.2864 17.5379 11.1114C17.6034 10.9329 17.6551 10.7468 17.6922 10.5586L17.7952 10.0315C17.2873 10.2489 16.8065 10.4613 16.3193 10.6534C15.826 10.848 15.3149 10.9699 14.7759 10.93C14.2492 10.8912 13.784 10.6745 13.3663 10.3822C12.5547 9.81441 11.7603 9.22132 10.9729 8.62004C10.2405 8.06081 9.53119 7.47236 8.67364 7.10168C7.80041 6.72387 6.89474 6.52606 5.94594 6.64938C4.54342 6.83151 3.46667 7.53901 2.73173 8.74906C2.45158 9.21063 2.25234 9.70499 2.19531 10.246C2.7859 9.9502 3.48449 9.63727 4.25721 9.48222H4.25686Z" fill="#FAFAFA"/>
<path d="M13.6078 14.347C13.4324 14.347 13.256 14.337 13.0778 14.3164C12.1275 14.2069 11.2087 13.8922 10.2684 13.3547C9.17316 12.7289 8.27497 11.9091 7.46768 11.1164C7.1362 10.791 6.77158 10.4855 6.38415 10.2086C5.80283 9.79302 5.13097 9.66898 4.33045 9.83009C3.71313 9.95412 3.13929 10.1876 2.63281 10.4289C2.70481 10.4446 2.77645 10.4617 2.84667 10.4838C3.53171 10.699 4.12622 11.0861 4.67867 11.5288C5.51983 12.2031 6.33212 12.9135 7.17113 13.5907C8.507 14.6699 9.9833 15.4452 11.7283 15.6013C12.8874 15.705 13.9813 15.4815 14.9835 14.8852C15.9391 14.3164 16.6334 13.5472 17.1313 12.6305C16.293 13.7069 15.0039 14.347 13.6081 14.347H13.6078Z" fill="#EC5D2C"/>
<path d="M14.2798 5.43872C14.3347 5.5207 14.3786 5.56525 14.3975 5.61836C14.4627 5.8037 14.5226 5.99082 14.5785 6.17937C14.6363 6.37362 14.7589 6.49551 14.9535 6.55183C15.1477 6.60779 15.3416 6.66659 15.5327 6.73289C15.5801 6.74928 15.6154 6.7999 15.656 6.83483C15.6146 6.87546 15.5804 6.93391 15.5305 6.95316C15.3637 7.01767 15.1934 7.07684 15.0205 7.12139C14.7771 7.18412 14.6306 7.32633 14.5718 7.57298C14.529 7.75261 14.4684 7.92833 14.4057 8.10226C14.3893 8.14717 14.3347 8.17818 14.2973 8.21596C14.2602 8.17782 14.2064 8.1461 14.1897 8.10084C14.1195 7.91122 14.056 7.71911 13.9983 7.52522C13.9405 7.33061 13.8204 7.20871 13.6237 7.15418C13.4287 7.10036 13.2348 7.04084 13.0441 6.97454C12.9967 6.95815 12.9625 6.90504 12.9219 6.86869C12.9632 6.82734 12.9971 6.76675 13.047 6.74822C13.2309 6.67978 13.4191 6.62169 13.6076 6.56608C13.8079 6.50692 13.9352 6.38431 13.9904 6.17972C14.0414 5.99011 14.1013 5.80263 14.1644 5.61658C14.1825 5.56382 14.2264 5.51963 14.2802 5.43872H14.2798Z" fill="#FAFAFA"/>
<path d="M5.66899 14.9012C5.67077 15.1689 5.46832 15.3745 5.20207 15.3766C4.9262 15.3788 4.71663 15.1717 4.71877 14.899C4.7209 14.6339 4.92656 14.4321 5.1953 14.4321C5.4644 14.4321 5.66756 14.6335 5.66934 14.9012H5.66899Z" fill="#FAFAFA"/>
</svg>
