<svg width="309" height="343" viewBox="0 0 309 343" fill="none" xmlns="http://www.w3.org/2000/svg">
<path d="M185.034 312.872C185.034 312.872 204.538 305.494 223.721 275.378C223.721 275.378 209.997 289.189 201.405 295.393C191.265 302.773 185.686 311.604 185.034 312.872Z" fill="url(#paint0_linear_44_4210)"/>
<path d="M185.566 301.322C185.566 301.322 222.5 277.733 237.736 237.152C237.736 237.152 228.733 258.756 211.549 272.793C194.323 286.785 187.277 296.612 185.566 301.322Z" fill="url(#paint1_linear_44_4210)"/>
<path d="M185.934 290.678C185.934 290.678 227.39 252.912 229.477 209.021C229.477 209.021 226.54 233.48 206.625 257.618C186.791 281.755 185.934 290.678 185.934 290.678Z" fill="url(#paint2_linear_44_4210)"/>
<path d="M185.49 274.87C185.49 274.87 217.906 242.084 225.122 202C225.122 202 213.227 230.442 199.094 249.508C190.053 261.645 185.49 274.87 185.49 274.87Z" fill="url(#paint3_linear_44_4210)"/>
<path d="M222.441 174.731C222.441 174.731 218.236 223.513 183.986 263.681C183.986 263.681 189.446 243.753 203.05 222.83C216.694 201.952 222.441 174.731 222.441 174.731Z" fill="url(#paint4_linear_44_4210)"/>
<path d="M218.167 164.085C218.167 164.085 216.529 205.666 182.97 248.779C182.97 248.779 187.453 230.028 196.413 216.351C205.333 202.629 213.683 188.453 218.167 164.085Z" fill="url(#paint5_linear_44_4210)"/>
<path d="M212.431 152.08C212.431 152.08 208.224 207.022 181.387 232.789C181.387 232.789 185.299 217.208 196.704 197.553C208.109 177.897 212.431 152.08 212.431 152.08Z" fill="url(#paint6_linear_44_4210)"/>
<path d="M208.769 139.759C208.769 139.759 202.039 187.091 179.842 218.203C179.842 218.203 181.474 204.162 191.78 183.917C202.086 163.673 207.016 147.594 208.769 139.759Z" fill="url(#paint7_linear_44_4210)"/>
<path d="M204.743 114.166C204.743 114.166 203.509 165.802 176.955 199.948C176.955 199.948 178.301 188.852 185.511 175.129C192.721 161.315 201.032 137.945 204.743 114.166Z" fill="url(#paint8_linear_44_4210)"/>
<path d="M200.556 88.3008C200.556 88.3008 200.174 151.306 173.782 187.808C173.782 187.808 176.473 171.231 181.81 160.588C187.146 149.944 197.535 122.362 200.556 88.3008Z" fill="url(#paint9_linear_44_4210)"/>
<path d="M186.878 75.5239C186.878 75.5239 197.615 125.804 171.423 176.574C171.423 176.574 169.633 173.494 177.374 148.402C185.116 123.31 188.459 107.458 186.878 75.5239Z" fill="url(#paint10_linear_44_4210)"/>
<path d="M181.055 81.1841C181.055 81.1841 181.162 144.19 168.494 165.884C168.494 165.884 167.276 153.653 172.655 132.728C178.075 111.848 179.217 105.87 181.055 81.1841Z" fill="url(#paint11_linear_44_4210)"/>
<path d="M171.941 51.1958C171.941 51.1958 177.623 126.66 165.973 153.381C165.973 153.381 166.508 128.333 169.892 108.992C173.357 89.6521 171.941 51.1958 171.941 51.1958Z" fill="url(#paint12_linear_44_4210)"/>
<path d="M165.061 46.0762C165.061 46.0762 172.211 112.662 161.821 144.684C161.821 144.684 161.05 133.949 162.683 113.475C164.317 93.0022 165.951 69.8113 165.061 46.0762Z" fill="url(#paint13_linear_44_4210)"/>
<path d="M152.807 38.7798C152.807 38.7798 164.117 79.0051 157.305 131.139C157.305 131.139 155.639 116.236 155.114 99.0689C154.588 81.9017 158.582 65.5962 152.807 38.7798Z" fill="url(#paint14_linear_44_4210)"/>
<path d="M185.034 312.872C185.034 312.872 203.439 306.717 223.64 275.559C223.64 275.559 210.404 291.726 200.428 299.378C193.994 304.359 187.6 310.744 185.034 312.872Z" fill="#39B54A"/>
<path d="M185.485 301.504C185.485 301.504 222.418 277.914 237.655 237.333C237.655 237.333 232.195 254.001 210.53 276.462C198.068 289.413 192.245 294.983 185.485 301.504Z" fill="#39B54A"/>
<path d="M185.812 290.904C185.812 290.904 227.349 252.957 229.477 209.021C229.477 209.021 226.743 233.888 208.253 259.339C193.591 279.447 185.812 290.904 185.812 290.904Z" fill="#39B54A"/>
<path d="M185.408 275.051C185.408 275.051 217.947 242.039 225.122 202C225.122 202 218.602 225.008 200.926 251.275C194.206 261.283 185.408 275.051 185.408 275.051Z" fill="#39B54A"/>
<path d="M222.441 174.731C222.441 174.731 218.155 223.694 183.904 263.862C183.904 263.862 194.494 244.841 204.393 226.318C216.246 204.171 222.441 174.731 222.441 174.731Z" fill="#39B54A"/>
<path d="M218.167 164.085C218.167 164.085 216.529 205.666 182.97 248.779C182.97 248.779 189.855 232.157 198.815 218.48C207.776 204.803 213.683 188.453 218.167 164.085Z" fill="#39B54A"/>
<path d="M212.348 152.261C212.348 152.261 208.141 207.203 181.304 232.97C181.304 232.97 186.314 224.138 196.498 205.117C210.102 179.664 212.348 152.261 212.348 152.261Z" fill="#39B54A"/>
<path d="M208.646 139.985C208.646 139.985 201.917 187.317 179.72 218.429C179.72 218.429 185.586 204.389 193.978 185.729C203.306 164.851 206.934 147.775 208.646 139.985Z" fill="#39B54A"/>
<path d="M204.662 114.347C204.662 114.347 203.428 165.983 176.874 200.13C176.874 200.13 180.663 190.03 187.954 176.307C198.137 157.376 200.951 138.126 204.662 114.347Z" fill="#39B54A"/>
<path d="M200.434 88.5273C200.434 88.5273 200.052 151.533 173.66 188.035C173.66 188.035 179.323 172.681 184.659 162.038C190.036 151.349 197.413 122.589 200.434 88.5273Z" fill="#39B54A"/>
<path d="M186.878 75.5239C186.878 75.5239 197.534 125.986 171.342 176.755C171.342 176.755 172.035 174.264 179.817 149.127C187.6 123.99 189.885 102.792 186.878 75.5239Z" fill="#39B54A"/>
<path d="M181.055 81.1841C181.055 81.1841 181.162 144.19 168.494 165.884C168.494 165.884 169.514 158.319 174.201 138.798C179.418 117.058 179.217 105.87 181.055 81.1841Z" fill="#39B54A"/>
<path d="M171.859 50.29C171.859 50.29 177.541 125.754 165.89 152.475C165.89 152.475 168.5 136.623 170.989 113.568C173.151 94.0459 171.859 50.29 171.859 50.29Z" fill="#39B54A"/>
<path d="M165.061 46.0762C165.061 46.0762 172.211 112.662 161.821 144.684C161.821 144.684 163.045 134.357 164.719 113.929C166.393 93.501 165.951 69.8113 165.061 46.0762Z" fill="#39B54A"/>
<path d="M152.807 38.7798C152.807 38.7798 164.076 78.7786 157.264 130.912C157.264 130.912 158.326 115.421 157.76 98.2995C157.194 81.1776 158.582 65.5962 152.807 38.7798Z" fill="#39B54A"/>
<path d="M141.45 28.9478C141.45 28.9478 152.675 79.1381 149.044 109.984C149.044 109.984 145.751 91.9099 145.062 78.6381C144.373 65.3662 144.703 46.1609 141.45 28.9478Z" fill="url(#paint15_linear_44_4210)"/>
<path d="M141.45 28.9478C141.45 28.9478 152.675 79.1381 149.044 109.984C149.044 109.984 149.252 93.2696 147.667 78.8198C146.205 65.6837 144.703 46.1609 141.45 28.9478Z" fill="#39B54A"/>
<path d="M126.752 25.0933C126.752 25.0933 143.64 62.3759 142.533 95.2152C142.533 95.2152 140.987 90.4134 138.385 77.277C135.782 64.1405 135.623 46.8374 126.752 25.0933Z" fill="url(#paint16_linear_44_4210)"/>
<path d="M126.752 25.0933C126.752 25.0933 143.64 62.3759 142.533 95.2152C142.533 95.2152 142.494 87.6507 139.892 74.5143C137.289 61.3778 135.623 46.8374 126.752 25.0933Z" fill="#39B54A"/>
<path d="M100.527 46.647C100.527 46.647 125.801 90.0924 148.476 108.262C148.476 108.262 138.87 93.2211 130.648 83.6162C122.426 74.0114 109.644 61.0535 100.527 46.647Z" fill="url(#paint17_linear_44_4210)"/>
<path d="M100.527 46.647C100.527 46.647 125.801 90.0924 148.476 108.262C148.476 108.262 137.363 96.9803 128.978 85.8354C121.367 75.6418 109.644 61.0535 100.527 46.647Z" fill="#39B54A"/>
<path d="M99.2283 30.5215C99.2283 30.5215 114.568 70.8843 139.116 88.8729C139.116 88.8729 136.715 84.388 129.022 73.8321C121.329 63.2761 108.873 52.9455 99.2283 30.5215Z" fill="url(#paint18_linear_44_4210)"/>
<path d="M99.2283 30.5215C99.2283 30.5215 114.568 70.8843 139.116 88.8729C139.116 88.8729 133.661 84.4325 125.927 73.8313C118.194 63.2301 108.873 52.9455 99.2283 30.5215Z" fill="#39B54A"/>
<path d="M139.359 88.8734C139.359 88.8734 131.102 53.6763 110.223 22.3716C110.223 22.3716 125.846 69.3022 139.359 88.8734Z" fill="url(#paint19_linear_44_4210)"/>
<path d="M139.359 88.8734C139.359 88.8734 131.102 53.6763 110.223 22.3716C110.223 22.3716 129.553 62.101 139.359 88.8734Z" fill="#39B54A"/>
<path d="M185.36 312.238C185.36 312.238 165.166 307.613 142.738 280.385C142.738 280.385 157.922 292.211 167.123 297.195C178.115 303.087 184.627 311.06 185.36 312.238Z" fill="url(#paint20_linear_44_4210)"/>
<path d="M185.36 312.238C185.36 312.238 166.428 308.655 142.86 280.611C142.86 280.611 157.799 294.792 168.547 301.046C175.549 305.034 182.632 310.471 185.36 312.238Z" fill="#39B54A"/>
<path d="M184.304 300.552C184.304 300.552 145.017 282.288 125.361 244.098C125.361 244.098 136.756 264.303 155.32 275.813C174.006 287.368 182.106 296.112 184.304 300.552Z" fill="url(#paint21_linear_44_4210)"/>
<path d="M184.467 300.733C184.467 300.733 145.18 282.469 125.524 244.279C125.524 244.279 132.808 259.999 156.826 279.391C170.585 290.447 176.936 295.159 184.467 300.733Z" fill="#39B54A"/>
<path d="M183.777 290.541C183.777 290.541 135.657 264.348 124.592 222.129C124.592 222.129 132.445 245.187 156.829 263.629C181.091 282.025 183.777 290.541 183.777 290.541Z" fill="url(#paint22_linear_44_4210)"/>
<path d="M183.899 290.677C183.899 290.677 135.616 264.303 124.552 222.084C124.552 222.084 132.323 245.595 155.567 265.667C173.966 281.525 183.899 290.677 183.899 290.677Z" fill="#39B54A"/>
<path d="M184.92 275.232C184.92 275.232 145.513 253.843 128.543 217.647C128.543 217.647 147.103 241.206 165.544 255.116C177.228 263.952 184.92 275.232 184.92 275.232Z" fill="url(#paint23_linear_44_4210)"/>
<path d="M185.002 275.413C185.002 275.413 145.472 253.887 128.462 217.646C128.462 217.646 140.55 237.715 164.079 257.379C173.116 264.901 185.002 275.413 185.002 275.413Z" fill="#39B54A"/>
<path d="M125.577 187.433C125.577 187.433 140.549 233.458 182.683 262.956C182.683 262.956 172.956 245.152 155.045 228.66C137.216 212.168 125.577 187.433 125.577 187.433Z" fill="url(#paint24_linear_44_4210)"/>
<path d="M125.577 187.433C125.577 187.433 140.671 233.684 182.846 263.137C182.846 263.137 168.314 247.688 154.556 232.465C138.152 214.206 125.577 187.433 125.577 187.433Z" fill="#39B54A"/>
<path d="M128.633 176.97C128.633 176.97 139.739 216.698 182.075 248.869C182.075 248.869 173.448 232.016 161.643 221.323C149.878 210.585 138.562 199.258 128.633 176.97Z" fill="url(#paint25_linear_44_4210)"/>
<path d="M128.633 176.97C128.633 176.97 139.739 216.698 182.075 248.869C182.075 248.869 171.615 234.779 159.81 223.995C148.046 213.348 138.562 199.258 128.633 176.97Z" fill="#39B54A"/>
<path d="M128.228 165.737C128.228 165.737 147.434 216.565 180.044 231.928C180.044 231.928 172.026 218.473 155.702 203.657C139.379 188.841 128.228 165.737 128.228 165.737Z" fill="url(#paint26_linear_44_4210)"/>
<path d="M128.391 165.918C128.391 165.918 147.597 216.745 180.207 232.109C180.207 232.109 173.002 225.448 158.103 210.769C138.116 191.15 128.391 165.918 128.391 165.918Z" fill="#39B54A"/>
<path d="M123.588 157.221C123.588 157.221 147.194 197.359 178.907 215.621C178.907 215.621 172.233 203.571 155.38 189.796C138.445 175.932 128.025 163.608 123.588 157.221Z" fill="url(#paint27_linear_44_4210)"/>
<path d="M123.711 157.356C123.711 157.356 147.317 197.495 179.03 215.757C179.03 215.757 168.446 205.608 153.995 192.423C137.794 177.652 128.148 163.744 123.711 157.356Z" fill="#39B54A"/>
<path d="M115.002 139.417C115.002 139.417 138.28 184.176 176.264 199.993C176.264 199.993 170.322 191.023 158.069 182.731C145.815 174.439 128.474 158.309 115.002 139.417Z" fill="url(#paint28_linear_44_4210)"/>
<path d="M115.205 139.553C115.205 139.553 138.483 184.311 176.467 200.129C176.467 200.129 168.815 193.242 156.48 185.131C139.341 173.848 128.636 158.49 115.205 139.553Z" fill="#39B54A"/>
<path d="M107.107 116.767C107.107 116.767 135.31 171.447 174.434 188.714C174.434 188.714 164.788 175.802 155.384 169.413C145.98 163.115 124.812 144.81 107.107 116.767Z" fill="url(#paint29_linear_44_4210)"/>
<path d="M107.27 116.948C107.27 116.948 135.473 171.627 174.597 188.895C174.597 188.895 162.914 178.61 153.51 172.221C144.106 165.922 124.934 144.945 107.27 116.948Z" fill="#39B54A"/>
<path d="M108.618 100.777C108.618 100.777 124.567 149.248 171.547 175.622C171.547 175.622 171.507 171.953 152.578 155.778C133.649 139.602 123.106 128.321 108.618 100.777Z" fill="url(#paint30_linear_44_4210)"/>
<path d="M108.618 100.777C108.618 100.777 124.77 149.384 171.75 175.758C171.75 175.758 169.918 174.082 150.989 157.906C132.06 141.731 119.565 125.285 108.618 100.777Z" fill="#39B54A"/>
<path d="M113.463 101.368C113.463 101.368 145.575 153.331 167.071 163.12C167.071 163.12 161.821 152.293 146.719 138.474C131.616 124.655 127.586 120.532 113.463 101.368Z" fill="url(#paint31_linear_44_4210)"/>
<path d="M113.463 101.368C113.463 101.368 145.575 153.331 167.071 163.12C167.071 163.12 162.349 157.502 148.549 144.408C133.203 129.864 127.586 120.532 113.463 101.368Z" fill="#39B54A"/>
<path d="M106.099 75.5928C106.099 75.5928 141.709 140.149 165.362 153.97C165.362 153.97 151.564 134.172 138.538 120.852C125.512 107.532 106.099 75.5928 106.099 75.5928Z" fill="url(#paint32_linear_44_4210)"/>
<path d="M106.099 75.5928C106.099 75.5928 141.709 140.149 165.362 153.97C165.362 153.97 154.819 142.87 140.491 126.016C128.362 111.699 106.099 75.5928 106.099 75.5928Z" fill="#39B54A"/>
<path d="M99.3455 51.9463C99.3455 51.9463 130.52 109.39 156.37 127.56C156.37 127.56 151.039 118.545 138.461 103.548C125.883 88.5523 111.8 71.3362 99.3455 51.9463Z" fill="url(#paint33_linear_44_4210)"/>
<path d="M99.3455 51.9463C99.3455 51.9463 130.52 109.39 156.37 127.56C156.37 127.56 149.735 120.266 137.076 105.269C124.417 90.2732 111.8 71.3362 99.3455 51.9463Z" fill="#39B54A"/>
<path d="M108.502 71.1089C108.502 71.1089 125.349 109.524 162.229 142.6C162.229 142.6 153.845 130.005 143.791 117.093C133.738 104.091 120.67 95.0737 108.502 71.1089Z" fill="url(#paint34_linear_44_4210)"/>
<path d="M108.502 71.1089C108.502 71.1089 125.349 109.524 162.229 142.6C162.229 142.6 151.402 131.454 141.307 118.497C131.254 105.494 120.67 95.0737 108.502 71.1089Z" fill="#39B54A"/>
<path d="M186.98 338.058C186.98 338.058 196.91 185.73 139.647 88.919C138.915 87.6506 138.1 87.5598 137.327 86.3366C137.327 86.3366 194.225 179.207 181.279 341.318L186.98 338.058Z" fill="url(#paint35_linear_44_4210)"/>
<defs>
<linearGradient id="paint0_linear_44_4210" x1="223.059" y1="294.941" x2="185.705" y2="293.64" gradientUnits="userSpaceOnUse">
<stop stop-color="#54B948"/>
<stop offset="0.3764" stop-color="#00A651"/>
<stop offset="1" stop-color="#005826"/>
</linearGradient>
<linearGradient id="paint1_linear_44_4210" x1="236.547" y1="270.307" x2="186.668" y2="268.569" gradientUnits="userSpaceOnUse">
<stop stop-color="#54B948"/>
<stop offset="0.3764" stop-color="#00A651"/>
<stop offset="1" stop-color="#005826"/>
</linearGradient>
<linearGradient id="paint2_linear_44_4210" x1="228.008" y1="250.734" x2="187.337" y2="249.317" gradientUnits="userSpaceOnUse">
<stop stop-color="#54B948"/>
<stop offset="0.3764" stop-color="#00A651"/>
<stop offset="1" stop-color="#005826"/>
</linearGradient>
<linearGradient id="paint3_linear_44_4210" x1="223.799" y1="239.227" x2="186.773" y2="237.937" gradientUnits="userSpaceOnUse">
<stop stop-color="#54B948"/>
<stop offset="0.3764" stop-color="#00A651"/>
<stop offset="1" stop-color="#005826"/>
</linearGradient>
<linearGradient id="paint4_linear_44_4210" x1="220.82" y1="219.973" x2="185.521" y2="218.743" gradientUnits="userSpaceOnUse">
<stop stop-color="#54B948"/>
<stop offset="0.3764" stop-color="#00A651"/>
<stop offset="1" stop-color="#005826"/>
</linearGradient>
<linearGradient id="paint5_linear_44_4210" x1="216.656" y1="207.133" x2="184.426" y2="206.01" gradientUnits="userSpaceOnUse">
<stop stop-color="#54B948"/>
<stop offset="0.3764" stop-color="#00A651"/>
<stop offset="1" stop-color="#005826"/>
</linearGradient>
<linearGradient id="paint6_linear_44_4210" x1="211.002" y1="193.052" x2="182.8" y2="192.07" gradientUnits="userSpaceOnUse">
<stop stop-color="#54B948"/>
<stop offset="0.3764" stop-color="#00A651"/>
<stop offset="1" stop-color="#005826"/>
</linearGradient>
<linearGradient id="paint7_linear_44_4210" x1="207.342" y1="179.539" x2="181.155" y2="178.627" gradientUnits="userSpaceOnUse">
<stop stop-color="#54B948"/>
<stop offset="0.3764" stop-color="#00A651"/>
<stop offset="1" stop-color="#005826"/>
</linearGradient>
<linearGradient id="paint8_linear_44_4210" x1="203.209" y1="157.565" x2="178.46" y2="156.703" gradientUnits="userSpaceOnUse">
<stop stop-color="#54B948"/>
<stop offset="0.3764" stop-color="#00A651"/>
<stop offset="1" stop-color="#005826"/>
</linearGradient>
<linearGradient id="paint9_linear_44_4210" x1="198.81" y1="138.57" x2="175.471" y2="137.757" gradientUnits="userSpaceOnUse">
<stop stop-color="#54B948"/>
<stop offset="0.3764" stop-color="#00A651"/>
<stop offset="1" stop-color="#005826"/>
</linearGradient>
<linearGradient id="paint10_linear_44_4210" x1="188.279" y1="126.47" x2="172.949" y2="125.936" gradientUnits="userSpaceOnUse">
<stop stop-color="#54B948"/>
<stop offset="0.3764" stop-color="#00A651"/>
<stop offset="1" stop-color="#005826"/>
</linearGradient>
<linearGradient id="paint11_linear_44_4210" x1="179.743" y1="123.752" x2="169.692" y2="123.402" gradientUnits="userSpaceOnUse">
<stop stop-color="#54B948"/>
<stop offset="0.3764" stop-color="#00A651"/>
<stop offset="1" stop-color="#005826"/>
</linearGradient>
<linearGradient id="paint12_linear_44_4210" x1="173.221" y1="102.448" x2="167.719" y2="102.256" gradientUnits="userSpaceOnUse">
<stop stop-color="#54B948"/>
<stop offset="0.3764" stop-color="#00A651"/>
<stop offset="1" stop-color="#005826"/>
</linearGradient>
<linearGradient id="paint13_linear_44_4210" x1="167.562" y1="95.5661" x2="162.926" y2="95.4046" gradientUnits="userSpaceOnUse">
<stop stop-color="#54B948"/>
<stop offset="0.3764" stop-color="#00A651"/>
<stop offset="1" stop-color="#005826"/>
</linearGradient>
<linearGradient id="paint14_linear_44_4210" x1="160.044" y1="85.241" x2="151.187" y2="84.9324" gradientUnits="userSpaceOnUse">
<stop stop-color="#54B948"/>
<stop offset="0.3764" stop-color="#00A651"/>
<stop offset="1" stop-color="#005826"/>
</linearGradient>
<linearGradient id="paint15_linear_44_4210" x1="150.754" y1="69.7061" x2="140.013" y2="69.3319" gradientUnits="userSpaceOnUse">
<stop stop-color="#54B948"/>
<stop offset="0.3764" stop-color="#00A651"/>
<stop offset="1" stop-color="#005826"/>
</linearGradient>
<linearGradient id="paint16_linear_44_4210" x1="143.761" y1="60.557" x2="125.551" y2="59.9225" gradientUnits="userSpaceOnUse">
<stop stop-color="#54B948"/>
<stop offset="0.3764" stop-color="#00A651"/>
<stop offset="1" stop-color="#005826"/>
</linearGradient>
<linearGradient id="paint17_linear_44_4210" x1="120.899" y1="82.1159" x2="128.808" y2="73.9222" gradientUnits="userSpaceOnUse">
<stop stop-color="#54B948"/>
<stop offset="0.3764" stop-color="#00A651"/>
<stop offset="1" stop-color="#005826"/>
</linearGradient>
<linearGradient id="paint18_linear_44_4210" x1="113.172" y1="69.9241" x2="127.082" y2="50.8691" gradientUnits="userSpaceOnUse">
<stop stop-color="#54B948"/>
<stop offset="0.3764" stop-color="#00A651"/>
<stop offset="1" stop-color="#005826"/>
</linearGradient>
<linearGradient id="paint19_linear_44_4210" x1="140.467" y1="56.296" x2="109.063" y2="55.2019" gradientUnits="userSpaceOnUse">
<stop stop-color="#54B948"/>
<stop offset="0.3764" stop-color="#00A651"/>
<stop offset="1" stop-color="#005826"/>
</linearGradient>
<linearGradient id="paint20_linear_44_4210" x1="145.616" y1="299.725" x2="182.679" y2="294.225" gradientUnits="userSpaceOnUse">
<stop stop-color="#54B948"/>
<stop offset="0.3764" stop-color="#00A651"/>
<stop offset="1" stop-color="#005826"/>
</linearGradient>
<linearGradient id="paint21_linear_44_4210" x1="130.213" y1="276.851" x2="179.703" y2="269.507" gradientUnits="userSpaceOnUse">
<stop stop-color="#54B948"/>
<stop offset="0.3764" stop-color="#00A651"/>
<stop offset="1" stop-color="#005826"/>
</linearGradient>
<linearGradient id="paint22_linear_44_4210" x1="134.59" y1="262.334" x2="174.354" y2="252.466" gradientUnits="userSpaceOnUse">
<stop stop-color="#54B948"/>
<stop offset="0.3764" stop-color="#00A651"/>
<stop offset="1" stop-color="#005826"/>
</linearGradient>
<linearGradient id="paint23_linear_44_4210" x1="139.102" y1="253.005" x2="174.926" y2="242.231" gradientUnits="userSpaceOnUse">
<stop stop-color="#54B948"/>
<stop offset="0.3764" stop-color="#00A651"/>
<stop offset="1" stop-color="#005826"/>
</linearGradient>
<linearGradient id="paint24_linear_44_4210" x1="137.233" y1="230.815" x2="171.614" y2="221.587" gradientUnits="userSpaceOnUse">
<stop stop-color="#54B948"/>
<stop offset="0.3764" stop-color="#00A651"/>
<stop offset="1" stop-color="#005826"/>
</linearGradient>
<linearGradient id="paint25_linear_44_4210" x1="139.933" y1="218.16" x2="171.285" y2="209.554" gradientUnits="userSpaceOnUse">
<stop stop-color="#54B948"/>
<stop offset="0.3764" stop-color="#00A651"/>
<stop offset="1" stop-color="#005826"/>
</linearGradient>
<linearGradient id="paint26_linear_44_4210" x1="140.91" y1="204.22" x2="168.02" y2="195.3" gradientUnits="userSpaceOnUse">
<stop stop-color="#54B948"/>
<stop offset="0.3764" stop-color="#00A651"/>
<stop offset="1" stop-color="#005826"/>
</linearGradient>
<linearGradient id="paint27_linear_44_4210" x1="139.474" y1="192.888" x2="163.868" y2="182.006" gradientUnits="userSpaceOnUse">
<stop stop-color="#54B948"/>
<stop offset="0.3764" stop-color="#00A651"/>
<stop offset="1" stop-color="#005826"/>
</linearGradient>
<linearGradient id="paint28_linear_44_4210" x1="135.002" y1="176.734" x2="157.4" y2="164.739" gradientUnits="userSpaceOnUse">
<stop stop-color="#54B948"/>
<stop offset="0.3764" stop-color="#00A651"/>
<stop offset="1" stop-color="#005826"/>
</linearGradient>
<linearGradient id="paint29_linear_44_4210" x1="130.783" y1="159.621" x2="151.767" y2="147.982" gradientUnits="userSpaceOnUse">
<stop stop-color="#54B948"/>
<stop offset="0.3764" stop-color="#00A651"/>
<stop offset="1" stop-color="#005826"/>
</linearGradient>
<linearGradient id="paint30_linear_44_4210" x1="132.642" y1="144.08" x2="145.971" y2="135.478" gradientUnits="userSpaceOnUse">
<stop stop-color="#54B948"/>
<stop offset="0.3764" stop-color="#00A651"/>
<stop offset="1" stop-color="#005826"/>
</linearGradient>
<linearGradient id="paint31_linear_44_4210" x1="136.332" y1="135.543" x2="144.976" y2="129.718" gradientUnits="userSpaceOnUse">
<stop stop-color="#54B948"/>
<stop offset="0.3764" stop-color="#00A651"/>
<stop offset="1" stop-color="#005826"/>
</linearGradient>
<linearGradient id="paint32_linear_44_4210" x1="132.406" y1="117.775" x2="137.056" y2="114.44" gradientUnits="userSpaceOnUse">
<stop stop-color="#54B948"/>
<stop offset="0.3764" stop-color="#00A651"/>
<stop offset="1" stop-color="#005826"/>
</linearGradient>
<linearGradient id="paint33_linear_44_4210" x1="124.71" y1="92.7114" x2="128.563" y2="89.7903" gradientUnits="userSpaceOnUse">
<stop stop-color="#54B948"/>
<stop offset="0.3764" stop-color="#00A651"/>
<stop offset="1" stop-color="#005826"/>
</linearGradient>
<linearGradient id="paint34_linear_44_4210" x1="129.714" y1="102.45" x2="158.626" y2="132.449" gradientUnits="userSpaceOnUse">
<stop stop-color="#54B948"/>
<stop offset="0.3764" stop-color="#00A651"/>
<stop offset="1" stop-color="#005826"/>
</linearGradient>
<linearGradient id="paint35_linear_44_4210" x1="162.528" y1="179.819" x2="161.868" y2="362.783" gradientUnits="userSpaceOnUse">
<stop stop-color="#54B948"/>
<stop offset="0.3764" stop-color="#00A651"/>
<stop offset="1" stop-color="#005826"/>
</linearGradient>
</defs>
</svg>
