<svg width="139" height="258" viewBox="0 0 139 258" fill="none" xmlns="http://www.w3.org/2000/svg">
<path d="M124.284 227.515C124.284 227.515 110.869 230.566 101.09 229.107C91.312 227.647 93.5777 226.652 90.358 221.545C87.1383 216.437 89.5232 219.223 93.3988 218.294C97.2744 217.366 92.5044 217.299 88.3904 216.238C84.2763 215.177 79.5064 216.636 76.5252 211.993C73.544 207.283 69.728 199.257 69.728 199.257L103.893 204.033L117.845 210.534L124.284 227.515Z" fill="url(#paint0_linear_44_4302)"/>
<path d="M118.202 213.253C118.202 213.253 100.911 209.538 90.0599 207.946C79.2083 206.354 74.1998 206.155 72.4111 203.635C70.6224 201.114 67.045 194.879 70.1455 196.67C73.2459 198.461 84.9322 200.252 82.3684 198.063C79.8045 195.94 75.5712 195.343 68.0586 191.761C60.546 188.179 60.5459 189.108 57.8032 183.934C55.0009 178.76 60.9037 182.276 63.7656 183.735C66.6872 185.194 66.2699 183.536 59.7112 179.357C53.1526 175.178 54.4047 178.296 50.4099 170.867C50.4099 170.867 67.3431 175.311 83.382 180.419C99.3612 185.526 111.405 196.139 111.405 196.139L118.202 213.253Z" fill="url(#paint1_linear_44_4302)"/>
<path d="M110.332 196.802C110.332 196.802 97.6325 186.388 80.2223 182.276C62.7524 178.163 60.3078 177.168 55.7764 174.847C51.245 172.591 51.2449 172.591 49.6947 169.407C48.1445 166.29 51.3642 168.412 54.6435 170.601C57.9229 172.79 70.8613 176.439 75.5716 174.913C80.2222 173.387 77.1814 172.857 73.3655 170.933C69.6092 169.009 58.2806 168.611 48.1445 159.391C38.0084 150.171 36.5178 138.961 36.5178 138.961C36.5178 138.961 51.4238 153.886 71.696 155.013C91.9682 156.141 101.15 175.51 101.15 175.51L110.332 196.802Z" fill="url(#paint2_linear_44_4302)"/>
<path d="M98.1097 171.994C98.1097 171.994 94.1149 165.693 78.4338 161.912C62.7527 158.131 46.7138 154.018 42.3613 149.309C38.0087 144.666 35.4449 138.231 36.7566 138.032C38.0683 137.833 55.0015 148.778 59.4733 148.314C63.9452 147.85 63.4682 146.921 58.2809 144.135C53.0936 141.283 40.6321 138.828 35.743 133.721C30.8538 128.613 28.8862 119.924 28.8862 119.924L52.9147 130.67L80.6995 130.935C80.6995 130.935 84.3962 138.696 88.3314 145.329C92.2666 151.962 98.1097 171.994 98.1097 171.994Z" fill="url(#paint3_linear_44_4302)"/>
<path d="M86.7807 143.472C86.7807 143.472 80.1027 137.436 62.5733 135.578C45.0438 133.655 35.8617 131.93 31.7477 125.695C27.574 119.46 28.1106 117.934 32.4035 120.72C36.6965 123.506 68.2376 129.542 67.4029 125.695C66.5681 121.781 58.9363 123.241 45.1035 119.924C31.2707 116.607 26.143 116.607 20.7769 103.739C20.7769 103.739 43.7321 100.29 56.9687 103.407C70.2648 106.591 69.1916 101.815 74.9751 110.571C80.699 119.327 86.7807 143.472 86.7807 143.472Z" fill="url(#paint4_linear_44_4302)"/>
<path d="M75.3331 114.285C75.3331 114.285 71.3979 110.438 49.5755 108.78C27.6935 107.122 23.2217 109.443 19.8828 101.948C16.6034 94.4521 14.934 91.5999 20.8964 94.7838C26.8588 98.0341 45.9385 100.422 44.3286 97.8351C42.7188 95.3145 23.6391 96.3758 17.9748 87.6199C12.3105 78.8641 10.7007 69.1133 10.7007 69.1133C10.7007 69.1133 21.8503 78.8641 42.5995 78.9968L60.0694 81.9154C60.0694 81.9154 64.5412 84.9666 69.9073 99.626C75.3331 114.285 75.3331 114.285 75.3331 114.285Z" fill="url(#paint5_linear_44_4302)"/>
<path d="M63.8846 85.8295C63.8846 85.8295 57.9222 83.2425 40.989 82.3802C24.0557 81.5179 16.245 80.5892 12.9061 74.0887C9.56711 67.5881 9.38823 63.6745 11.7732 65.9298C14.1581 68.1851 32.9397 70.5068 28.6468 67.3891C24.3538 64.2052 14.8736 64.7358 11.4751 59.8273C8.0765 54.9187 7.18213 47.0916 7.18213 47.0916C7.18213 47.0916 39.1406 49.3468 48.2631 59.4293C57.3855 69.5781 63.8846 85.8295 63.8846 85.8295Z" fill="url(#paint6_linear_44_4302)"/>
<path d="M48.7998 60.8884C48.7998 60.8884 25.1888 47.2903 8.1363 51.0049C8.1363 51.0049 5.51283 43.7747 8.79215 44.0401C12.0715 44.3054 26.0831 46.0964 21.4921 43.1114C16.901 40.1265 7.36116 39.1315 5.27432 34.7536C3.18748 30.3757 0.623657 23.8751 4.32035 23.4108C8.01704 22.9465 8.37478 20.2269 4.32035 16.6449C0.265913 13.063 1.27951 10.5424 0.504395 0.85791C0.504395 0.85791 31.7474 21.8188 48.7998 60.8884Z" fill="url(#paint7_linear_44_4302)"/>
<path d="M43.494 13.7925C44.2094 17.1091 46.356 32.2991 42.4208 25.0026C38.426 17.6397 40.7513 14.7875 28.5283 9.8789C16.3054 4.97033 16.4247 3.64368 15.5303 5.10298C14.636 6.56229 18.2134 12.8639 13.8012 8.35327C9.38906 3.84269 3.12853 1.25573 0.564697 0.924072C0.564697 0.924072 17.6768 14.3895 28.4091 29.4469C39.1414 44.4379 50.1719 64.0722 54.4052 69.9758C58.6385 75.813 62.0967 33.4268 59.7117 28.0539C57.3268 22.681 42.6592 10.1442 43.494 13.7925Z" fill="url(#paint8_linear_44_4302)"/>
<path d="M77.3601 45.433C77.3601 45.433 70.2648 37.3405 68.5357 34.9525C66.8066 32.4983 67.6414 39.9274 66.9259 46.5607C66.2104 53.1939 64.0043 63.807 62.633 50.2753C61.2616 36.7435 63.2292 31.3043 59.5921 26.3294C55.8954 21.3545 56.1936 22.2831 53.9875 20.9565C51.841 19.6299 53.6297 34.6209 51.7814 46.826C49.933 59.0311 48.3828 58.8321 50.3504 63.8733C52.318 68.9146 66.6278 92.7278 69.9667 99.6263C73.246 106.525 77.3601 45.433 77.3601 45.433Z" fill="url(#paint9_linear_44_4302)"/>
<path d="M67.7595 95.8454C68.4153 97.6363 80.5786 130.537 83.4406 135.645C86.3025 140.752 87.3161 95.978 91.1321 84.9006C94.948 73.8895 97.333 76.1447 95.1865 72.3638C92.0861 66.9246 85.1101 56.7094 85.0504 58.8984C84.9908 61.0874 78.3725 100.82 78.0148 91.2684C77.657 81.7166 81.3537 56.4441 80.6383 51.9999C79.9228 47.5556 76.7627 44.836 75.1529 42.9124C75.1529 42.9124 70.5618 56.9748 69.4289 71.0372C68.2961 85.0996 65.8515 90.6051 67.7595 95.8454Z" fill="url(#paint10_linear_44_4302)"/>
<path d="M89.8214 150.901C89.8214 150.901 78.1948 130.537 79.9835 120.388C81.7722 110.24 92.5641 67.787 92.0871 67.1901C90.9542 65.6644 97.1551 72.7619 97.1551 78.3338C97.1551 83.9057 94.5317 99.8917 95.8434 97.9681C97.1552 96.0445 97.9899 80.3238 99.719 82.9108C101.448 85.4314 103.833 86.36 105.443 89.743C107.053 93.1259 92.8026 152.228 89.8214 150.901Z" fill="url(#paint11_linear_44_4302)"/>
<path d="M123.569 226.122L111.942 202.773C111.942 202.773 116.95 174.847 129.292 169.341C129.292 169.341 130.187 173.52 128.577 177.5C126.967 181.48 120.766 197.532 122.138 205.824C123.569 214.115 128.16 192.425 131.32 197.267C134.539 202.109 125.357 229.703 123.569 226.122Z" fill="url(#paint12_linear_44_4302)"/>
<path d="M90.4772 153.355C90.4772 153.355 98.2283 175.112 101.21 181.016C104.191 186.919 117.248 131.797 117.248 131.797C117.248 131.797 117.547 123.439 116.891 121.051C116.235 118.664 114.386 109.775 113.492 116.342C113.194 118.465 111.524 131.134 108.126 137.767C104.727 144.4 104.548 145.926 108.782 120.388C113.015 94.784 104.37 87.8191 104.37 87.8191C104.37 87.8191 97.4532 123.572 93.995 132.262C90.5368 140.951 88.0922 146.855 90.4772 153.355Z" fill="url(#paint13_linear_44_4302)"/>
<path d="M112.001 202.773C112.001 202.773 117.486 174.979 129.351 169.341C129.351 169.341 128.875 165.162 125.297 167.02C121.72 168.877 128.338 159.391 127.682 156.141C127.026 152.891 124.582 143.538 123.091 145.395C121.6 147.253 114.923 173.454 112.895 173.122C110.868 172.791 119.335 151.763 121.779 140.487C124.224 129.21 118.261 124.036 116.89 121.052C116.89 121.052 109.556 149.508 105.085 164.035C100.613 178.561 101.269 181.016 101.269 181.016L112.001 202.773Z" fill="url(#paint14_linear_44_4302)"/>
<path d="M130.842 196.67C130.842 196.67 122.674 218.295 121.124 221.147L124.224 227.448C124.224 227.448 135.374 206.288 133.585 202.242C131.796 198.262 131.14 195.874 130.842 196.67Z" fill="url(#paint15_linear_44_4302)"/>
<path d="M0.504395 0.85791C11.7137 9.21575 18.6897 16.9103 25.8446 26.1968C33.0591 35.4833 39.4985 45.6321 45.5205 56.0462C51.5426 66.4603 58.6378 76.8081 64.0636 87.6866C69.4894 98.565 73.6034 109.775 78.6715 120.853L81.9508 129.409C83.2029 132.195 84.455 134.981 85.6475 137.767L89.2846 146.125L92.9216 154.483L100.136 171.265C102.581 176.837 104.966 182.409 107.41 187.981C112.299 199.124 117.248 210.202 122.316 221.147C123.568 223.866 124.88 226.652 126.132 229.372C127.444 232.091 128.756 234.811 130.067 237.531C131.379 240.25 132.75 242.97 134.062 245.623C134.718 246.95 135.434 248.276 136.149 249.603L137.222 251.527C137.58 252.124 137.938 252.853 138.236 253.318L138.295 253.384C139.071 254.711 139.011 256.369 138.117 257.099C137.222 257.828 135.911 257.364 135.076 256.037V255.971C134.599 255.175 134.301 254.512 133.883 253.848L132.81 251.792C132.095 250.399 131.439 249.072 130.723 247.679C129.352 244.96 128.04 242.174 126.728 239.388C125.417 236.602 124.165 233.882 122.853 231.096C121.601 228.311 120.349 225.525 119.097 222.739C114.148 211.595 109.318 200.451 104.548 189.175C102.163 183.536 99.8381 177.965 97.5127 172.326L90.5367 155.478L87.0785 147.054L83.5607 138.63C82.3682 135.844 81.1757 133.058 79.9832 130.272L76.8231 121.715C71.934 110.571 67.9392 99.361 62.7519 88.4162C57.505 77.4714 50.5886 67.1236 44.6858 56.6432C38.8426 46.1627 32.5821 35.8812 25.4869 26.5284C18.4512 17.2419 11.4752 10.0781 0.504395 0.85791Z" fill="url(#paint16_linear_44_4302)"/>
<defs>
<linearGradient id="paint0_linear_44_4302" x1="69.3095" y1="190.047" x2="132.074" y2="230.004" gradientUnits="userSpaceOnUse">
<stop stop-color="#54B948"/>
<stop offset="0.3764" stop-color="#00A651"/>
<stop offset="1" stop-color="#005826"/>
</linearGradient>
<linearGradient id="paint1_linear_44_4302" x1="46.4409" y1="164.228" x2="128.43" y2="216.423" gradientUnits="userSpaceOnUse">
<stop stop-color="#54B948"/>
<stop offset="0.3764" stop-color="#00A651"/>
<stop offset="1" stop-color="#005826"/>
</linearGradient>
<linearGradient id="paint2_linear_44_4302" x1="29.4883" y1="134.83" x2="125.31" y2="195.832" gradientUnits="userSpaceOnUse">
<stop stop-color="#54B948"/>
<stop offset="0.3764" stop-color="#00A651"/>
<stop offset="1" stop-color="#005826"/>
</linearGradient>
<linearGradient id="paint3_linear_44_4302" x1="25.243" y1="111.649" x2="113.852" y2="168.059" gradientUnits="userSpaceOnUse">
<stop stop-color="#54B948"/>
<stop offset="0.3764" stop-color="#00A651"/>
<stop offset="1" stop-color="#005826"/>
</linearGradient>
<linearGradient id="paint4_linear_44_4302" x1="20.4273" y1="91.7625" x2="99.4856" y2="142.092" gradientUnits="userSpaceOnUse">
<stop stop-color="#54B948"/>
<stop offset="0.3764" stop-color="#00A651"/>
<stop offset="1" stop-color="#005826"/>
</linearGradient>
<linearGradient id="paint5_linear_44_4302" x1="5.10954" y1="65.2854" x2="85.8903" y2="116.712" gradientUnits="userSpaceOnUse">
<stop stop-color="#54B948"/>
<stop offset="0.3764" stop-color="#00A651"/>
<stop offset="1" stop-color="#005826"/>
</linearGradient>
<linearGradient id="paint6_linear_44_4302" x1="1.79016" y1="44.6301" x2="72.1458" y2="89.4195" gradientUnits="userSpaceOnUse">
<stop stop-color="#54B948"/>
<stop offset="0.3764" stop-color="#00A651"/>
<stop offset="1" stop-color="#005826"/>
</linearGradient>
<linearGradient id="paint7_linear_44_4302" x1="-5.49589" y1="18.1459" x2="57.09" y2="57.9011" gradientUnits="userSpaceOnUse">
<stop stop-color="#54B948"/>
<stop offset="0.3764" stop-color="#00A651"/>
<stop offset="1" stop-color="#005826"/>
</linearGradient>
<linearGradient id="paint8_linear_44_4302" x1="32.0384" y1="-13.5198" x2="27.7209" y2="60.8382" gradientUnits="userSpaceOnUse">
<stop stop-color="#54B948"/>
<stop offset="0.3764" stop-color="#00A651"/>
<stop offset="1" stop-color="#005826"/>
</linearGradient>
<linearGradient id="paint9_linear_44_4302" x1="65.7629" y1="2.44542" x2="60.6713" y2="90.1365" gradientUnits="userSpaceOnUse">
<stop stop-color="#54B948"/>
<stop offset="0.3764" stop-color="#00A651"/>
<stop offset="1" stop-color="#005826"/>
</linearGradient>
<linearGradient id="paint10_linear_44_4302" x1="84.447" y1="20.8601" x2="78.4279" y2="124.526" gradientUnits="userSpaceOnUse">
<stop stop-color="#54B948"/>
<stop offset="0.3764" stop-color="#00A651"/>
<stop offset="1" stop-color="#005826"/>
</linearGradient>
<linearGradient id="paint11_linear_44_4302" x1="95.4985" y1="46.6379" x2="90.0337" y2="140.758" gradientUnits="userSpaceOnUse">
<stop stop-color="#54B948"/>
<stop offset="0.3764" stop-color="#00A651"/>
<stop offset="1" stop-color="#005826"/>
</linearGradient>
<linearGradient id="paint12_linear_44_4302" x1="136.918" y1="199.306" x2="109.029" y2="196.243" gradientUnits="userSpaceOnUse">
<stop stop-color="#54B948"/>
<stop offset="0.3764" stop-color="#00A651"/>
<stop offset="1" stop-color="#005826"/>
</linearGradient>
<linearGradient id="paint13_linear_44_4302" x1="93.2231" y1="96.2843" x2="116.67" y2="170.738" gradientUnits="userSpaceOnUse">
<stop stop-color="#54B948"/>
<stop offset="0.3764" stop-color="#00A651"/>
<stop offset="1" stop-color="#005826"/>
</linearGradient>
<linearGradient id="paint14_linear_44_4302" x1="104.706" y1="129.216" x2="124.926" y2="193.426" gradientUnits="userSpaceOnUse">
<stop stop-color="#54B948"/>
<stop offset="0.3764" stop-color="#00A651"/>
<stop offset="1" stop-color="#005826"/>
</linearGradient>
<linearGradient id="paint15_linear_44_4302" x1="118.906" y1="217.416" x2="142.664" y2="205.612" gradientUnits="userSpaceOnUse">
<stop stop-color="#54B948"/>
<stop offset="0.3764" stop-color="#00A651"/>
<stop offset="1" stop-color="#005826"/>
</linearGradient>
<linearGradient id="paint16_linear_44_4302" x1="-33.2836" y1="49.0156" x2="182.967" y2="186.684" gradientUnits="userSpaceOnUse">
<stop stop-color="#54B948"/>
<stop offset="0.3764" stop-color="#00A651"/>
<stop offset="1" stop-color="#005826"/>
</linearGradient>
</defs>
</svg>
