<svg width="25" height="24" viewBox="0 0 25 24" fill="none" xmlns="http://www.w3.org/2000/svg">
<rect x="0.5" width="24" height="24" rx="12" fill="#B0AEAE"/>
<path d="M18.2718 10.2135C18.0275 8.52776 17.0235 7.36201 15.344 6.69601C15.6302 6.54476 15.8153 6.46901 15.8153 6.46901C15.0063 6.18401 14.304 6.01801 13.696 5.94251C14.0157 5.70176 14.2292 5.61026 14.2292 5.61026C9.29125 4.91376 6.85625 7.66026 6.70325 10.2173C5.73575 10.387 5 11.2278 5 12.2425C5 13.2468 5.72075 14.081 6.674 14.2625C6.783 16.6163 9.349 18.5003 12.4998 18.5003C15.651 18.5003 18.217 16.6163 18.326 14.2625C19.279 14.0808 20 13.2463 20 12.2425C20 11.2195 19.2513 10.373 18.2718 10.2135ZM6.72525 13.5345C6.14775 13.3845 5.7195 12.8658 5.7195 12.2425C5.7195 11.6385 6.12275 11.133 6.6735 10.966C6.68575 11.5065 6.828 12.0233 7.077 12.4995C6.90742 12.8245 6.78879 13.1735 6.72525 13.5345ZM15.637 13.9813C15.969 14.3953 16.1635 14.8788 16.1635 15.3975C16.1635 16.918 14.523 18.15 12.4998 18.15C10.4765 18.15 8.83625 16.918 8.83625 15.3975C8.83625 14.8788 9.0305 14.3953 9.363 13.9813C8.22375 13.2918 7.4945 12.2363 7.4945 11.0515C7.4945 6.81801 12.4998 9.51501 12.4998 9.51501C12.4998 9.51501 17.5052 6.81826 17.5052 11.0515C17.5052 12.236 16.776 13.2918 15.637 13.9813ZM18.2747 13.5345C18.2111 13.1735 18.0926 12.8244 17.9233 12.4993C18.1722 12.023 18.3142 11.5063 18.3265 10.9658C18.8772 11.133 19.2802 11.6383 19.2802 12.2423C19.2802 12.8658 18.8523 13.3845 18.2747 13.5345Z" fill="white"/>
<path d="M13.0417 14.2014C13.18 14.2014 13.2917 13.9716 13.2917 13.6871C13.2917 13.4039 13.18 13.1724 13.0417 13.1724C12.9032 13.1724 12.7917 13.4039 12.7917 13.6871C12.7917 13.9716 12.9032 14.2014 13.0417 14.2014ZM11.9688 14.2014C12.107 14.2014 12.2188 13.9716 12.2188 13.6871C12.2188 13.4039 12.107 13.1724 11.9688 13.1724C11.8302 13.1724 11.7188 13.4039 11.7188 13.6871C11.7188 13.9716 11.8302 14.2014 11.9688 14.2014Z" fill="white"/>
<path d="M14.6719 13.062C15.1551 13.062 15.5469 12.5583 15.5469 11.937C15.5469 11.3157 15.1551 10.812 14.6719 10.812C14.1886 10.812 13.7969 11.3157 13.7969 11.937C13.7969 12.5583 14.1886 13.062 14.6719 13.062Z" fill="white"/>
<path d="M10.3281 13.062C10.8114 13.062 11.2031 12.5583 11.2031 11.937C11.2031 11.3157 10.8114 10.812 10.3281 10.812C9.84488 10.812 9.45312 11.3157 9.45312 11.937C9.45312 12.5583 9.84488 13.062 10.3281 13.062Z" fill="white"/>
</svg>
