<svg width="398" height="400" viewBox="0 0 398 400" fill="none" xmlns="http://www.w3.org/2000/svg">
<path d="M179.454 234.644L129.89 330.292L127.56 328.793C127.56 328.793 172.977 245.716 177.235 236.499C181.463 227.341 179.454 234.644 179.454 234.644Z" fill="url(#paint0_linear_44_4377)"/>
<path d="M179.339 234.568L129.775 330.215L132.105 331.714C132.105 331.714 173.971 246.353 179.006 237.636C184.011 228.977 179.339 234.568 179.339 234.568Z" fill="url(#paint1_linear_44_4377)"/>
<path d="M179.18 234.112C179.18 234.112 225.186 127.214 269.585 71.194C269.64 71.2297 216.394 192.98 179.18 234.112Z" fill="url(#paint2_linear_44_4377)"/>
<path d="M179.205 234.184C179.205 234.184 218.875 136.575 269.692 71.2111C269.747 71.2468 206.521 185.55 179.205 234.184Z" fill="#39B54A"/>
<path d="M281.004 82.737C281.004 82.737 231.716 193.649 179.082 233.751C179.082 233.751 187.598 215.253 210.247 185.157C232.897 155.062 258.945 121.084 281.004 82.737Z" fill="url(#paint3_linear_44_4377)"/>
<path d="M281.029 82.737C281.029 82.737 225.94 195.767 179.081 233.768C179.081 233.768 191.017 219.033 213.672 188.935C236.328 158.836 258.964 121.088 281.029 82.737Z" fill="#39B54A"/>
<path d="M290.889 111.395C290.889 111.395 230.685 201.909 178.985 233.042C178.985 233.042 201.708 202.29 220.833 183.643C239.929 165.054 269.376 141.069 290.889 111.395Z" fill="url(#paint4_linear_44_4377)"/>
<path d="M290.889 111.395C290.889 111.395 230.685 201.909 178.985 233.042C178.985 233.042 204.614 212.092 224.167 189.919C242.091 169.639 269.376 141.069 290.889 111.395Z" fill="#39B54A"/>
<path d="M301.805 129.306C301.805 129.306 226.277 223.726 179.21 233.08C179.21 233.08 191.885 212.601 225.968 191.095C260.052 169.589 269.116 162.941 301.805 129.306Z" fill="url(#paint5_linear_44_4377)"/>
<path d="M301.805 129.306C301.805 129.306 226.277 223.726 179.21 233.08C179.21 233.08 190.01 223.612 221.257 202.972C255.921 179.908 269.116 162.941 301.805 129.306Z" fill="#39B54A"/>
<path d="M308.704 154.875C308.704 154.875 250.301 227.243 179.784 232.8C179.784 232.8 198.781 217.395 216.094 212.464C233.379 207.592 273.216 190.092 308.704 154.875Z" fill="url(#paint6_linear_44_4377)"/>
<path d="M308.371 154.974C308.371 154.974 249.968 227.343 179.451 232.899C179.451 232.899 201.498 222.95 218.782 218.078C236.067 213.205 272.853 190.249 308.371 154.974Z" fill="#39B54A"/>
<path d="M314.055 189.845C314.055 189.845 269.64 229.987 179.807 232.72C179.807 232.72 181.978 227.073 221.454 217.482C260.931 207.891 270.031 211.132 314.055 189.845Z" fill="url(#paint7_linear_44_4377)"/>
<path d="M314.054 189.849C314.054 189.849 281.353 229.946 179.451 232.721C179.451 232.721 183.31 231.627 222.785 222.036C262.207 212.41 271.085 213.281 314.054 189.849Z" fill="#39B54A"/>
<path d="M178.377 233.984C178.377 233.984 191.417 312.843 241.307 364.836C241.307 364.836 215.215 335.577 204.828 296.947C194.441 258.317 184.189 239.902 178.377 233.984Z" fill="url(#paint8_linear_44_4377)"/>
<path d="M178.174 233.697C178.174 233.697 191.214 312.556 241.103 364.549C241.103 364.549 220.245 344.567 200.081 292.863C188.436 263.098 183.7 249.646 178.174 233.697Z" fill="#39B54A"/>
<path d="M179.886 231.779C179.886 231.779 250.219 243.043 320.646 231.435C320.646 231.435 262.356 229.077 224.52 226.85C200.396 225.396 179.886 231.779 179.886 231.779Z" fill="url(#paint9_linear_44_4377)"/>
<path d="M179.552 231.873C179.552 231.873 243.517 242.496 320.645 231.44C320.645 231.44 274.475 231.713 224.473 231.397C205.356 231.297 179.552 231.873 179.552 231.873Z" fill="#39B54A"/>
<path d="M329.962 250.834C329.962 250.834 258.316 270.136 179.878 231.966C179.878 231.966 211.551 230.622 249.723 243.22C287.872 255.727 329.962 250.834 329.962 250.834Z" fill="url(#paint10_linear_44_4377)"/>
<path d="M329.962 250.838C329.962 250.838 257.909 270.103 179.501 231.876C179.501 231.876 213.081 240.123 245.523 247.401C284.428 256.073 329.962 250.838 329.962 250.838Z" fill="#39B54A"/>
<path d="M315.02 283.964C315.02 283.964 252.136 287.464 179.484 232.583C179.484 232.583 208.624 237.917 231.364 252.12C254.075 266.379 277.338 279.566 315.02 283.964Z" fill="url(#paint11_linear_44_4377)"/>
<path d="M315.02 283.964C315.02 283.964 252.136 287.464 179.484 232.583C179.484 232.583 206.051 242.645 228.762 256.904C251.473 271.163 277.338 279.566 315.02 283.964Z" fill="#39B54A"/>
<path d="M298.224 304.587C298.224 304.587 215.716 287.134 179.629 233.704C179.629 233.704 202.722 243.604 231.212 267.904C259.703 292.204 298.224 304.587 298.224 304.587Z" fill="url(#paint12_linear_44_4377)"/>
<path d="M297.907 304.384C297.907 304.384 215.4 286.93 179.313 233.501C179.313 233.501 192.136 244.172 219.817 266.081C256.837 295.439 297.907 304.384 297.907 304.384Z" fill="#39B54A"/>
<path d="M266.955 341.427C266.955 341.427 206.21 294.211 178.863 233.984C178.863 233.984 197.101 247.334 217.921 279.819C238.687 312.269 257.336 332.688 266.955 341.427Z" fill="url(#paint13_linear_44_4377)"/>
<path d="M266.753 341.14C266.753 341.14 206.008 293.924 178.661 233.697C178.661 233.697 193.968 254.139 213.855 282.088C236.021 313.331 257.11 332.311 266.753 341.14Z" fill="#39B54A"/>
<path d="M249.916 61.9537C249.916 61.9537 186.178 163.22 179.629 234.292C179.629 234.292 191.896 218.359 204.788 181.705C217.681 145.051 230.231 101.94 249.916 61.9537Z" fill="url(#paint14_linear_44_4377)"/>
<path d="M249.948 61.924C249.948 61.924 187.165 169.96 179.6 234.324C179.6 234.324 186.429 216.116 199.332 179.449C212.236 142.782 230.247 101.924 249.948 61.924Z" fill="#39B54A"/>
<path d="M220.331 65.0364C220.331 65.0364 179.359 168.307 180.381 234.274C180.381 234.274 193.224 196.942 198.337 169.118C203.45 141.295 207.799 100.629 220.331 65.0364Z" fill="url(#paint15_linear_44_4377)"/>
<path d="M220.331 65.0364C220.331 65.0364 179.359 168.307 180.381 234.274C180.381 234.274 184.185 198.924 191.888 168.898C198.946 141.403 207.799 100.629 220.331 65.0364Z" fill="#39B54A"/>
<path d="M200.999 62.9768C200.999 62.9768 164.594 183.335 180.355 234.223C180.355 234.223 190.074 211.735 190.068 167.754C190.061 123.772 190.894 111.538 200.999 62.9768Z" fill="url(#paint16_linear_44_4377)"/>
<path d="M200.999 62.9768C200.999 62.9768 164.594 183.335 180.355 234.223C180.355 234.223 182.376 218.966 183.207 178.162C184.138 132.776 190.894 111.538 200.999 62.9768Z" fill="#39B54A"/>
<path d="M178.45 69.3091C178.45 69.3091 150.842 162.142 180.934 234.191C180.934 234.191 183.648 208.026 178.969 188.547C174.291 169.068 168.466 121.375 178.45 69.3091Z" fill="url(#paint17_linear_44_4377)"/>
<path d="M178.487 69.6455C178.487 69.6455 150.878 162.479 180.971 234.528C180.971 234.528 177.942 208.02 173.287 188.634C168.662 169.19 168.527 121.805 178.487 69.6455Z" fill="#39B54A"/>
<path d="M142.925 74.5273C142.925 74.5273 139.238 144.395 180.886 234.124C180.886 234.124 184.156 229.273 172.356 185.759C160.61 142.281 147.896 128.169 142.925 74.5273Z" fill="url(#paint18_linear_44_4377)"/>
<path d="M142.921 74.5273C142.921 74.5273 133.524 132.85 181.033 234.528C181.033 234.528 180.025 230.19 168.226 186.677C156.426 143.164 145.719 128.211 142.921 74.5273Z" fill="#39B54A"/>
<path d="M179.597 235.598C179.597 235.598 112.175 261.218 47.5454 237.519C47.5454 237.519 82.9228 248.885 117.937 240.352C152.98 231.763 172.207 232.77 179.597 235.598Z" fill="url(#paint19_linear_44_4377)"/>
<path d="M179.974 235.684C179.974 235.684 112.552 261.304 47.9224 237.604C47.9224 237.604 73.5379 248.409 123.471 243.033C152.126 239.964 164.897 237.988 179.974 235.684Z" fill="#39B54A"/>
<path d="M181.258 233.622C181.258 233.622 138.23 169.793 112.876 94.8311C112.876 94.8311 143.124 151.18 163.348 187.286C176.229 210.304 181.258 233.622 181.258 233.622Z" fill="url(#paint20_linear_44_4377)"/>
<path d="M181.435 233.967C181.435 233.967 141.974 176.118 112.955 94.8059C112.955 94.8059 135.288 140.44 159.908 189.544C169.272 208.292 181.435 233.967 181.435 233.967Z" fill="#39B54A"/>
<path d="M93.1902 95.3296C93.1902 95.3296 113.176 175.228 181.061 233.647C181.061 233.647 166.635 201.865 138.299 170.453C110.016 139.077 93.1902 95.3296 93.1902 95.3296Z" fill="url(#paint21_linear_44_4377)"/>
<path d="M93.1865 95.3296C93.1865 95.3296 113.381 175.516 181.237 233.993C181.237 233.993 158.487 204.998 136.968 176.653C111.308 142.653 93.1865 95.3296 93.1865 95.3296Z" fill="#39B54A"/>
<path d="M74.5273 126.358C74.5273 126.358 102.46 189.618 180.618 234.01C180.618 234.01 162.23 208.021 140.087 192.771C117.974 177.465 96.412 161.086 74.5273 126.358Z" fill="url(#paint22_linear_44_4377)"/>
<path d="M74.5273 126.358C74.5273 126.358 102.46 189.618 180.618 234.01C180.618 234.01 159.786 212.911 137.672 197.605C115.559 182.298 96.412 161.086 74.5273 126.358Z" fill="#39B54A"/>
<path d="M66.5449 152.989C66.5449 152.989 120.413 225.033 179.788 234.202C179.788 234.202 160.796 216.476 127.902 200.544C94.9845 184.522 66.5449 152.989 66.5449 152.989Z" fill="url(#paint23_linear_44_4377)"/>
<path d="M66.8918 153.134C66.8918 153.134 120.76 225.178 180.134 234.347C180.134 234.347 165.571 227.036 134.906 210.749C93.8625 188.88 66.8918 153.134 66.8918 153.134Z" fill="#39B54A"/>
<path d="M53.2133 201.172C53.2133 201.172 119.46 237.744 179.598 235.152C179.598 235.152 160.295 223.758 125.007 219.212C89.6359 214.688 64.715 206.371 53.2133 201.172Z" fill="url(#paint24_linear_44_4377)"/>
<path d="M53.5378 201.224C53.5378 201.224 119.784 237.796 179.922 235.204C179.922 235.204 156.603 230.116 125.213 224.324C90.1014 217.777 65.0685 206.366 53.5378 201.224Z" fill="#39B54A"/>
<defs>
<linearGradient id="paint0_linear_44_4377" x1="152.944" y1="279.849" x2="155.377" y2="281.11" gradientUnits="userSpaceOnUse">
<stop stop-color="#54B948"/>
<stop offset="0.3764" stop-color="#00A651"/>
<stop offset="1" stop-color="#005826"/>
</linearGradient>
<linearGradient id="paint1_linear_44_4377" x1="157.464" y1="282.754" x2="155.03" y2="281.493" gradientUnits="userSpaceOnUse">
<stop stop-color="#54B948"/>
<stop offset="0.3764" stop-color="#00A651"/>
<stop offset="1" stop-color="#005826"/>
</linearGradient>
<linearGradient id="paint2_linear_44_4377" x1="181.955" y1="148.923" x2="266.963" y2="151.703" gradientUnits="userSpaceOnUse">
<stop stop-color="#54B948"/>
<stop offset="0.3764" stop-color="#00A651"/>
<stop offset="1" stop-color="#005826"/>
</linearGradient>
<linearGradient id="paint3_linear_44_4377" x1="237.518" y1="164.609" x2="228.446" y2="158.288" gradientUnits="userSpaceOnUse">
<stop stop-color="#54B948"/>
<stop offset="0.3764" stop-color="#00A651"/>
<stop offset="1" stop-color="#005826"/>
</linearGradient>
<linearGradient id="paint4_linear_44_4377" x1="244.273" y1="187.458" x2="223.941" y2="158.612" gradientUnits="userSpaceOnUse">
<stop stop-color="#54B948"/>
<stop offset="0.3764" stop-color="#00A651"/>
<stop offset="1" stop-color="#005826"/>
</linearGradient>
<linearGradient id="paint5_linear_44_4377" x1="247.882" y1="189.372" x2="231.897" y2="174.572" gradientUnits="userSpaceOnUse">
<stop stop-color="#54B948"/>
<stop offset="0.3764" stop-color="#00A651"/>
<stop offset="1" stop-color="#005826"/>
</linearGradient>
<linearGradient id="paint6_linear_44_4377" x1="260.105" y1="210.669" x2="225.505" y2="180.454" gradientUnits="userSpaceOnUse">
<stop stop-color="#54B948"/>
<stop offset="0.3764" stop-color="#00A651"/>
<stop offset="1" stop-color="#005826"/>
</linearGradient>
<linearGradient id="paint7_linear_44_4377" x1="255.905" y1="227.622" x2="236.296" y2="196.519" gradientUnits="userSpaceOnUse">
<stop stop-color="#54B948"/>
<stop offset="0.3764" stop-color="#00A651"/>
<stop offset="1" stop-color="#005826"/>
</linearGradient>
<linearGradient id="paint8_linear_44_4377" x1="194.137" y1="341.861" x2="233.588" y2="260.83" gradientUnits="userSpaceOnUse">
<stop stop-color="#54B948"/>
<stop offset="0.3764" stop-color="#00A651"/>
<stop offset="1" stop-color="#005826"/>
</linearGradient>
<linearGradient id="paint9_linear_44_4377" x1="274.009" y1="267.443" x2="221.556" y2="199.577" gradientUnits="userSpaceOnUse">
<stop stop-color="#54B948"/>
<stop offset="0.3764" stop-color="#00A651"/>
<stop offset="1" stop-color="#005826"/>
</linearGradient>
<linearGradient id="paint10_linear_44_4377" x1="264.925" y1="272.84" x2="243.808" y2="210.35" gradientUnits="userSpaceOnUse">
<stop stop-color="#54B948"/>
<stop offset="0.3764" stop-color="#00A651"/>
<stop offset="1" stop-color="#005826"/>
</linearGradient>
<linearGradient id="paint11_linear_44_4377" x1="250.01" y1="287.932" x2="246.367" y2="228.469" gradientUnits="userSpaceOnUse">
<stop stop-color="#54B948"/>
<stop offset="0.3764" stop-color="#00A651"/>
<stop offset="1" stop-color="#005826"/>
</linearGradient>
<linearGradient id="paint12_linear_44_4377" x1="236.541" y1="294.709" x2="244.637" y2="244.098" gradientUnits="userSpaceOnUse">
<stop stop-color="#54B948"/>
<stop offset="0.3764" stop-color="#00A651"/>
<stop offset="1" stop-color="#005826"/>
</linearGradient>
<linearGradient id="paint13_linear_44_4377" x1="212.911" y1="308.882" x2="236.932" y2="269.055" gradientUnits="userSpaceOnUse">
<stop stop-color="#54B948"/>
<stop offset="0.3764" stop-color="#00A651"/>
<stop offset="1" stop-color="#005826"/>
</linearGradient>
<linearGradient id="paint14_linear_44_4377" x1="206.304" y1="143.802" x2="218.136" y2="148.47" gradientUnits="userSpaceOnUse">
<stop stop-color="#54B948"/>
<stop offset="0.3764" stop-color="#00A651"/>
<stop offset="1" stop-color="#005826"/>
</linearGradient>
<linearGradient id="paint15_linear_44_4377" x1="184.054" y1="147.966" x2="216.465" y2="149.454" gradientUnits="userSpaceOnUse">
<stop stop-color="#54B948"/>
<stop offset="0.3764" stop-color="#00A651"/>
<stop offset="1" stop-color="#005826"/>
</linearGradient>
<linearGradient id="paint16_linear_44_4377" x1="180.632" y1="145.338" x2="200.914" y2="150.055" gradientUnits="userSpaceOnUse">
<stop stop-color="#54B948"/>
<stop offset="0.3764" stop-color="#00A651"/>
<stop offset="1" stop-color="#005826"/>
</linearGradient>
<linearGradient id="paint17_linear_44_4377" x1="158.922" y1="144.265" x2="201.376" y2="155.282" gradientUnits="userSpaceOnUse">
<stop stop-color="#54B948"/>
<stop offset="0.3764" stop-color="#00A651"/>
<stop offset="1" stop-color="#005826"/>
</linearGradient>
<linearGradient id="paint18_linear_44_4377" x1="142.797" y1="153.355" x2="181.352" y2="153.375" gradientUnits="userSpaceOnUse">
<stop stop-color="#54B948"/>
<stop offset="0.3764" stop-color="#00A651"/>
<stop offset="1" stop-color="#005826"/>
</linearGradient>
<linearGradient id="paint19_linear_44_4377" x1="88.3315" y1="272.73" x2="145.641" y2="206.319" gradientUnits="userSpaceOnUse">
<stop stop-color="#54B948"/>
<stop offset="0.3764" stop-color="#00A651"/>
<stop offset="1" stop-color="#005826"/>
</linearGradient>
<linearGradient id="paint20_linear_44_4377" x1="107.709" y1="158.367" x2="186.915" y2="164.849" gradientUnits="userSpaceOnUse">
<stop stop-color="#54B948"/>
<stop offset="0.3764" stop-color="#00A651"/>
<stop offset="1" stop-color="#005826"/>
</linearGradient>
<linearGradient id="paint21_linear_44_4377" x1="107.87" y1="169.997" x2="166.32" y2="158.517" gradientUnits="userSpaceOnUse">
<stop stop-color="#54B948"/>
<stop offset="0.3764" stop-color="#00A651"/>
<stop offset="1" stop-color="#005826"/>
</linearGradient>
<linearGradient id="paint22_linear_44_4377" x1="103.154" y1="191.927" x2="152.895" y2="170.248" gradientUnits="userSpaceOnUse">
<stop stop-color="#54B948"/>
<stop offset="0.3764" stop-color="#00A651"/>
<stop offset="1" stop-color="#005826"/>
</linearGradient>
<linearGradient id="paint23_linear_44_4377" x1="104.346" y1="208.397" x2="143.822" y2="181.47" gradientUnits="userSpaceOnUse">
<stop stop-color="#54B948"/>
<stop offset="0.3764" stop-color="#00A651"/>
<stop offset="1" stop-color="#005826"/>
</linearGradient>
<linearGradient id="paint24_linear_44_4377" x1="104.852" y1="238.301" x2="131.748" y2="200.852" gradientUnits="userSpaceOnUse">
<stop stop-color="#54B948"/>
<stop offset="0.3764" stop-color="#00A651"/>
<stop offset="1" stop-color="#005826"/>
</linearGradient>
</defs>
</svg>
